<?xml version="1.0" encoding="UTF-8"?>
<!DOCTYPE svg PUBLIC "-//W3C//DTD SVG 1.1//EN" "http://www.w3.org/Graphics/SVG/1.1/DTD/svg11.dtd">
<svg xmlns="http://www.w3.org/2000/svg" version="1.1" width="1194px" height="1125px" style="shape-rendering:geometricPrecision; text-rendering:geometricPrecision; image-rendering:optimizeQuality; fill-rule:evenodd; clip-rule:evenodd" xmlns:xlink="http://www.w3.org/1999/xlink">
<g><path style="opacity:0.963" fill="#7693a3" d="M 982.5,-0.5 C 986.167,-0.5 989.833,-0.5 993.5,-0.5C 997.78,2.63203 999.78,6.96536 999.5,12.5C 998.754,18.5595 997.754,24.5595 996.5,30.5C 992.838,43.9214 989.338,57.5881 986,71.5C 980.688,84.5732 971.521,88.4065 958.5,83C 957.672,81.0077 956.339,79.5077 954.5,78.5C 953.64,74.5662 953.307,70.5662 953.5,66.5C 954.699,58.7896 956.199,51.123 958,43.5C 959.69,39.8094 961.524,39.6427 963.5,43C 962.459,49.3002 960.959,55.4668 959,61.5C 957.168,68.6416 958.668,74.8082 963.5,80C 973.651,81.8625 979.818,77.6959 982,67.5C 983.99,56.2139 986.49,45.0473 989.5,34C 989.43,33.2352 989.097,32.7352 988.5,32.5C 990.298,25.9881 991.631,19.3214 992.5,12.5C 992.313,6.36366 989.313,4.53032 983.5,7C 982.696,8.77135 981.529,10.2713 980,11.5C 979.017,19.4202 977.183,27.0868 974.5,34.5C 973.688,35.9931 972.355,36.6598 970.5,36.5C 969.274,36.4805 968.274,36.1471 967.5,35.5C 968.824,25.2415 971.324,15.2415 975,5.5C 977.114,2.87922 979.614,0.879222 982.5,-0.5 Z M 988.5,32.5 C 987.609,31.8902 986.609,31.5569 985.5,31.5C 987.19,28.4804 987.356,25.4804 986,22.5C 983.733,21.0652 981.733,21.3985 980,23.5C 979.224,26.8886 978.391,30.2219 977.5,33.5C 976.791,34.404 975.791,34.7373 974.5,34.5C 977.183,27.0868 979.017,19.4202 980,11.5C 981.529,10.2713 982.696,8.77135 983.5,7C 989.313,4.53032 992.313,6.36366 992.5,12.5C 991.631,19.3214 990.298,25.9881 988.5,32.5 Z"/></g>
<g><path style="opacity:0.747" fill="#708ea0" d="M 985.5,31.5 C 985.389,32.1174 985.056,32.6174 984.5,33C 982.19,33.4966 979.857,33.6633 977.5,33.5C 978.391,30.2219 979.224,26.8886 980,23.5C 981.733,21.3985 983.733,21.0652 986,22.5C 987.356,25.4804 987.19,28.4804 985.5,31.5 Z"/></g>
<g><path style="opacity:1" fill="#21e7f6" d="M 1031.5,28.5 C 1032.12,30.754 1033.46,32.4206 1035.5,33.5C 1037.45,35.734 1038.61,38.4006 1039,41.5C 1039.67,205.833 1039.67,370.167 1039,534.5C 1038.06,542.716 1034.22,549.216 1027.5,554C 1025.09,555.707 1022.42,556.54 1019.5,556.5C 1019.5,380.167 1019.5,203.833 1019.5,27.5C 1023.52,27.6458 1027.52,27.9791 1031.5,28.5 Z"/></g>
<g><path style="opacity:0.149" fill="#20c5f1" d="M 1032.5,26.5 C 1041.92,27.2994 1049.42,31.6327 1055,39.5C 1058.31,44.4474 1060.65,49.7807 1062,55.5C 1062.5,179.166 1062.67,302.833 1062.5,426.5C 1062.17,427.5 1061.5,428.167 1060.5,428.5C 1056.96,429.789 1053.62,431.456 1050.5,433.5C 1050.67,305.833 1050.5,178.166 1050,50.5C 1047.5,42.4845 1042.84,36.1512 1036,31.5C 1035.54,32.0944 1035.37,32.7611 1035.5,33.5C 1033.46,32.4206 1032.12,30.754 1031.5,28.5C 1032.34,28.1583 1032.67,27.4916 1032.5,26.5 Z"/></g>
<g><path style="opacity:0.963" fill="#fefefe" d="M 985.5,31.5 C 986.609,31.5569 987.609,31.8902 988.5,32.5C 989.097,32.7352 989.43,33.2352 989.5,34C 986.49,45.0473 983.99,56.2139 982,67.5C 979.818,77.6959 973.651,81.8625 963.5,80C 958.668,74.8082 957.168,68.6416 959,61.5C 960.959,55.4668 962.459,49.3002 963.5,43C 961.524,39.6427 959.69,39.8094 958,43.5C 956.199,51.123 954.699,58.7896 953.5,66.5C 952.776,68.2184 952.109,70.0517 951.5,72C 880.148,84.8392 808.815,97.6726 737.5,110.5C 737.334,104.824 737.501,99.1569 738,93.5C 739.213,89.1495 741.046,85.1495 743.5,81.5C 745.833,81.1667 747.167,79.8333 747.5,77.5C 750.09,76.8717 752.423,75.705 754.5,74C 825.382,60.8479 896.382,48.0146 967.5,35.5C 968.274,36.1471 969.274,36.4805 970.5,36.5C 972.355,36.6598 973.688,35.9931 974.5,34.5C 975.791,34.7373 976.791,34.404 977.5,33.5C 979.857,33.6633 982.19,33.4966 984.5,33C 985.056,32.6174 985.389,32.1174 985.5,31.5 Z"/></g>
<g><path style="opacity:0.998" fill="#1cb1d7" d="M 1050.5,433.5 C 1050.98,473.215 1050.48,512.881 1049,552.5C 1045.87,559.263 1041.04,564.43 1034.5,568C 1011.06,572.086 987.723,576.586 964.5,581.5C 911.147,591.333 857.813,601 804.5,610.5C 803.513,605.695 803.179,600.695 803.5,595.5C 811.261,594.156 818.928,592.823 826.5,591.5C 889.552,580.363 952.552,569.029 1015.5,557.5C 1016.79,557.737 1017.79,557.404 1018.5,556.5C 1018.83,556.5 1019.17,556.5 1019.5,556.5C 1022.42,556.54 1025.09,555.707 1027.5,554C 1034.22,549.216 1038.06,542.716 1039,534.5C 1039.67,370.167 1039.67,205.833 1039,41.5C 1038.61,38.4006 1037.45,35.734 1035.5,33.5C 1035.37,32.7611 1035.54,32.0944 1036,31.5C 1042.84,36.1512 1047.5,42.4845 1050,50.5C 1050.5,178.166 1050.67,305.833 1050.5,433.5 Z"/></g>
<g><path style="opacity:1" fill="#fefefe" d="M 1018.5,26.5 C 1018.5,39.8333 1018.5,53.1667 1018.5,66.5C 1017.5,78.3217 1017.17,90.3217 1017.5,102.5C 952.07,113.453 886.737,124.787 821.5,136.5C 821.806,133.615 821.473,130.948 820.5,128.5C 819.944,124.77 818.278,121.603 815.5,119C 812.136,117.318 808.802,115.651 805.5,114C 791.504,113.5 777.504,113.333 763.5,113.5C 827.262,101.93 890.929,90.2631 954.5,78.5C 956.339,79.5077 957.672,81.0077 958.5,83C 971.521,88.4065 980.688,84.5732 986,71.5C 989.338,57.5881 992.838,43.9214 996.5,30.5C 1003.95,29.3706 1011.28,28.0373 1018.5,26.5 Z"/></g>
<g><path style="opacity:1" fill="#fdedec" d="M 953.5,66.5 C 953.307,70.5662 953.64,74.5662 954.5,78.5C 890.929,90.2631 827.262,101.93 763.5,113.5C 754.833,113.5 746.167,113.5 737.5,113.5C 737.5,112.5 737.5,111.5 737.5,110.5C 808.815,97.6726 880.148,84.8392 951.5,72C 952.109,70.0517 952.776,68.2184 953.5,66.5 Z"/></g>
<g><path style="opacity:0.004" fill="#fefffe" d="M 747.5,77.5 C 746.833,76.1667 746.833,76.1667 747.5,77.5 Z"/></g>
<g><path style="opacity:0.004" fill="#fefffe" d="M 743.5,81.5 C 742.833,80.1667 742.833,80.1667 743.5,81.5 Z"/></g>
<g><path style="opacity:0.2" fill="#1ec2f0" d="M 446.5,113.5 C 447.649,113.791 448.316,114.624 448.5,116C 449.159,118.462 449.493,120.962 449.5,123.5C 438.833,123.5 428.167,123.5 417.5,123.5C 402.998,121.242 393.332,126.908 388.5,140.5C 387.5,284.999 387.167,429.666 387.5,574.5C 386.209,574.263 385.209,574.596 384.5,575.5C 379.988,574.903 375.655,573.903 371.5,572.5C 370.335,424.903 370.168,277.236 371,129.5C 372.764,121.478 377.598,116.311 385.5,114C 405.831,113.5 426.164,113.333 446.5,113.5 Z"/></g>
<g><path style="opacity:1" fill="#7794a5" d="M 484.5,113.5 C 484.833,116.833 485.167,120.167 485.5,123.5C 485.5,123.833 485.5,124.167 485.5,124.5C 483.379,124.675 481.379,124.341 479.5,123.5C 478.454,120.272 477.788,116.939 477.5,113.5C 475.238,107.749 473.405,101.749 472,95.5C 467.518,89.6719 462.018,88.5053 455.5,92C 453.514,94.3169 452.181,96.9836 451.5,100C 453.331,104.322 454.331,108.822 454.5,113.5C 455.257,116.99 456.257,120.323 457.5,123.5C 460.48,137.904 463.647,152.237 467,166.5C 472.363,179.931 481.529,183.431 494.5,177C 499.233,172.984 501.567,167.818 501.5,161.5C 498.995,151.292 496.662,140.958 494.5,130.5C 495.405,127.14 496.905,126.807 499,129.5C 502.036,138.757 504.536,148.09 506.5,157.5C 506.817,162.676 506.151,167.676 504.5,172.5C 496.547,186.114 485.547,189.28 471.5,182C 468.114,179.222 465.448,175.888 463.5,172C 459.337,155.967 455.004,140.133 450.5,124.5C 450.5,123.833 450.167,123.5 449.5,123.5C 449.493,120.962 449.159,118.462 448.5,116C 448.316,114.624 447.649,113.791 446.5,113.5C 446.106,108.969 445.439,104.469 444.5,100C 447.229,85.6064 455.729,80.1064 470,83.5C 475.608,87.1039 479.275,92.1039 481,98.5C 481.869,103.702 483.036,108.702 484.5,113.5 Z M 477.5,113.5 C 474.833,113.5 472.167,113.5 469.5,113.5C 468.928,110.756 467.262,109.923 464.5,111C 463.748,111.671 463.414,112.504 463.5,113.5C 460.5,113.5 457.5,113.5 454.5,113.5C 454.331,108.822 453.331,104.322 451.5,100C 452.181,96.9836 453.514,94.3169 455.5,92C 462.018,88.5053 467.518,89.6719 472,95.5C 473.405,101.749 475.238,107.749 477.5,113.5 Z"/></g>
<g><path style="opacity:0.996" fill="#6f93a5" d="M 469.5,113.5 C 470.546,116.728 471.212,120.061 471.5,123.5C 469.611,124.742 467.611,124.742 465.5,123.5C 464.454,120.272 463.788,116.939 463.5,113.5C 463.414,112.504 463.748,111.671 464.5,111C 467.262,109.923 468.928,110.756 469.5,113.5 Z"/></g>
<g><path style="opacity:0.201" fill="#1cc4f1" d="M 454.5,113.5 C 457.5,113.5 460.5,113.5 463.5,113.5C 463.788,116.939 464.454,120.272 465.5,123.5C 462.833,123.5 460.167,123.5 457.5,123.5C 456.257,120.323 455.257,116.99 454.5,113.5 Z"/></g>
<g><path style="opacity:0.201" fill="#1bc4f1" d="M 469.5,113.5 C 472.167,113.5 474.833,113.5 477.5,113.5C 477.788,116.939 478.454,120.272 479.5,123.5C 476.833,123.5 474.167,123.5 471.5,123.5C 471.212,120.061 470.546,116.728 469.5,113.5 Z"/></g>
<g><path style="opacity:0.201" fill="#1dc2ef" d="M 484.5,113.5 C 568.833,113.5 653.167,113.5 737.5,113.5C 737.5,116.833 737.5,120.167 737.5,123.5C 653.5,123.5 569.5,123.5 485.5,123.5C 485.167,120.167 484.833,116.833 484.5,113.5 Z"/></g>
<g><path style="opacity:1" fill="#d0f2fb" d="M 737.5,113.5 C 746.167,113.5 754.833,113.5 763.5,113.5C 777.504,113.333 791.504,113.5 805.5,114C 808.802,115.651 812.136,117.318 815.5,119C 818.278,121.603 819.944,124.77 820.5,128.5C 820.442,145.302 820.776,161.969 821.5,178.5C 821.5,180.5 821.5,182.5 821.5,184.5C 821.5,184.833 821.5,185.167 821.5,185.5C 820.272,199.013 820.272,212.679 821.5,226.5C 821.5,240.5 821.5,254.5 821.5,268.5C 820.224,296.012 820.224,323.678 821.5,351.5C 821.5,362.833 821.5,374.167 821.5,385.5C 821.5,387.833 821.5,390.167 821.5,392.5C 821.5,404.167 821.5,415.833 821.5,427.5C 821.5,429.5 821.5,431.5 821.5,433.5C 820.269,447.346 820.269,461.346 821.5,475.5C 820.272,489.013 820.272,502.679 821.5,516.5C 821.5,528.167 821.5,539.833 821.5,551.5C 821.5,553.833 821.5,556.167 821.5,558.5C 821.5,569.5 821.5,580.5 821.5,591.5C 823.167,591.5 824.833,591.5 826.5,591.5C 818.928,592.823 811.261,594.156 803.5,595.5C 803.5,537.833 803.5,480.167 803.5,422.5C 803.5,407.5 803.5,392.5 803.5,377.5C 803.5,375.167 803.5,372.833 803.5,370.5C 803.5,355.5 803.5,340.5 803.5,325.5C 803.5,323.5 803.5,321.5 803.5,319.5C 803.5,304.5 803.5,289.5 803.5,274.5C 803.5,240.5 803.5,206.5 803.5,172.5C 803.5,170.167 803.5,167.833 803.5,165.5C 803.666,156.827 803.5,148.16 803,139.5C 800.86,132.026 796.026,127.193 788.5,125C 687.501,124.5 586.501,124.333 485.5,124.5C 485.5,124.167 485.5,123.833 485.5,123.5C 569.5,123.5 653.5,123.5 737.5,123.5C 737.5,120.167 737.5,116.833 737.5,113.5 Z"/></g>
<g><path style="opacity:1" fill="#25e8f7" d="M 417.5,123.5 C 417.5,342.167 417.5,560.833 417.5,779.5C 405.696,782.766 396.696,779.099 390.5,768.5C 389.84,704.125 389.174,639.791 388.5,575.5C 388.5,430.5 388.5,285.5 388.5,140.5C 393.332,126.908 402.998,121.242 417.5,123.5 Z"/></g>
<g><path style="opacity:1" fill="#fefefe" d="M 457.5,123.5 C 460.167,123.5 462.833,123.5 465.5,123.5C 467.611,124.742 469.611,124.742 471.5,123.5C 474.167,123.5 476.833,123.5 479.5,123.5C 481.379,124.341 483.379,124.675 485.5,124.5C 586.501,124.333 687.501,124.5 788.5,125C 796.026,127.193 800.86,132.026 803,139.5C 803.5,148.16 803.666,156.827 803.5,165.5C 704.833,165.5 606.167,165.5 507.5,165.5C 507.806,162.615 507.473,159.948 506.5,157.5C 504.536,148.09 502.036,138.757 499,129.5C 496.905,126.807 495.405,127.14 494.5,130.5C 496.662,140.958 498.995,151.292 501.5,161.5C 501.567,167.818 499.233,172.984 494.5,177C 481.529,183.431 472.363,179.931 467,166.5C 463.647,152.237 460.48,137.904 457.5,123.5 Z"/></g>
<g><path style="opacity:0.149" fill="#05adea" d="M 388.5,140.5 C 388.5,285.5 388.5,430.5 388.5,575.5C 387.167,575.5 385.833,575.5 384.5,575.5C 385.209,574.596 386.209,574.263 387.5,574.5C 387.167,429.666 387.5,284.999 388.5,140.5 Z"/></g>
<g><path style="opacity:1" fill="#fefefe" d="M 821.5,185.5 C 821.5,185.167 821.5,184.833 821.5,184.5C 830.496,183.445 839.496,182.278 848.5,181C 904.509,169.949 960.676,159.449 1017,149.5C 1017.5,161.495 1017.67,173.495 1017.5,185.5C 953.512,195.885 889.846,207.218 826.5,219.5C 824.9,219.449 823.4,219.116 822,218.5C 821.5,207.505 821.333,196.505 821.5,185.5 Z"/></g>
<g><path style="opacity:1" fill="#fceceb" d="M 506.5,157.5 C 507.473,159.948 507.806,162.615 507.5,165.5C 606.167,165.5 704.833,165.5 803.5,165.5C 803.5,167.833 803.5,170.167 803.5,172.5C 803.167,172.5 802.833,172.5 802.5,172.5C 703.167,172.5 603.833,172.5 504.5,172.5C 506.151,167.676 506.817,162.676 506.5,157.5 Z"/></g>
<g><path style="opacity:1" fill="#fefefe" d="M 450.5,124.5 C 455.004,140.133 459.337,155.967 463.5,172C 465.448,175.888 468.114,179.222 471.5,182C 485.547,189.28 496.547,186.114 504.5,172.5C 603.833,172.5 703.167,172.5 802.5,172.5C 802.5,187.5 802.5,202.5 802.5,217.5C 674.5,217.5 546.5,217.5 418.5,217.5C 418.5,186.5 418.5,155.5 418.5,124.5C 429.167,124.5 439.833,124.5 450.5,124.5 Z"/></g>
<g><path style="opacity:1" fill="#fefefe" d="M 877.5,251.5 C 870.833,251.5 864.167,251.5 857.5,251.5C 856.671,244.679 856.171,237.679 856,230.5C 854,227.833 852,227.833 850,230.5C 849.667,236.167 849.333,241.833 849,247.5C 847.322,245.447 845.489,245.113 843.5,246.5C 842.53,250.127 840.863,250.461 838.5,247.5C 836.595,248.065 834.929,249.065 833.5,250.5C 831.356,249.047 829.523,249.38 828,251.5C 827.333,258.833 827.333,266.167 828,273.5C 828.66,275.324 829.827,276.657 831.5,277.5C 831.5,280.5 831.5,283.5 831.5,286.5C 829.983,286.511 828.816,287.177 828,288.5C 827.501,292.821 827.334,297.154 827.5,301.5C 825.5,301.833 823.5,302.167 821.5,302.5C 821.5,291.167 821.5,279.833 821.5,268.5C 821.5,254.5 821.5,240.5 821.5,226.5C 886.366,214.729 951.366,203.063 1016.5,191.5C 1017.5,203.148 1017.83,214.814 1017.5,226.5C 970.668,234.548 924.001,242.881 877.5,251.5 Z"/></g>
<g><path style="opacity:1" fill="#29e8f7" d="M 29.5,198.5 C 27.5117,218.473 26.8451,238.806 27.5,259.5C 27.5,262.167 27.5,264.833 27.5,267.5C 27.5,276.5 27.5,285.5 27.5,294.5C 27.5,296.833 27.5,299.167 27.5,301.5C 27.5,310.833 27.5,320.167 27.5,329.5C 27.5,331.833 27.5,334.167 27.5,336.5C 27.5,369.167 27.5,401.833 27.5,434.5C 27.5,436.5 27.5,438.5 27.5,440.5C 27.5,450.167 27.5,459.833 27.5,469.5C 27.5,471.5 27.5,473.5 27.5,475.5C 27.5,485.167 27.5,494.833 27.5,504.5C 27.5,506.5 27.5,508.5 27.5,510.5C 27.5,519.5 27.5,528.5 27.5,537.5C 27.5,540.167 27.5,542.833 27.5,545.5C 27.5,554.5 27.5,563.5 27.5,572.5C 27.5,574.833 27.5,577.167 27.5,579.5C 27.5,588.833 27.5,598.167 27.5,607.5C 27.5,609.833 27.5,612.167 27.5,614.5C 27.5,623.833 27.5,633.167 27.5,642.5C 19.5397,638.162 14.7064,631.495 13,622.5C 12.3333,483.5 12.3333,344.5 13,205.5C 13.232,202.262 14.732,199.762 17.5,198C 16.9056,197.536 16.2389,197.369 15.5,197.5C 19.3991,195.33 23.5657,194.996 28,196.5C 29.0299,196.836 29.5299,197.503 29.5,198.5 Z"/></g>
<g><path style="opacity:0.993" fill="#7693a4" d="M 64.5,214.5 C 63.1266,214.657 61.7932,214.49 60.5,214C 56.8861,212.018 53.3861,209.851 50,207.5C 51.1767,216.417 52.1767,225.417 53,234.5C 54.0661,241.8 57.5661,247.633 63.5,252C 65.9034,252.63 67.7367,251.797 69,249.5C 69.6667,244.833 69.6667,240.167 69,235.5C 67.8462,230.202 67.0128,224.869 66.5,219.5C 68.1439,219.286 69.6439,219.62 71,220.5C 71.6172,225.253 72.6172,229.92 74,234.5C 74.499,238.821 74.6657,243.154 74.5,247.5C 74.2964,249.685 73.6298,251.685 72.5,253.5C 64.3297,258.66 57.8297,256.993 53,248.5C 50.7388,244.05 49.0722,239.383 48,234.5C 47.0251,223.982 45.1918,213.649 42.5,203.5C 40.136,197.447 39.3027,191.113 40,184.5C 44.5218,176.639 50.0218,175.806 56.5,182C 57.8742,184.583 59.3742,187.083 61,189.5C 62.5871,197.777 63.7538,206.11 64.5,214.5 Z M 47.5,185.5 C 49.1703,185.751 50.6703,186.418 52,187.5C 53.7827,191.298 54.6161,195.298 54.5,199.5C 52.8333,199.5 51.1667,199.5 49.5,199.5C 48.015,196.981 47.3483,192.315 47.5,185.5 Z"/></g>
<g><path style="opacity:0.983" fill="#12add1" d="M 15.5,197.5 C 16.2389,197.369 16.9056,197.536 17.5,198C 14.732,199.762 13.232,202.262 13,205.5C 12.3333,344.5 12.3333,483.5 13,622.5C 14.7064,631.495 19.5397,638.162 27.5,642.5C 57.774,656.366 88.1073,670.033 118.5,683.5C 118.5,684.833 119.167,685.5 120.5,685.5C 120.5,690.833 120.5,696.167 120.5,701.5C 119.448,701.351 118.448,701.517 117.5,702C 119.119,702.236 120.119,703.069 120.5,704.5C 120.167,704.5 119.833,704.5 119.5,704.5C 81.7252,687.867 44.0585,670.2 6.5,651.5C 3.61998,647.073 1.28665,642.407 -0.5,637.5C -0.5,497.167 -0.5,356.833 -0.5,216.5C 2.69213,208.312 8.02547,201.979 15.5,197.5 Z"/></g>
<g><path style="opacity:0.952" fill="#fefdfd" d="M 64.5,214.5 C 115.489,237.994 166.489,261.494 217.5,285C 221.515,288.849 224.682,293.349 227,298.5C 228.304,304.423 228.804,310.423 228.5,316.5C 225.521,315.683 222.521,314.849 219.5,314C 177.975,294.456 136.475,274.956 95,255.5C 88.0492,252.934 81.2158,250.267 74.5,247.5C 74.6657,243.154 74.499,238.821 74,234.5C 72.6172,229.92 71.6172,225.253 71,220.5C 69.6439,219.62 68.1439,219.286 66.5,219.5C 67.0128,224.869 67.8462,230.202 69,235.5C 69.6667,240.167 69.6667,244.833 69,249.5C 67.7367,251.797 65.9034,252.63 63.5,252C 57.5661,247.633 54.0661,241.8 53,234.5C 52.1767,225.417 51.1767,216.417 50,207.5C 53.3861,209.851 56.8861,212.018 60.5,214C 61.7932,214.49 63.1266,214.657 64.5,214.5 Z"/></g>
<g><path style="opacity:1" fill="#fefefe" d="M 418.5,223.5 C 546.5,223.5 674.5,223.5 802.5,223.5C 802.5,238.5 802.5,253.5 802.5,268.5C 674.5,268.5 546.5,268.5 418.5,268.5C 418.5,253.5 418.5,238.5 418.5,223.5 Z"/></g>
<g><path style="opacity:1" fill="#fdd7af" d="M 857.5,251.5 C 856.21,254.192 857.043,256.192 860,257.5C 860.667,262.833 860.667,268.167 860,273.5C 856.782,277.897 855.615,282.897 856.5,288.5C 855.711,288.217 855.044,287.717 854.5,287C 846.841,286.5 839.174,286.334 831.5,286.5C 831.5,283.5 831.5,280.5 831.5,277.5C 836.07,278.441 840.737,278.774 845.5,278.5C 842.969,268.721 846.635,263.387 856.5,262.5C 851.489,262.654 848.322,260.321 847,255.5C 845.161,257.711 845.328,259.877 847.5,262C 846.552,262.483 845.552,262.649 844.5,262.5C 844.195,257.238 844.529,252.072 845.5,247C 844.906,246.536 844.239,246.369 843.5,246.5C 845.489,245.113 847.322,245.447 849,247.5C 849.333,241.833 849.667,236.167 850,230.5C 852,227.833 854,227.833 856,230.5C 856.171,237.679 856.671,244.679 857.5,251.5 Z"/></g>
<g><path style="opacity:0.996" fill="#fefefe" d="M 29.5,198.5 C 34.1022,199.588 38.4355,201.254 42.5,203.5C 45.1918,213.649 47.0251,223.982 48,234.5C 49.0722,239.383 50.7388,244.05 53,248.5C 57.8297,256.993 64.3297,258.66 72.5,253.5C 123.484,276.564 174.651,299.898 226,323.5C 226.902,323.257 227.735,322.923 228.5,322.5C 228.5,332.167 228.5,341.833 228.5,351.5C 161.368,321.229 94.3678,290.562 27.5,259.5C 26.8451,238.806 27.5117,218.473 29.5,198.5 Z"/></g>
<g><path style="opacity:1" fill="#fdedec" d="M 74.5,247.5 C 81.2158,250.267 88.0492,252.934 95,255.5C 136.475,274.956 177.975,294.456 219.5,314C 222.521,314.849 225.521,315.683 228.5,316.5C 228.5,318.5 228.5,320.5 228.5,322.5C 227.735,322.923 226.902,323.257 226,323.5C 174.651,299.898 123.484,276.564 72.5,253.5C 73.6298,251.685 74.2964,249.685 74.5,247.5 Z"/></g>
<g><path style="opacity:1" fill="#d8165c" d="M 857.5,251.5 C 864.167,251.5 870.833,251.5 877.5,251.5C 885.352,251.175 893.018,251.508 900.5,252.5C 900.5,272.833 900.5,293.167 900.5,313.5C 885.833,313.5 871.167,313.5 856.5,313.5C 854.473,313.662 852.473,313.495 850.5,313C 849.978,312.439 849.645,311.772 849.5,311C 851.28,308.216 853.447,305.716 856,303.5C 856.499,298.511 856.666,293.511 856.5,288.5C 855.615,282.897 856.782,277.897 860,273.5C 860.667,268.167 860.667,262.833 860,257.5C 857.043,256.192 856.21,254.192 857.5,251.5 Z"/></g>
<g><path style="opacity:1" fill="#fdeef3" d="M 876.5,259.5 C 878.722,259.178 880.556,259.845 882,261.5C 882.667,271.5 882.667,281.5 882,291.5C 879.667,294.167 877.333,294.167 875,291.5C 874.333,281.5 874.333,271.5 875,261.5C 875.717,260.956 876.217,260.289 876.5,259.5 Z"/></g>
<g><path style="opacity:0.999" fill="#ebf6fc" d="M 27.5,259.5 C 94.3678,290.562 161.368,321.229 228.5,351.5C 228.5,353.167 228.5,354.833 228.5,356.5C 224.964,358.413 221.63,357.58 218.5,354C 155.796,326.148 93.4628,297.482 31.5,268C 30.2068,267.51 28.8734,267.343 27.5,267.5C 27.5,264.833 27.5,262.167 27.5,259.5 Z"/></g>
<g><path style="opacity:1" fill="#eac299" d="M 843.5,246.5 C 844.239,246.369 844.906,246.536 845.5,247C 844.529,252.072 844.195,257.238 844.5,262.5C 845.552,262.649 846.552,262.483 847.5,262C 845.328,259.877 845.161,257.711 847,255.5C 848.322,260.321 851.489,262.654 856.5,262.5C 846.635,263.387 842.969,268.721 845.5,278.5C 840.737,278.774 836.07,278.441 831.5,277.5C 829.827,276.657 828.66,275.324 828,273.5C 827.333,266.167 827.333,258.833 828,251.5C 829.523,249.38 831.356,249.047 833.5,250.5C 834.929,249.065 836.595,248.065 838.5,247.5C 840.863,250.461 842.53,250.127 843.5,246.5 Z"/></g>
<g><path style="opacity:0.996" fill="#fefefe" d="M 27.5,267.5 C 28.8734,267.343 30.2068,267.51 31.5,268C 93.4628,297.482 155.796,326.148 218.5,354C 221.63,357.58 224.964,358.413 228.5,356.5C 228.5,366.5 228.5,376.5 228.5,386.5C 161.536,355.514 94.5361,324.848 27.5,294.5C 27.5,285.5 27.5,276.5 27.5,267.5 Z"/></g>
<g><path style="opacity:1" fill="#eaf6fc" d="M 802.5,172.5 C 802.833,172.5 803.167,172.5 803.5,172.5C 803.5,206.5 803.5,240.5 803.5,274.5C 748.331,274.168 693.331,274.501 638.5,275.5C 618.467,267.63 598.467,267.63 578.5,275.5C 525.336,274.501 472.003,274.168 418.5,274.5C 418.5,272.5 418.5,270.5 418.5,268.5C 546.5,268.5 674.5,268.5 802.5,268.5C 802.5,253.5 802.5,238.5 802.5,223.5C 674.5,223.5 546.5,223.5 418.5,223.5C 418.5,221.5 418.5,219.5 418.5,217.5C 546.5,217.5 674.5,217.5 802.5,217.5C 802.5,202.5 802.5,187.5 802.5,172.5 Z"/></g>
<g><path style="opacity:1" fill="#0ec8c8" d="M 638.5,275.5 C 658.378,284.378 672.045,299.045 679.5,319.5C 680.167,321.5 680.833,323.5 681.5,325.5C 683.022,331.047 683.688,336.714 683.5,342.5C 668.035,327.535 652.701,312.368 637.5,297C 636.906,296.536 636.239,296.369 635.5,296.5C 634.651,294.5 633.151,293.167 631,292.5C 628.741,292.261 627.574,293.261 627.5,295.5C 630.788,305.634 632.621,315.967 633,326.5C 630,331.833 627,337.167 624,342.5C 623.833,340.5 623.667,338.5 623.5,336.5C 624.098,332.162 624.265,327.828 624,323.5C 622.301,322.594 620.467,322.261 618.5,322.5C 608.833,313.167 599.167,303.833 589.5,294.5C 587.912,292.384 585.912,292.051 583.5,293.5C 576.69,304.28 571.69,315.78 568.5,328C 568.523,330.925 569.023,333.759 570,336.5C 574.784,345.733 579.284,355.067 583.5,364.5C 577.924,364.974 575.757,367.974 577,373.5C 578.371,375.041 579.871,376.375 581.5,377.5C 580.962,379.117 580.629,380.784 580.5,382.5C 573.673,381.825 570.84,384.825 572,391.5C 573.5,393.469 575.333,394.802 577.5,395.5C 576.993,399.86 576.327,404.193 575.5,408.5C 574.732,409.263 574.232,410.263 574,411.5C 559.257,403.591 548.091,392.258 540.5,377.5C 539.736,374.982 538.736,372.649 537.5,370.5C 533.158,355.647 532.491,340.647 535.5,325.5C 536.167,323.5 536.833,321.5 537.5,319.5C 544.955,299.045 558.622,284.378 578.5,275.5C 598.467,267.63 618.467,267.63 638.5,275.5 Z"/></g>
<g><path style="opacity:1" fill="#6ceff9" d="M 1032.5,26.5 C 1032.67,27.4916 1032.34,28.1583 1031.5,28.5C 1027.52,27.9791 1023.52,27.6458 1019.5,27.5C 1019.5,203.833 1019.5,380.167 1019.5,556.5C 1019.17,556.5 1018.83,556.5 1018.5,556.5C 1018.5,393.167 1018.5,229.833 1018.5,66.5C 1018.5,53.1667 1018.5,39.8333 1018.5,26.5C 1023.22,25.8528 1027.88,25.8528 1032.5,26.5 Z"/></g>
<g><path style="opacity:1" fill="#fefefe" d="M 418.5,274.5 C 472.003,274.168 525.336,274.501 578.5,275.5C 558.622,284.378 544.955,299.045 537.5,319.5C 497.833,319.5 458.167,319.5 418.5,319.5C 418.5,304.5 418.5,289.5 418.5,274.5 Z"/></g>
<g><path style="opacity:1" fill="#fefefe" d="M 827.5,308.5 C 827.5,317.833 827.5,327.167 827.5,336.5C 837.167,336.5 846.833,336.5 856.5,336.5C 856.5,328.833 856.5,321.167 856.5,313.5C 871.167,313.5 885.833,313.5 900.5,313.5C 900.5,293.167 900.5,272.833 900.5,252.5C 906.813,253.124 913.146,252.624 919.5,251C 952.295,245.399 984.795,239.233 1017,232.5C 1017.5,244.162 1017.67,255.829 1017.5,267.5C 979.213,274.326 940.88,281.159 902.5,288C 901.565,290.381 901.232,292.881 901.5,295.5C 930.383,289.464 959.383,284.298 988.5,280C 998.149,278.073 1007.65,275.906 1017,273.5C 1017.5,285.495 1017.67,297.495 1017.5,309.5C 976.246,315.93 935.246,323.43 894.5,332C 870.146,335.771 845.813,339.605 821.5,343.5C 821.5,332.167 821.5,320.833 821.5,309.5C 823.5,309.167 825.5,308.833 827.5,308.5 Z"/></g>
<g><path style="opacity:1" fill="#fefefe" d="M 638.5,275.5 C 693.331,274.501 748.331,274.168 803.5,274.5C 803.5,289.5 803.5,304.5 803.5,319.5C 762.167,319.5 720.833,319.5 679.5,319.5C 672.045,299.045 658.378,284.378 638.5,275.5 Z"/></g>
<g><path style="opacity:1" fill="#fbddce" d="M 589.5,294.5 C 587.835,302.163 586.001,309.83 584,317.5C 583.333,320.5 583.333,323.5 584,326.5C 587,331.833 590,337.167 593,342.5C 593.18,336.157 593.18,329.824 593,323.5C 595,322.167 597,322.167 599,323.5C 603.508,336.866 606.008,350.533 606.5,364.5C 598.833,364.5 591.167,364.5 583.5,364.5C 579.284,355.067 574.784,345.733 570,336.5C 569.023,333.759 568.523,330.925 568.5,328C 571.69,315.78 576.69,304.28 583.5,293.5C 585.912,292.051 587.912,292.384 589.5,294.5 Z"/></g>
<g><path style="opacity:1" fill="#fbccbd" d="M 635.5,296.5 C 639.653,304.807 643.82,313.14 648,321.5C 648.826,326.589 648.492,331.589 647,336.5C 642.216,345.733 637.716,355.067 633.5,364.5C 625.833,364.5 618.167,364.5 610.5,364.5C 610.977,350.113 613.644,336.113 618.5,322.5C 620.467,322.261 622.301,322.594 624,323.5C 624.265,327.828 624.098,332.162 623.5,336.5C 623.667,338.5 623.833,340.5 624,342.5C 627,337.167 630,331.833 633,326.5C 632.621,315.967 630.788,305.634 627.5,295.5C 627.574,293.261 628.741,292.261 631,292.5C 633.151,293.167 634.651,294.5 635.5,296.5 Z"/></g>
<g><path style="opacity:1" fill="#ebf6fc" d="M 27.5,294.5 C 94.5361,324.848 161.536,355.514 228.5,386.5C 228.5,387.833 228.5,389.167 228.5,390.5C 227.244,390.904 226.077,391.571 225,392.5C 158.981,362.444 93.1473,332.111 27.5,301.5C 27.5,299.167 27.5,296.833 27.5,294.5 Z"/></g>
<g><path style="opacity:1" fill="#22b0af" d="M 589.5,294.5 C 599.167,303.833 608.833,313.167 618.5,322.5C 613.644,336.113 610.977,350.113 610.5,364.5C 609.833,364.5 609.167,364.5 608.5,364.5C 607.833,364.5 607.167,364.5 606.5,364.5C 606.008,350.533 603.508,336.866 599,323.5C 597,322.167 595,322.167 593,323.5C 593.18,329.824 593.18,336.157 593,342.5C 590,337.167 587,331.833 584,326.5C 583.333,323.5 583.333,320.5 584,317.5C 586.001,309.83 587.835,302.163 589.5,294.5 Z"/></g>
<g><path style="opacity:1" fill="#1bafaf" d="M 635.5,296.5 C 636.239,296.369 636.906,296.536 637.5,297C 652.701,312.368 668.035,327.535 683.5,342.5C 684.067,352.123 682.734,361.456 679.5,370.5C 678.264,372.649 677.264,374.982 676.5,377.5C 668.861,392.472 657.528,403.806 642.5,411.5C 641.501,406.173 640.501,400.84 639.5,395.5C 639.5,395.167 639.5,394.833 639.5,394.5C 644.85,393.816 646.684,390.816 645,385.5C 642.804,382.875 639.97,381.875 636.5,382.5C 635.699,380.958 635.366,379.292 635.5,377.5C 640.703,374.789 641.703,370.956 638.5,366C 636.975,364.991 635.308,364.491 633.5,364.5C 637.716,355.067 642.216,345.733 647,336.5C 648.492,331.589 648.826,326.589 648,321.5C 643.82,313.14 639.653,304.807 635.5,296.5 Z"/></g>
<g><path style="opacity:1" fill="#ebf7fc" d="M 1018.5,66.5 C 1018.5,229.833 1018.5,393.167 1018.5,556.5C 1017.79,557.404 1016.79,557.737 1015.5,557.5C 1016.79,551.741 1017.46,545.741 1017.5,539.5C 1017.33,533.833 1017.17,528.167 1017,522.5C 1016.25,523.126 1015.42,523.626 1014.5,524C 950.154,535.28 885.821,546.78 821.5,558.5C 821.5,556.167 821.5,553.833 821.5,551.5C 886.731,539.321 952.065,527.654 1017.5,516.5C 1017.5,504.833 1017.5,493.167 1017.5,481.5C 952.435,493.643 887.101,505.309 821.5,516.5C 820.272,502.679 820.272,489.013 821.5,475.5C 820.269,461.346 820.269,447.346 821.5,433.5C 821.5,431.5 821.5,429.5 821.5,427.5C 886.609,415.1 951.943,403.434 1017.5,392.5C 1017.67,380.495 1017.5,368.495 1017,356.5C 1003.91,359.822 990.741,362.656 977.5,365C 925.534,374.483 873.534,383.65 821.5,392.5C 821.5,390.167 821.5,387.833 821.5,385.5C 877.879,375.658 934.212,365.491 990.5,355C 999.426,353.179 1008.43,352.012 1017.5,351.5C 1017.67,339.495 1017.5,327.495 1017,315.5C 971.546,324.032 926.046,332.532 880.5,341C 863.602,344.313 846.602,346.98 829.5,349C 826.798,349.84 824.132,350.673 821.5,351.5C 820.224,323.678 820.224,296.012 821.5,268.5C 821.5,279.833 821.5,291.167 821.5,302.5C 823.5,302.167 825.5,301.833 827.5,301.5C 827.5,303.833 827.5,306.167 827.5,308.5C 825.5,308.833 823.5,309.167 821.5,309.5C 821.5,320.833 821.5,332.167 821.5,343.5C 845.813,339.605 870.146,335.771 894.5,332C 935.246,323.43 976.246,315.93 1017.5,309.5C 1017.67,297.495 1017.5,285.495 1017,273.5C 1007.65,275.906 998.149,278.073 988.5,280C 959.383,284.298 930.383,289.464 901.5,295.5C 901.232,292.881 901.565,290.381 902.5,288C 940.88,281.159 979.213,274.326 1017.5,267.5C 1017.67,255.829 1017.5,244.162 1017,232.5C 984.795,239.233 952.295,245.399 919.5,251C 913.146,252.624 906.813,253.124 900.5,252.5C 893.018,251.508 885.352,251.175 877.5,251.5C 924.001,242.881 970.668,234.548 1017.5,226.5C 1017.83,214.814 1017.5,203.148 1016.5,191.5C 951.366,203.063 886.366,214.729 821.5,226.5C 820.272,212.679 820.272,199.013 821.5,185.5C 821.333,196.505 821.5,207.505 822,218.5C 823.4,219.116 824.9,219.449 826.5,219.5C 889.846,207.218 953.512,195.885 1017.5,185.5C 1017.67,173.495 1017.5,161.495 1017,149.5C 960.676,159.449 904.509,169.949 848.5,181C 839.496,182.278 830.496,183.445 821.5,184.5C 821.5,182.5 821.5,180.5 821.5,178.5C 820.776,161.969 820.442,145.302 820.5,128.5C 821.473,130.948 821.806,133.615 821.5,136.5C 886.737,124.787 952.07,113.453 1017.5,102.5C 1017.17,90.3217 1017.5,78.3217 1018.5,66.5 Z"/></g>
<g><path style="opacity:1" fill="#fdeef4" d="M 876.5,298.5 C 882.016,298.473 883.349,300.64 880.5,305C 875.57,305.427 874.237,303.26 876.5,298.5 Z"/></g>
<g><path style="opacity:1" fill="#fec30c" d="M 831.5,286.5 C 839.174,286.334 846.841,286.5 854.5,287C 855.044,287.717 855.711,288.217 856.5,288.5C 856.666,293.511 856.499,298.511 856,303.5C 853.447,305.716 851.28,308.216 849.5,311C 849.645,311.772 849.978,312.439 850.5,313C 852.473,313.495 854.473,313.662 856.5,313.5C 856.5,321.167 856.5,328.833 856.5,336.5C 846.833,336.5 837.167,336.5 827.5,336.5C 827.5,327.167 827.5,317.833 827.5,308.5C 827.5,306.167 827.5,303.833 827.5,301.5C 827.334,297.154 827.501,292.821 828,288.5C 828.816,287.177 829.983,286.511 831.5,286.5 Z"/></g>
<g><path style="opacity:1" fill="#fefefe" d="M 821.5,178.5 C 821.179,166.919 821.512,155.419 822.5,144C 887.299,132.01 952.299,120.177 1017.5,108.5C 1017.5,120.167 1017.5,131.833 1017.5,143.5C 952.058,154.74 886.725,166.407 821.5,178.5 Z"/></g>
<g><path style="opacity:1" fill="#fefefe" d="M 821.5,385.5 C 821.5,374.167 821.5,362.833 821.5,351.5C 824.132,350.673 826.798,349.84 829.5,349C 846.602,346.98 863.602,344.313 880.5,341C 926.046,332.532 971.546,324.032 1017,315.5C 1017.5,327.495 1017.67,339.495 1017.5,351.5C 1008.43,352.012 999.426,353.179 990.5,355C 934.212,365.491 877.879,375.658 821.5,385.5 Z"/></g>
<g><path style="opacity:1" fill="#eaf6fb" d="M 418.5,319.5 C 458.167,319.5 497.833,319.5 537.5,319.5C 536.833,321.5 536.167,323.5 535.5,325.5C 496.5,325.5 457.5,325.5 418.5,325.5C 418.5,323.5 418.5,321.5 418.5,319.5 Z"/></g>
<g><path style="opacity:1" fill="#eaf6fb" d="M 679.5,319.5 C 720.833,319.5 762.167,319.5 803.5,319.5C 803.5,321.5 803.5,323.5 803.5,325.5C 762.833,325.5 722.167,325.5 681.5,325.5C 680.833,323.5 680.167,321.5 679.5,319.5 Z"/></g>
<g><path style="opacity:1" fill="#fefefe" d="M 418.5,325.5 C 457.5,325.5 496.5,325.5 535.5,325.5C 532.491,340.647 533.158,355.647 537.5,370.5C 497.833,370.5 458.167,370.5 418.5,370.5C 418.5,355.5 418.5,340.5 418.5,325.5 Z"/></g>
<g><path style="opacity:1" fill="#fefefe" d="M 681.5,325.5 C 722.167,325.5 762.833,325.5 803.5,325.5C 803.5,340.5 803.5,355.5 803.5,370.5C 762.167,370.5 720.833,370.5 679.5,370.5C 682.734,361.456 684.067,352.123 683.5,342.5C 683.688,336.714 683.022,331.047 681.5,325.5 Z"/></g>
<g><path style="opacity:1" fill="#ebf6fc" d="M 27.5,329.5 C 39.5952,334.424 51.5952,339.591 63.5,345C 87.4298,356.799 111.43,368.299 135.5,379.5C 132.921,379.394 130.588,380.061 128.5,381.5C 125.353,381.263 122.353,380.43 119.5,379C 88.892,364.527 58.2254,350.36 27.5,336.5C 27.5,334.167 27.5,331.833 27.5,329.5 Z"/></g>
<g><path style="opacity:1" fill="#fefefe" d="M 821.5,427.5 C 821.5,415.833 821.5,404.167 821.5,392.5C 873.534,383.65 925.534,374.483 977.5,365C 990.741,362.656 1003.91,359.822 1017,356.5C 1017.5,368.495 1017.67,380.495 1017.5,392.5C 951.943,403.434 886.609,415.1 821.5,427.5 Z"/></g>
<g><path style="opacity:1" fill="#646a79" d="M 583.5,364.5 C 591.167,364.5 598.833,364.5 606.5,364.5C 607.167,364.5 607.833,364.5 608.5,364.5C 608.5,368.833 608.5,373.167 608.5,377.5C 607.5,377.5 606.5,377.5 605.5,377.5C 597.5,377.5 589.5,377.5 581.5,377.5C 579.871,376.375 578.371,375.041 577,373.5C 575.757,367.974 577.924,364.974 583.5,364.5 Z"/></g>
<g><path style="opacity:1" fill="#424a53" d="M 608.5,364.5 C 609.167,364.5 609.833,364.5 610.5,364.5C 618.167,364.5 625.833,364.5 633.5,364.5C 635.308,364.491 636.975,364.991 638.5,366C 641.703,370.956 640.703,374.789 635.5,377.5C 627.5,377.5 619.5,377.5 611.5,377.5C 610.5,377.5 609.5,377.5 608.5,377.5C 608.5,373.167 608.5,368.833 608.5,364.5 Z"/></g>
<g><path style="opacity:1" fill="#ecf6fc" d="M 418.5,370.5 C 458.167,370.5 497.833,370.5 537.5,370.5C 538.736,372.649 539.736,374.982 540.5,377.5C 499.833,377.5 459.167,377.5 418.5,377.5C 418.5,375.167 418.5,372.833 418.5,370.5 Z"/></g>
<g><path style="opacity:1" fill="#ecf6fc" d="M 679.5,370.5 C 720.833,370.5 762.167,370.5 803.5,370.5C 803.5,372.833 803.5,375.167 803.5,377.5C 761.167,377.5 718.833,377.5 676.5,377.5C 677.264,374.982 678.264,372.649 679.5,370.5 Z"/></g>
<g><path style="opacity:1" fill="#fefefe" d="M 418.5,377.5 C 459.167,377.5 499.833,377.5 540.5,377.5C 548.091,392.258 559.257,403.591 574,411.5C 574.232,410.263 574.732,409.263 575.5,408.5C 575.238,409.978 575.571,411.311 576.5,412.5C 585.724,416.744 595.391,419.077 605.5,419.5C 607.5,419.5 609.5,419.5 611.5,419.5C 622.45,419.067 632.783,416.401 642.5,411.5C 657.528,403.806 668.861,392.472 676.5,377.5C 718.833,377.5 761.167,377.5 803.5,377.5C 803.5,392.5 803.5,407.5 803.5,422.5C 675.167,422.5 546.833,422.5 418.5,422.5C 418.5,407.5 418.5,392.5 418.5,377.5 Z"/></g>
<g><path style="opacity:1" fill="#f4d7ca" d="M 581.5,377.5 C 589.5,377.5 597.5,377.5 605.5,377.5C 605.5,379.167 605.5,380.833 605.5,382.5C 597.167,382.5 588.833,382.5 580.5,382.5C 580.629,380.784 580.962,379.117 581.5,377.5 Z"/></g>
<g><path style="opacity:1" fill="#49adac" d="M 605.5,377.5 C 606.5,377.5 607.5,377.5 608.5,377.5C 609.5,377.5 610.5,377.5 611.5,377.5C 611.5,379.167 611.5,380.833 611.5,382.5C 610.5,382.5 609.5,382.5 608.5,382.5C 607.5,382.5 606.5,382.5 605.5,382.5C 605.5,380.833 605.5,379.167 605.5,377.5 Z"/></g>
<g><path style="opacity:1" fill="#efc3b6" d="M 611.5,377.5 C 619.5,377.5 627.5,377.5 635.5,377.5C 635.366,379.292 635.699,380.958 636.5,382.5C 628.167,382.5 619.833,382.5 611.5,382.5C 611.5,380.833 611.5,379.167 611.5,377.5 Z"/></g>
<g><path style="opacity:1" fill="#29e8f7" d="M 1176.5,379.5 C 1177.91,381.998 1179.08,384.664 1180,387.5C 1180.67,526.5 1180.67,665.5 1180,804.5C 1178.19,811.61 1174.69,817.777 1169.5,823C 1168.26,823.791 1166.92,824.291 1165.5,824.5C 1165.5,815.5 1165.5,806.5 1165.5,797.5C 1165.5,795.167 1165.5,792.833 1165.5,790.5C 1165.5,781.167 1165.5,771.833 1165.5,762.5C 1165.5,760.5 1165.5,758.5 1165.5,756.5C 1165.5,746.833 1165.5,737.167 1165.5,727.5C 1165.5,725.5 1165.5,723.5 1165.5,721.5C 1165.5,711.833 1165.5,702.167 1165.5,692.5C 1165.5,690.167 1165.5,687.833 1165.5,685.5C 1165.5,676.5 1165.5,667.5 1165.5,658.5C 1165.5,655.833 1165.5,653.167 1165.5,650.5C 1165.5,641.5 1165.5,632.5 1165.5,623.5C 1165.5,621.167 1165.5,618.833 1165.5,616.5C 1165.5,584.167 1165.5,551.833 1165.5,519.5C 1165.5,517.167 1165.5,514.833 1165.5,512.5C 1165.5,503.167 1165.5,493.833 1165.5,484.5C 1165.5,482.5 1165.5,480.5 1165.5,478.5C 1165.5,468.833 1165.5,459.167 1165.5,449.5C 1165.5,447.5 1165.5,445.5 1165.5,443.5C 1166.16,422.473 1165.49,401.806 1163.5,381.5C 1163.88,380.069 1164.88,379.236 1166.5,379C 1169.89,378.341 1173.22,378.508 1176.5,379.5 Z"/></g>
<g><path style="opacity:1" fill="#404852" d="M 608.5,382.5 C 609.5,382.5 610.5,382.5 611.5,382.5C 619.833,382.5 628.167,382.5 636.5,382.5C 639.97,381.875 642.804,382.875 645,385.5C 646.684,390.816 644.85,393.816 639.5,394.5C 629.167,394.5 618.833,394.5 608.5,394.5C 608.5,390.5 608.5,386.5 608.5,382.5 Z"/></g>
<g><path style="opacity:1" fill="#666b79" d="M 580.5,382.5 C 588.833,382.5 597.167,382.5 605.5,382.5C 606.5,382.5 607.5,382.5 608.5,382.5C 608.5,386.5 608.5,390.5 608.5,394.5C 618.833,394.5 629.167,394.5 639.5,394.5C 639.5,394.833 639.5,395.167 639.5,395.5C 630.167,395.5 620.833,395.5 611.5,395.5C 609.5,395.5 607.5,395.5 605.5,395.5C 596.167,395.5 586.833,395.5 577.5,395.5C 575.333,394.802 573.5,393.469 572,391.5C 570.84,384.825 573.673,381.825 580.5,382.5 Z"/></g>
<g><path style="opacity:0.978" fill="#15add1" d="M 1176.5,379.5 C 1185.17,383.182 1190.83,389.515 1193.5,398.5C 1193.5,539.167 1193.5,679.833 1193.5,820.5C 1190.8,827.555 1186.47,833.555 1180.5,838.5C 1119.97,866.67 1058.97,894.837 997.5,923C 991.821,926.329 986.154,926.329 980.5,923C 976.686,920.515 973.186,917.682 970,914.5C 967.467,911.147 965.633,907.481 964.5,903.5C 965.167,903.5 965.833,903.5 966.5,903.5C 968.007,909.822 972.007,912.322 978.5,911C 1040.83,882.169 1103.16,853.336 1165.5,824.5C 1166.92,824.291 1168.26,823.791 1169.5,823C 1174.69,817.777 1178.19,811.61 1180,804.5C 1180.67,665.5 1180.67,526.5 1180,387.5C 1179.08,384.664 1177.91,381.998 1176.5,379.5 Z"/></g>
<g><path style="opacity:1" fill="#7895a5" d="M 1150.5,386.5 C 1147.8,398.339 1145.64,410.339 1144,422.5C 1141.97,430.093 1137.47,435.593 1130.5,439C 1127.18,439.932 1124.18,439.432 1121.5,437.5C 1120.24,435.313 1119.24,432.98 1118.5,430.5C 1118.13,421.276 1119.29,412.276 1122,403.5C 1123.07,401.717 1124.57,401.217 1126.5,402C 1127.06,402.725 1127.39,403.558 1127.5,404.5C 1124.83,413.665 1123.67,422.998 1124,432.5C 1126.28,434.984 1128.78,435.151 1131.5,433C 1134.14,431.039 1135.97,428.539 1137,425.5C 1140.02,414.031 1142.02,402.364 1143,390.5C 1138.5,393.502 1133.66,395.835 1128.5,397.5C 1129.13,389.626 1130.13,381.793 1131.5,374C 1133.3,368.047 1136.97,363.714 1142.5,361C 1147.5,360.647 1151,362.814 1153,367.5C 1153.55,374.094 1152.72,380.428 1150.5,386.5 Z M 1143.5,368.5 C 1144.76,369.514 1145.43,371.014 1145.5,373C 1145.09,376.845 1144.59,380.679 1144,384.5C 1142.6,382.808 1140.77,382.141 1138.5,382.5C 1137.83,376.827 1139.5,372.16 1143.5,368.5 Z"/></g>
<g><path style="opacity:0.959" fill="#fdfdfd" d="M 1118.5,430.5 C 1117.88,430.389 1117.38,430.056 1117,429.5C 1098.19,438.268 1079.36,446.934 1060.5,455.5C 1060.4,446.32 1060.4,437.32 1060.5,428.5C 1061.5,428.167 1062.17,427.5 1062.5,426.5C 1079.23,419.599 1096.07,411.933 1113,403.5C 1118.26,401.583 1123.43,399.583 1128.5,397.5C 1133.66,395.835 1138.5,393.502 1143,390.5C 1142.02,402.364 1140.02,414.031 1137,425.5C 1135.97,428.539 1134.14,431.039 1131.5,433C 1128.78,435.151 1126.28,434.984 1124,432.5C 1123.67,422.998 1124.83,413.665 1127.5,404.5C 1127.39,403.558 1127.06,402.725 1126.5,402C 1124.57,401.217 1123.07,401.717 1122,403.5C 1119.29,412.276 1118.13,421.276 1118.5,430.5 Z"/></g>
<g><path style="opacity:1" fill="#fedecf" d="M 577.5,395.5 C 586.833,395.5 596.167,395.5 605.5,395.5C 605.5,403.5 605.5,411.5 605.5,419.5C 595.391,419.077 585.724,416.744 576.5,412.5C 575.571,411.311 575.238,409.978 575.5,408.5C 576.327,404.193 576.993,399.86 577.5,395.5 Z"/></g>
<g><path style="opacity:1" fill="#1bafaf" d="M 605.5,395.5 C 607.5,395.5 609.5,395.5 611.5,395.5C 611.5,403.5 611.5,411.5 611.5,419.5C 609.5,419.5 607.5,419.5 605.5,419.5C 605.5,411.5 605.5,403.5 605.5,395.5 Z"/></g>
<g><path style="opacity:1" fill="#fdcdbe" d="M 611.5,395.5 C 620.833,395.5 630.167,395.5 639.5,395.5C 640.501,400.84 641.501,406.173 642.5,411.5C 632.783,416.401 622.45,419.067 611.5,419.5C 611.5,411.5 611.5,403.5 611.5,395.5 Z"/></g>
<g><path style="opacity:1" fill="#fefefe" d="M 821.5,433.5 C 886.708,422.136 951.874,410.469 1017,398.5C 1017.5,410.162 1017.67,421.829 1017.5,433.5C 952.355,445.065 887.355,456.732 822.5,468.5C 821.501,456.852 821.168,445.186 821.5,433.5 Z"/></g>
<g><path style="opacity:1" fill="#fdfdfd" d="M 1163.5,381.5 C 1165.49,401.806 1166.16,422.473 1165.5,443.5C 1156.58,446.952 1147.58,450.452 1138.5,454C 1113.6,466.615 1088.27,478.448 1062.5,489.5C 1061.5,480.525 1061.17,471.525 1061.5,462.5C 1080.88,453.983 1100.05,444.983 1119,435.5C 1119.71,436.381 1120.54,437.047 1121.5,437.5C 1124.18,439.432 1127.18,439.932 1130.5,439C 1137.47,435.593 1141.97,430.093 1144,422.5C 1145.64,410.339 1147.8,398.339 1150.5,386.5C 1154.55,384.257 1158.89,382.59 1163.5,381.5 Z"/></g>
<g><path style="opacity:1" fill="#b7f7fb" d="M 417.5,123.5 C 428.167,123.5 438.833,123.5 449.5,123.5C 450.167,123.5 450.5,123.833 450.5,124.5C 439.833,124.5 429.167,124.5 418.5,124.5C 418.5,155.5 418.5,186.5 418.5,217.5C 418.5,219.5 418.5,221.5 418.5,223.5C 418.5,238.5 418.5,253.5 418.5,268.5C 418.5,270.5 418.5,272.5 418.5,274.5C 418.5,289.5 418.5,304.5 418.5,319.5C 418.5,321.5 418.5,323.5 418.5,325.5C 418.5,340.5 418.5,355.5 418.5,370.5C 418.5,372.833 418.5,375.167 418.5,377.5C 418.5,392.5 418.5,407.5 418.5,422.5C 418.5,424.5 418.5,426.5 418.5,428.5C 418.5,443.5 418.5,458.5 418.5,473.5C 418.5,475.5 418.5,477.5 418.5,479.5C 418.5,494.5 418.5,509.5 418.5,524.5C 418.5,526.833 418.5,529.167 418.5,531.5C 418.5,546.5 418.5,561.5 418.5,576.5C 418.5,578.5 418.5,580.5 418.5,582.5C 418.5,597.5 418.5,612.5 418.5,627.5C 418.5,629.5 418.5,631.5 418.5,633.5C 418.5,648.5 418.5,663.5 418.5,678.5C 418.5,680.5 418.5,682.5 418.5,684.5C 418.5,699.5 418.5,714.5 418.5,729.5C 418.5,731.833 418.5,734.167 418.5,736.5C 418.5,750.833 418.5,765.167 418.5,779.5C 418.167,779.5 417.833,779.5 417.5,779.5C 417.5,560.833 417.5,342.167 417.5,123.5 Z"/></g>
<g><path style="opacity:1" fill="#fefefe" d="M 418.5,428.5 C 546.5,428.5 674.5,428.5 802.5,428.5C 802.5,443.5 802.5,458.5 802.5,473.5C 674.5,473.5 546.5,473.5 418.5,473.5C 418.5,458.5 418.5,443.5 418.5,428.5 Z"/></g>
<g><path style="opacity:1" fill="#fcecec" d="M 1118.5,430.5 C 1119.24,432.98 1120.24,435.313 1121.5,437.5C 1120.54,437.047 1119.71,436.381 1119,435.5C 1100.05,444.983 1080.88,453.983 1061.5,462.5C 1060.53,460.393 1060.2,458.059 1060.5,455.5C 1079.36,446.934 1098.19,438.268 1117,429.5C 1117.38,430.056 1117.88,430.389 1118.5,430.5 Z"/></g>
<g><path style="opacity:1" fill="#ebf6fc" d="M 27.5,434.5 C 35.7718,437.628 44.1051,440.795 52.5,444C 97.7215,465.445 143.055,486.611 188.5,507.5C 186.525,509.137 184.525,510.804 182.5,512.5C 130.987,488.244 79.3199,464.244 27.5,440.5C 27.5,438.5 27.5,436.5 27.5,434.5 Z"/></g>
<g><path style="opacity:1" fill="#fefefe" d="M 821.5,475.5 C 886.969,464.002 952.136,452.002 1017,439.5C 1017.5,451.495 1017.67,463.495 1017.5,475.5C 952.103,486.517 886.77,497.85 821.5,509.5C 821.5,498.167 821.5,486.833 821.5,475.5 Z"/></g>
<g><path style="opacity:1" fill="#fefefe" d="M 27.5,440.5 C 79.3199,464.244 130.987,488.244 182.5,512.5C 180.419,516.12 180.085,519.786 181.5,523.5C 181.662,525.527 181.495,527.527 181,529.5C 180.5,529 180,528.5 179.5,528C 170.312,526.876 161.312,525.043 152.5,522.5C 148.273,521.799 143.94,520.966 139.5,520C 104.581,504.049 69.9139,487.716 35.5,471C 32.8832,470.178 30.2165,469.678 27.5,469.5C 27.5,459.833 27.5,450.167 27.5,440.5 Z"/></g>
<g><path style="opacity:1" fill="#fefefe" d="M 1165.5,449.5 C 1165.5,459.167 1165.5,468.833 1165.5,478.5C 1161.95,478.439 1158.62,479.273 1155.5,481C 1124.46,495.684 1093.29,510.184 1062,524.5C 1061.17,515.149 1061.33,505.816 1062.5,496.5C 1096.73,480.552 1131.06,464.886 1165.5,449.5 Z"/></g>
<g><path style="opacity:1" fill="#ebf6fc" d="M 27.5,469.5 C 30.2165,469.678 32.8832,470.178 35.5,471C 69.9139,487.716 104.581,504.049 139.5,520C 143.94,520.966 148.273,521.799 152.5,522.5C 146.444,521.516 141.111,522.849 136.5,526.5C 136.423,525.25 135.756,524.417 134.5,524C 98.8398,507.516 63.1731,491.349 27.5,475.5C 27.5,473.5 27.5,471.5 27.5,469.5 Z"/></g>
<g><path style="opacity:1" fill="#fefefe" d="M 27.5,475.5 C 63.1731,491.349 98.8398,507.516 134.5,524C 135.756,524.417 136.423,525.25 136.5,526.5C 129.346,531.146 124.346,537.479 121.5,545.5C 91.5646,532.067 61.7313,518.4 32,504.5C 30.437,503.278 28.937,503.278 27.5,504.5C 27.5,494.833 27.5,485.167 27.5,475.5 Z"/></g>
<g><path style="opacity:1" fill="#fefeff" d="M 418.5,479.5 C 546.5,479.5 674.5,479.5 802.5,479.5C 802.5,494.5 802.5,509.5 802.5,524.5C 674.5,524.5 546.5,524.5 418.5,524.5C 418.5,509.5 418.5,494.5 418.5,479.5 Z"/></g>
<g><path style="opacity:1" fill="#fefefe" d="M 821.5,551.5 C 821.5,539.833 821.5,528.167 821.5,516.5C 887.101,505.309 952.435,493.643 1017.5,481.5C 1017.5,493.167 1017.5,504.833 1017.5,516.5C 952.065,527.654 886.731,539.321 821.5,551.5 Z"/></g>
<g><path style="opacity:1" fill="#fefefe" d="M 1165.5,484.5 C 1165.5,493.833 1165.5,503.167 1165.5,512.5C 1152.43,517.72 1139.43,523.22 1126.5,529C 1105.4,539.645 1084.07,549.811 1062.5,559.5C 1061.17,550.167 1061.17,540.833 1062.5,531.5C 1096.75,515.538 1131.09,499.871 1165.5,484.5 Z"/></g>
<g><path style="opacity:1" fill="#7a96a6" d="M 188.5,507.5 C 195.401,507.224 200.901,509.891 205,515.5C 206.99,525.294 209.157,534.96 211.5,544.5C 209.234,544.859 207.401,544.192 206,542.5C 203.891,534.173 201.891,525.839 200,517.5C 197.452,513.64 193.952,512.14 189.5,513C 188.107,514.171 187.273,515.671 187,517.5C 187.004,523.868 187.67,530.201 189,536.5C 192.535,550.045 195.535,563.712 198,577.5C 200.181,584.185 204.681,588.185 211.5,589.5C 221.09,587.172 224.256,581.172 221,571.5C 219.183,564.211 217.683,556.878 216.5,549.5C 218.167,549.5 219.833,549.5 221.5,549.5C 224.342,559.555 226.009,569.888 226.5,580.5C 226.167,582.5 225.833,584.5 225.5,586.5C 216.813,596.614 207.647,596.947 198,587.5C 197.047,585.545 195.713,583.878 194,582.5C 190.414,568.201 187.247,553.867 184.5,539.5C 183.859,533.975 182.859,528.642 181.5,523.5C 180.085,519.786 180.419,516.12 182.5,512.5C 184.525,510.804 186.525,509.137 188.5,507.5 Z"/></g>
<g><path style="opacity:1" fill="#fefefe" d="M 27.5,510.5 C 57.878,523.964 88.2114,537.631 118.5,551.5C 119.833,560.833 119.833,570.167 118.5,579.5C 88.5319,564.682 58.1985,550.682 27.5,537.5C 27.5,528.5 27.5,519.5 27.5,510.5 Z"/></g>
<g><path style="opacity:1" fill="#fefefe" d="M 1015.5,557.5 C 952.552,569.029 889.552,580.363 826.5,591.5C 824.833,591.5 823.167,591.5 821.5,591.5C 821.5,580.5 821.5,569.5 821.5,558.5C 885.821,546.78 950.154,535.28 1014.5,524C 1015.42,523.626 1016.25,523.126 1017,522.5C 1017.17,528.167 1017.33,533.833 1017.5,539.5C 1017.46,545.741 1016.79,551.741 1015.5,557.5 Z"/></g>
<g><path style="opacity:1" fill="#fefefe" d="M 418.5,531.5 C 546.5,531.5 674.5,531.5 802.5,531.5C 802.5,546.5 802.5,561.5 802.5,576.5C 674.5,576.5 546.5,576.5 418.5,576.5C 418.5,561.5 418.5,546.5 418.5,531.5 Z"/></g>
<g><path style="opacity:0.999" fill="#e0f4fb" d="M 1060.5,428.5 C 1060.4,437.32 1060.4,446.32 1060.5,455.5C 1060.2,458.059 1060.53,460.393 1061.5,462.5C 1061.17,471.525 1061.5,480.525 1062.5,489.5C 1088.27,478.448 1113.6,466.615 1138.5,454C 1147.58,450.452 1156.58,446.952 1165.5,443.5C 1165.5,445.5 1165.5,447.5 1165.5,449.5C 1131.06,464.886 1096.73,480.552 1062.5,496.5C 1061.33,505.816 1061.17,515.149 1062,524.5C 1093.29,510.184 1124.46,495.684 1155.5,481C 1158.62,479.273 1161.95,478.439 1165.5,478.5C 1165.5,480.5 1165.5,482.5 1165.5,484.5C 1131.09,499.871 1096.75,515.538 1062.5,531.5C 1061.17,540.833 1061.17,550.167 1062.5,559.5C 1084.07,549.811 1105.4,539.645 1126.5,529C 1139.43,523.22 1152.43,517.72 1165.5,512.5C 1165.5,514.833 1165.5,517.167 1165.5,519.5C 1141.2,530.433 1116.86,541.266 1092.5,552C 1080.6,557.565 1068.93,563.398 1057.5,569.5C 1052.43,572.695 1047.76,576.362 1043.5,580.5C 1042.17,581.832 1040.5,582.665 1038.5,583C 1026.72,585.2 1015.05,587.533 1003.5,590C 1000.24,590.784 997.073,590.617 994,589.5C 984.204,592.036 974.37,594.369 964.5,596.5C 964.5,591.5 964.5,586.5 964.5,581.5C 987.723,576.586 1011.06,572.086 1034.5,568C 1041.04,564.43 1045.87,559.263 1049,552.5C 1050.48,512.881 1050.98,473.215 1050.5,433.5C 1053.62,431.456 1056.96,429.789 1060.5,428.5 Z"/></g>
<g><path style="opacity:1" fill="#2ce8f7" d="M 161.5,1065.5 C 155.518,1064.76 150.685,1062.1 147,1057.5C 144.149,1053.56 142.149,1049.22 141,1044.5C 140.333,879.167 140.333,713.833 141,548.5C 142.518,544.151 145.018,540.484 148.5,537.5C 152.657,535.938 156.99,535.271 161.5,535.5C 161.5,712.167 161.5,888.833 161.5,1065.5 Z"/></g>
<g><path style="opacity:1" fill="#ebf6fc" d="M 121.5,545.5 C 120.771,559.151 120.104,572.818 119.5,586.5C 101.238,578.373 82.9049,570.206 64.5,562C 52.6438,555.28 40.3104,549.78 27.5,545.5C 27.5,542.833 27.5,540.167 27.5,537.5C 58.1985,550.682 88.5319,564.682 118.5,579.5C 119.833,570.167 119.833,560.833 118.5,551.5C 88.2114,537.631 57.878,523.964 27.5,510.5C 27.5,508.5 27.5,506.5 27.5,504.5C 28.937,503.278 30.437,503.278 32,504.5C 61.7313,518.4 91.5646,532.067 121.5,545.5 Z"/></g>
<g><path style="opacity:0.999" fill="#fcfdfd" d="M 27.5,301.5 C 93.1473,332.111 158.981,362.444 225,392.5C 226.077,391.571 227.244,390.904 228.5,390.5C 228.5,440.5 228.5,490.5 228.5,540.5C 228.5,542.833 228.5,545.167 228.5,547.5C 267.119,554.151 305.786,560.818 344.5,567.5C 353.08,569.347 361.747,571.014 370.5,572.5C 371.457,583.783 371.79,595.116 371.5,606.5C 323.209,597.542 274.875,588.876 226.5,580.5C 226.009,569.888 224.342,559.555 221.5,549.5C 219.833,549.5 218.167,549.5 216.5,549.5C 217.683,556.878 219.183,564.211 221,571.5C 224.256,581.172 221.09,587.172 211.5,589.5C 204.681,588.185 200.181,584.185 198,577.5C 195.535,563.712 192.535,550.045 189,536.5C 187.67,530.201 187.004,523.868 187,517.5C 187.273,515.671 188.107,514.171 189.5,513C 193.952,512.14 197.452,513.64 200,517.5C 201.891,525.839 203.891,534.173 206,542.5C 207.401,544.192 209.234,544.859 211.5,544.5C 209.157,534.96 206.99,525.294 205,515.5C 200.901,509.891 195.401,507.224 188.5,507.5C 143.055,486.611 97.7215,465.445 52.5,444C 44.1051,440.795 35.7718,437.628 27.5,434.5C 27.5,401.833 27.5,369.167 27.5,336.5C 58.2254,350.36 88.892,364.527 119.5,379C 122.353,380.43 125.353,381.263 128.5,381.5C 126.527,389.011 126.027,396.677 127,404.5C 128.086,408.346 129.919,411.68 132.5,414.5C 133.031,416.624 134.365,418.124 136.5,419C 145.747,419.462 153.247,415.962 159,408.5C 162.769,403.312 165.103,397.645 166,391.5C 164.629,389.959 163.129,388.625 161.5,387.5C 158.333,384.502 155,381.669 151.5,379C 146.139,378.391 140.805,378.558 135.5,379.5C 111.43,368.299 87.4298,356.799 63.5,345C 51.5952,339.591 39.5952,334.424 27.5,329.5C 27.5,320.167 27.5,310.833 27.5,301.5 Z"/></g>
<g><path style="opacity:1" fill="#7c9aaa" d="M 194.5,531.5 C 196.722,531.178 198.556,531.845 200,533.5C 200.696,536.478 201.196,539.478 201.5,542.5C 199.533,542.739 197.699,542.406 196,541.5C 194.957,538.243 194.457,534.91 194.5,531.5 Z"/></g>
<g><path style="opacity:1" fill="#f9b099" d="M 104.5,428.5 C 106.987,432.831 110.654,435.498 115.5,436.5C 117.3,439.533 118.967,442.533 120.5,445.5C 121.452,447.045 121.785,448.712 121.5,450.5C 122.5,450.5 123.5,450.5 124.5,450.5C 125.854,450.09 125.521,452.09 123.5,456.5C 124.5,456.5 125.5,456.5 126.5,456.5C 126.343,455.127 126.51,453.793 127,452.5C 128.163,454.285 128.83,456.285 129,458.5C 130.397,460.07 131.897,461.404 133.5,462.5C 132.85,462.804 132.183,463.137 131.5,463.5C 129.684,462.185 128.017,460.685 126.5,459C 123.486,458.872 120.486,458.872 117.5,459C 116.167,457.333 116.167,455.667 117.5,454C 114.801,454.438 112.135,454.272 109.5,453.5C 108.05,450.638 106.384,447.971 104.5,445.5C 104.769,441.9 105.769,438.567 107.5,435.5C 105.81,433.481 104.144,431.481 102.5,429.5C 103.167,429.167 103.833,428.833 104.5,428.5 Z"/></g>
<g><path style="opacity:1" fill="#fab49e" d="M 139.5,422.5 C 143.151,422.162 144.817,423.828 144.5,427.5C 148.167,426.833 151.833,426.167 155.5,425.5C 157.319,433.111 158.985,440.778 160.5,448.5C 158.05,448.298 155.717,448.631 153.5,449.5C 152.761,449.631 152.094,449.464 151.5,449C 146.533,443.031 141.199,437.365 135.5,432C 133.231,431.242 131.064,431.409 129,432.5C 124.873,431.581 123.04,429.248 123.5,425.5C 125.523,427.173 127.856,427.84 130.5,427.5C 130.33,426.178 130.663,425.011 131.5,424C 134.365,423.817 137.031,423.317 139.5,422.5 Z"/></g>
<g><path style="opacity:1" fill="#3c7fe7" d="M 160.5,448.5 C 158.985,440.778 157.319,433.111 155.5,425.5C 155.137,423.089 156.137,421.589 158.5,421C 161.188,420.608 163.855,420.108 166.5,419.5C 167.167,419.833 167.833,420.167 168.5,420.5C 170.825,429.796 172.825,439.13 174.5,448.5C 171.179,449.163 167.846,449.83 164.5,450.5C 162.886,450.197 161.552,449.53 160.5,448.5 Z"/></g>
<g><path style="opacity:1" fill="#fec9b3" d="M 119.5,414.5 C 122.002,416.17 124.002,418.336 125.5,421C 127.677,421.345 129.677,420.845 131.5,419.5C 133.792,421.449 136.459,422.449 139.5,422.5C 137.031,423.317 134.365,423.817 131.5,424C 130.663,425.011 130.33,426.178 130.5,427.5C 127.856,427.84 125.523,427.173 123.5,425.5C 123.04,429.248 124.873,431.581 129,432.5C 131.064,431.409 133.231,431.242 135.5,432C 141.199,437.365 146.533,443.031 151.5,449C 152.094,449.464 152.761,449.631 153.5,449.5C 154.401,453.241 153.068,455.241 149.5,455.5C 150.322,461.209 148.489,462.543 144,459.5C 143.945,461.885 142.778,463.219 140.5,463.5C 138.272,462.781 136.439,461.448 135,459.5C 134.768,460.737 134.268,461.737 133.5,462.5C 131.897,461.404 130.397,460.07 129,458.5C 128.83,456.285 128.163,454.285 127,452.5C 126.51,453.793 126.343,455.127 126.5,456.5C 125.5,456.5 124.5,456.5 123.5,456.5C 125.521,452.09 125.854,450.09 124.5,450.5C 123.5,450.5 122.5,450.5 121.5,450.5C 121.785,448.712 121.452,447.045 120.5,445.5C 118.967,442.533 117.3,439.533 115.5,436.5C 110.654,435.498 106.987,432.831 104.5,428.5C 108.887,423.146 113.887,418.48 119.5,414.5 Z"/></g>
<g><path style="opacity:1" fill="#3b7fe7" d="M 119.5,414.5 C 113.887,418.48 108.887,423.146 104.5,428.5C 103.833,428.833 103.167,429.167 102.5,429.5C 101.262,430.412 99.9285,430.579 98.5,430C 95.8333,427.333 93.1667,424.667 90.5,422C 97.4692,416.032 104.136,409.699 110.5,403C 111.5,402.333 112.5,402.333 113.5,403C 115.667,405.167 117.833,407.333 120,409.5C 120.64,411.265 120.473,412.932 119.5,414.5 Z"/></g>
<g><path style="opacity:1" fill="#fc8b23" d="M 161.5,387.5 C 163.129,388.625 164.629,389.959 166,391.5C 165.103,397.645 162.769,403.312 159,408.5C 153.247,415.962 145.747,419.462 136.5,419C 134.365,418.124 133.031,416.624 132.5,414.5C 134.265,413.539 136.265,413.205 138.5,413.5C 150.657,412.344 157.657,405.678 159.5,393.5C 159.259,391.102 159.926,389.102 161.5,387.5 Z"/></g>
<g><path style="opacity:1" fill="#f3f1ee" d="M 159.5,393.5 C 157.657,405.678 150.657,412.344 138.5,413.5C 131.356,405.409 129.689,396.242 133.5,386C 138.787,384.738 144.12,384.404 149.5,385C 153,387.669 156.333,390.502 159.5,393.5 Z"/></g>
<g><path style="opacity:1" fill="#515052" d="M 150.5,394.5 C 152.686,394.511 153.519,395.511 153,397.5C 149.603,400.568 145.936,403.235 142,405.5C 138.365,403.235 136.531,399.901 136.5,395.5C 139.101,396.28 141.101,397.946 142.5,400.5C 145.492,398.829 148.159,396.829 150.5,394.5 Z"/></g>
<g><path style="opacity:1" fill="#ffb62c" d="M 161.5,387.5 C 159.926,389.102 159.259,391.102 159.5,393.5C 156.333,390.502 153,387.669 149.5,385C 144.12,384.404 138.787,384.738 133.5,386C 129.689,396.242 131.356,405.409 138.5,413.5C 136.265,413.205 134.265,413.539 132.5,414.5C 129.919,411.68 128.086,408.346 127,404.5C 126.027,396.677 126.527,389.011 128.5,381.5C 130.588,380.061 132.921,379.394 135.5,379.5C 140.805,378.558 146.139,378.391 151.5,379C 155,381.669 158.333,384.502 161.5,387.5 Z"/></g>
<g><path style="opacity:0.148" fill="#2bc1f0" d="M 344.5,567.5 C 305.786,560.818 267.119,554.151 228.5,547.5C 228.5,545.167 228.5,542.833 228.5,540.5C 229.416,540.018 230.416,539.685 231.5,539.5C 266.013,548.237 300.68,556.403 335.5,564C 338.584,565.107 341.584,566.273 344.5,567.5 Z"/></g>
<g><path style="opacity:1" fill="#fefefe" d="M 27.5,545.5 C 40.3104,549.78 52.6438,555.28 64.5,562C 82.9049,570.206 101.238,578.373 119.5,586.5C 119.832,595.857 119.498,605.19 118.5,614.5C 88.3263,600.111 57.9929,586.111 27.5,572.5C 27.5,563.5 27.5,554.5 27.5,545.5 Z"/></g>
<g><path style="opacity:0.991" fill="#18b0d7" d="M 148.5,537.5 C 145.018,540.484 142.518,544.151 141,548.5C 140.333,713.833 140.333,879.167 141,1044.5C 142.149,1049.22 144.149,1053.56 147,1057.5C 150.685,1062.1 155.518,1064.76 161.5,1065.5C 161.833,1065.5 162.167,1065.5 162.5,1065.5C 248.122,1080.91 333.788,1096.41 419.5,1112C 426.167,1112.84 432.167,1111.34 437.5,1107.5C 437.833,1107.5 438.167,1107.5 438.5,1107.5C 433.589,1115.42 426.923,1121.09 418.5,1124.5C 413.5,1124.5 408.5,1124.5 403.5,1124.5C 316.888,1108.51 230.221,1092.85 143.5,1077.5C 140.908,1074.39 137.742,1071.05 134,1067.5C 132.525,1063.4 130.858,1059.4 129,1055.5C 128.833,939.832 128.333,824.165 127.5,708.5C 125.338,706.98 123.005,705.98 120.5,705.5C 120.5,705.167 120.5,704.833 120.5,704.5C 120.119,703.069 119.119,702.236 117.5,702C 118.448,701.517 119.448,701.351 120.5,701.5C 120.5,696.167 120.5,690.833 120.5,685.5C 123.138,686.492 125.805,687.492 128.5,688.5C 129.333,646.504 129.833,604.504 130,562.5C 132.292,551.231 138.458,542.898 148.5,537.5 Z"/></g>
<g><path style="opacity:1" fill="#fefefe" d="M 184.5,539.5 C 187.247,553.867 190.414,568.201 194,582.5C 195.713,583.878 197.047,585.545 198,587.5C 207.647,596.947 216.813,596.614 225.5,586.5C 273.976,596.187 322.643,604.854 371.5,612.5C 371.977,624.328 371.477,635.995 370,647.5C 300.685,635.31 231.519,622.977 162.5,610.5C 162.5,585.833 162.5,561.167 162.5,536.5C 169.852,537.51 177.185,538.51 184.5,539.5 Z"/></g>
<g><path style="opacity:1" fill="#f4f1ed" d="M 1066.5,579.5 C 1067.95,580.134 1068.61,581.301 1068.5,583C 1068.01,591.29 1065.01,598.457 1059.5,604.5C 1056.27,605.844 1053.77,604.844 1052,601.5C 1049.16,595.803 1047.83,589.803 1048,583.5C 1051.17,580.588 1054.5,577.921 1058,575.5C 1060.64,577.238 1063.48,578.572 1066.5,579.5 Z"/></g>
<g><path style="opacity:1" fill="#fefefe" d="M 27.5,579.5 C 57.7094,593.771 88.0427,607.771 118.5,621.5C 119.665,630.816 119.832,640.149 119,649.5C 88.5629,635.196 58.0629,621.196 27.5,607.5C 27.5,598.167 27.5,588.833 27.5,579.5 Z"/></g>
<g><path style="opacity:1" fill="#fdedec" d="M 226.5,580.5 C 274.875,588.876 323.209,597.542 371.5,606.5C 371.5,608.5 371.5,610.5 371.5,612.5C 322.643,604.854 273.976,596.187 225.5,586.5C 225.833,584.5 226.167,582.5 226.5,580.5 Z"/></g>
<g><path style="opacity:1" fill="#fefefe" d="M 418.5,582.5 C 546.5,582.5 674.5,582.5 802.5,582.5C 802.5,597.5 802.5,612.5 802.5,627.5C 674.5,627.5 546.5,627.5 418.5,627.5C 418.5,612.5 418.5,597.5 418.5,582.5 Z"/></g>
<g><path style="opacity:0.99" fill="#fbfdfd" d="M 1165.5,519.5 C 1165.5,551.833 1165.5,584.167 1165.5,616.5C 1101.91,644.792 1038.57,673.959 975.5,704C 971.979,705.674 968.313,706.84 964.5,707.5C 964.5,670.5 964.5,633.5 964.5,596.5C 974.37,594.369 984.204,592.036 994,589.5C 997.073,590.617 1000.24,590.784 1003.5,590C 1015.05,587.533 1026.72,585.2 1038.5,583C 1040.5,582.665 1042.17,581.832 1043.5,580.5C 1042.71,590.283 1044.88,599.283 1050,607.5C 1051.13,609.141 1052.63,610.141 1054.5,610.5C 1056.43,611.709 1058.43,611.542 1060.5,610C 1068.7,600.372 1072.53,589.206 1072,576.5C 1071.18,575.177 1070.02,574.511 1068.5,574.5C 1065.25,572.043 1061.58,570.376 1057.5,569.5C 1068.93,563.398 1080.6,557.565 1092.5,552C 1116.86,541.266 1141.2,530.433 1165.5,519.5 Z"/></g>
<g><path style="opacity:1" fill="#dff5fc" d="M 152.5,522.5 C 161.312,525.043 170.312,526.876 179.5,528C 180,528.5 180.5,529 181,529.5C 181.495,527.527 181.662,525.527 181.5,523.5C 182.859,528.642 183.859,533.975 184.5,539.5C 177.185,538.51 169.852,537.51 162.5,536.5C 162.5,561.167 162.5,585.833 162.5,610.5C 162.5,612.5 162.5,614.5 162.5,616.5C 162.5,628.5 162.5,640.5 162.5,652.5C 162.5,654.5 162.5,656.5 162.5,658.5C 162.5,669.833 162.5,681.167 162.5,692.5C 162.5,694.833 162.5,697.167 162.5,699.5C 162.5,711.167 162.5,722.833 162.5,734.5C 162.5,736.5 162.5,738.5 162.5,740.5C 162.5,752.5 162.5,764.5 162.5,776.5C 162.5,778.5 162.5,780.5 162.5,782.5C 162.5,794.167 162.5,805.833 162.5,817.5C 162.5,819.5 162.5,821.5 162.5,823.5C 162.5,835.5 162.5,847.5 162.5,859.5C 162.5,861.5 162.5,863.5 162.5,865.5C 162.5,877.167 162.5,888.833 162.5,900.5C 162.5,902.5 162.5,904.5 162.5,906.5C 162.5,918.167 162.5,929.833 162.5,941.5C 162.5,943.5 162.5,945.5 162.5,947.5C 162.5,959.5 162.5,971.5 162.5,983.5C 162.5,985.5 162.5,987.5 162.5,989.5C 162.5,1001.17 162.5,1012.83 162.5,1024.5C 162.5,1026.5 162.5,1028.5 162.5,1030.5C 162.5,1042.17 162.5,1053.83 162.5,1065.5C 162.167,1065.5 161.833,1065.5 161.5,1065.5C 161.5,888.833 161.5,712.167 161.5,535.5C 156.99,535.271 152.657,535.938 148.5,537.5C 138.458,542.898 132.292,551.231 130,562.5C 129.833,604.504 129.333,646.504 128.5,688.5C 125.805,687.492 123.138,686.492 120.5,685.5C 119.167,685.5 118.5,684.833 118.5,683.5C 119.826,679.386 120.493,674.886 120.5,670C 120.487,665.253 120.153,660.586 119.5,656C 88.9609,641.897 58.2942,628.064 27.5,614.5C 27.5,612.167 27.5,609.833 27.5,607.5C 58.0629,621.196 88.5629,635.196 119,649.5C 119.832,640.149 119.665,630.816 118.5,621.5C 88.0427,607.771 57.7094,593.771 27.5,579.5C 27.5,577.167 27.5,574.833 27.5,572.5C 57.9929,586.111 88.3263,600.111 118.5,614.5C 119.498,605.19 119.832,595.857 119.5,586.5C 120.104,572.818 120.771,559.151 121.5,545.5C 124.346,537.479 129.346,531.146 136.5,526.5C 141.111,522.849 146.444,521.516 152.5,522.5 Z"/></g>
<g><path style="opacity:1" fill="#5d5c5e" d="M 1061.5,583.5 C 1062.5,583.5 1063.5,583.5 1064.5,583.5C 1062.09,587.935 1060.09,592.602 1058.5,597.5C 1055.77,596.612 1053.77,594.779 1052.5,592C 1052.83,591.5 1053.17,591 1053.5,590.5C 1054.5,591.167 1055.5,591.833 1056.5,592.5C 1058.43,589.634 1060.1,586.634 1061.5,583.5 Z"/></g>
<g><path style="opacity:1" fill="#fc9131" d="M 1068.5,574.5 C 1070.02,574.511 1071.18,575.177 1072,576.5C 1072.53,589.206 1068.7,600.372 1060.5,610C 1058.43,611.542 1056.43,611.709 1054.5,610.5C 1054.2,609.85 1053.86,609.183 1053.5,608.5C 1055.85,607.457 1057.85,606.124 1059.5,604.5C 1065.01,598.457 1068.01,591.29 1068.5,583C 1068.61,581.301 1067.95,580.134 1066.5,579.5C 1066.08,577.219 1066.74,575.552 1068.5,574.5 Z"/></g>
<g><path style="opacity:1" fill="#4280e7" d="M 1078.5,629.5 C 1078.48,627.073 1077.98,624.74 1077,622.5C 1074.89,618.289 1072.72,614.289 1070.5,610.5C 1071.13,606.166 1073.47,602.833 1077.5,600.5C 1078.48,600.977 1079.31,601.643 1080,602.5C 1081.52,606.271 1083.19,609.938 1085,613.5C 1086.79,616.618 1087.46,619.951 1087,623.5C 1084.82,626.531 1081.98,628.531 1078.5,629.5 Z"/></g>
<g><path style="opacity:1" fill="#ffbc3c" d="M 1057.5,569.5 C 1061.58,570.376 1065.25,572.043 1068.5,574.5C 1066.74,575.552 1066.08,577.219 1066.5,579.5C 1063.48,578.572 1060.64,577.238 1058,575.5C 1054.5,577.921 1051.17,580.588 1048,583.5C 1047.83,589.803 1049.16,595.803 1052,601.5C 1053.77,604.844 1056.27,605.844 1059.5,604.5C 1057.85,606.124 1055.85,607.457 1053.5,608.5C 1053.86,609.183 1054.2,609.85 1054.5,610.5C 1052.63,610.141 1051.13,609.141 1050,607.5C 1044.88,599.283 1042.71,590.283 1043.5,580.5C 1047.76,576.362 1052.43,572.695 1057.5,569.5 Z"/></g>
<g><path style="opacity:0.203" fill="#1ec1f0" d="M 964.5,581.5 C 964.5,586.5 964.5,591.5 964.5,596.5C 963.711,596.783 963.044,597.283 962.5,598C 915.782,605.842 869.115,614.009 822.5,622.5C 822.667,679.501 822.5,736.501 822,793.5C 819.5,802 814,807.5 805.5,810C 684.5,810.5 563.5,810.667 442.5,810.5C 442.5,809.833 442.5,809.167 442.5,808.5C 442.5,804.167 442.5,799.833 442.5,795.5C 557.167,795.667 671.834,795.5 786.5,795C 799.882,791.4 804.882,782.9 801.5,769.5C 802.038,767.883 802.371,766.216 802.5,764.5C 802.833,764.5 803.167,764.5 803.5,764.5C 804.499,713.336 804.832,662.003 804.5,610.5C 857.813,601 911.147,591.333 964.5,581.5 Z"/></g>
<g><path style="opacity:1" fill="#4381e7" d="M 1043.5,614.5 C 1039.99,621.535 1036.99,628.869 1034.5,636.5C 1033.74,636.923 1032.9,637.257 1032,637.5C 1030.18,636.349 1028.34,635.182 1026.5,634C 1025.42,632.274 1025.26,630.441 1026,628.5C 1029.16,621.519 1032.32,614.519 1035.5,607.5C 1036,607.167 1036.5,606.833 1037,606.5C 1041.25,607.571 1043.41,610.238 1043.5,614.5 Z"/></g>
<g><path style="opacity:1" fill="#ebf7fc" d="M 162.5,610.5 C 231.519,622.977 300.685,635.31 370,647.5C 371.477,635.995 371.977,624.328 371.5,612.5C 372.731,626.346 372.731,640.346 371.5,654.5C 301.872,641.919 232.206,629.252 162.5,616.5C 162.5,614.5 162.5,612.5 162.5,610.5 Z"/></g>
<g><path style="opacity:1" fill="#fdfefe" d="M 27.5,614.5 C 58.2942,628.064 88.9609,641.897 119.5,656C 120.153,660.586 120.487,665.253 120.5,670C 120.493,674.886 119.826,679.386 118.5,683.5C 88.1073,670.033 57.774,656.366 27.5,642.5C 27.5,633.167 27.5,623.833 27.5,614.5 Z"/></g>
<g><path style="opacity:1" fill="#fefefe" d="M 162.5,616.5 C 232.206,629.252 301.872,641.919 371.5,654.5C 371.5,665.833 371.5,677.167 371.5,688.5C 321.109,679.713 270.776,671.046 220.5,662.5C 208.454,659.935 196.454,657.435 184.5,655C 177.194,653.839 169.861,653.006 162.5,652.5C 162.5,640.5 162.5,628.5 162.5,616.5 Z"/></g>
<g><path style="opacity:1" fill="#fcc5af" d="M 1070.5,610.5 C 1072.72,614.289 1074.89,618.289 1077,622.5C 1077.98,624.74 1078.48,627.073 1078.5,629.5C 1076.98,629.511 1075.82,630.177 1075,631.5C 1074.99,634.659 1074.16,637.493 1072.5,640C 1074.35,643.466 1073.35,645.299 1069.5,645.5C 1070.11,649.903 1068.44,651.236 1064.5,649.5C 1063.74,650.628 1063.07,651.795 1062.5,653C 1060.06,653.124 1057.73,652.624 1055.5,651.5C 1054.8,648.572 1054.64,645.572 1055,642.5C 1054.71,644.044 1054.04,645.377 1053,646.5C 1052.13,645.892 1051.63,645.059 1051.5,644C 1052.41,642.211 1052.58,640.377 1052,638.5C 1051.52,639.448 1051.35,640.448 1051.5,641.5C 1050.5,641.5 1049.5,641.5 1048.5,641.5C 1049.9,636.62 1049.9,634.954 1048.5,636.5C 1047.32,636.719 1046.32,636.386 1045.5,635.5C 1046.33,634.549 1046.49,633.549 1046,632.5C 1044.27,635.33 1042.11,637.663 1039.5,639.5C 1038.34,637.75 1036.67,636.75 1034.5,636.5C 1036.99,628.869 1039.99,621.535 1043.5,614.5C 1045.4,615.368 1047.24,616.368 1049,617.5C 1050.5,616.523 1052,615.523 1053.5,614.5C 1056.07,616.017 1058.41,615.684 1060.5,613.5C 1062.06,613.722 1063.39,614.389 1064.5,615.5C 1066.52,613.81 1068.52,612.144 1070.5,610.5 Z"/></g>
<g><path style="opacity:0.999" fill="#ebf6fc" d="M 1165.5,616.5 C 1165.5,618.833 1165.5,621.167 1165.5,623.5C 1099.29,653.455 1033.29,683.789 967.5,714.5C 966.583,713.873 965.583,713.539 964.5,713.5C 964.5,711.5 964.5,709.5 964.5,707.5C 968.313,706.84 971.979,705.674 975.5,704C 1038.57,673.959 1101.91,644.792 1165.5,616.5 Z"/></g>
<g><path style="opacity:0.996" fill="#fefefe" d="M 1165.5,623.5 C 1165.5,632.5 1165.5,641.5 1165.5,650.5C 1098.72,681.543 1031.72,712.21 964.5,742.5C 964.5,732.833 964.5,723.167 964.5,713.5C 965.583,713.539 966.583,713.873 967.5,714.5C 1033.29,683.789 1099.29,653.455 1165.5,623.5 Z"/></g>
<g><path style="opacity:1" fill="#eaf6fc" d="M 418.5,422.5 C 546.833,422.5 675.167,422.5 803.5,422.5C 803.5,480.167 803.5,537.833 803.5,595.5C 803.179,600.695 803.513,605.695 804.5,610.5C 804.832,662.003 804.499,713.336 803.5,764.5C 803.5,752.833 803.5,741.167 803.5,729.5C 803.5,714.5 803.5,699.5 803.5,684.5C 675.167,684.5 546.833,684.5 418.5,684.5C 418.5,682.5 418.5,680.5 418.5,678.5C 546.5,678.5 674.5,678.5 802.5,678.5C 802.5,663.5 802.5,648.5 802.5,633.5C 674.5,633.5 546.5,633.5 418.5,633.5C 418.5,631.5 418.5,629.5 418.5,627.5C 546.5,627.5 674.5,627.5 802.5,627.5C 802.5,612.5 802.5,597.5 802.5,582.5C 674.5,582.5 546.5,582.5 418.5,582.5C 418.5,580.5 418.5,578.5 418.5,576.5C 546.5,576.5 674.5,576.5 802.5,576.5C 802.5,561.5 802.5,546.5 802.5,531.5C 674.5,531.5 546.5,531.5 418.5,531.5C 418.5,529.167 418.5,526.833 418.5,524.5C 546.5,524.5 674.5,524.5 802.5,524.5C 802.5,509.5 802.5,494.5 802.5,479.5C 674.5,479.5 546.5,479.5 418.5,479.5C 418.5,477.5 418.5,475.5 418.5,473.5C 546.5,473.5 674.5,473.5 802.5,473.5C 802.5,458.5 802.5,443.5 802.5,428.5C 674.5,428.5 546.5,428.5 418.5,428.5C 418.5,426.5 418.5,424.5 418.5,422.5 Z"/></g>
<g><path style="opacity:1" fill="#fefefe" d="M 418.5,633.5 C 546.5,633.5 674.5,633.5 802.5,633.5C 802.5,648.5 802.5,663.5 802.5,678.5C 674.5,678.5 546.5,678.5 418.5,678.5C 418.5,663.5 418.5,648.5 418.5,633.5 Z"/></g>
<g><path style="opacity:1" fill="#f9af98" d="M 1055.5,651.5 C 1054.6,653.727 1052.93,654.727 1050.5,654.5C 1050.72,653.325 1050.39,652.325 1049.5,651.5C 1048.17,652.5 1046.83,653.5 1045.5,654.5C 1044.01,652.729 1042.18,651.396 1040,650.5C 1039.35,648.765 1039.52,647.098 1040.5,645.5C 1038.51,643.605 1038.18,641.605 1039.5,639.5C 1042.11,637.663 1044.27,635.33 1046,632.5C 1046.49,633.549 1046.33,634.549 1045.5,635.5C 1046.32,636.386 1047.32,636.719 1048.5,636.5C 1049.9,634.954 1049.9,636.62 1048.5,641.5C 1049.5,641.5 1050.5,641.5 1051.5,641.5C 1051.35,640.448 1051.52,639.448 1052,638.5C 1052.58,640.377 1052.41,642.211 1051.5,644C 1051.63,645.059 1052.13,645.892 1053,646.5C 1054.04,645.377 1054.71,644.044 1055,642.5C 1054.64,645.572 1054.8,648.572 1055.5,651.5 Z"/></g>
<g><path style="opacity:0.004" fill="#000000" d="M 6.5,651.5 C 5.83333,652.167 5.83333,652.167 6.5,651.5 Z"/></g>
<g><path style="opacity:1" fill="#ebf7fc" d="M 162.5,652.5 C 169.861,653.006 177.194,653.839 184.5,655C 196.454,657.435 208.454,659.935 220.5,662.5C 270.776,671.046 321.109,679.713 371.5,688.5C 371.5,677.167 371.5,665.833 371.5,654.5C 372.728,668.013 372.728,681.679 371.5,695.5C 301.839,683.5 232.172,671.167 162.5,658.5C 162.5,656.5 162.5,654.5 162.5,652.5 Z"/></g>
<g><path style="opacity:0.999" fill="#ebf6fc" d="M 1165.5,650.5 C 1165.5,653.167 1165.5,655.833 1165.5,658.5C 1163.44,658.687 1161.44,659.187 1159.5,660C 1095.58,690.203 1031.42,720.036 967,749.5C 966.329,748.748 965.496,748.414 964.5,748.5C 964.5,746.5 964.5,744.5 964.5,742.5C 1031.72,712.21 1098.72,681.543 1165.5,650.5 Z"/></g>
<g><path style="opacity:1" fill="#cef1fb" d="M 370.5,572.5 C 370.833,572.5 371.167,572.5 371.5,572.5C 375.655,573.903 379.988,574.903 384.5,575.5C 385.833,575.5 387.167,575.5 388.5,575.5C 389.174,639.791 389.84,704.125 390.5,768.5C 389.08,778.766 392.413,786.933 400.5,793C 414.579,794.132 428.579,794.965 442.5,795.5C 442.5,799.833 442.5,804.167 442.5,808.5C 423.164,808.667 403.83,808.5 384.5,808C 374.51,802.745 370.176,794.412 371.5,783C 372.234,753.84 372.234,724.673 371.5,695.5C 372.728,681.679 372.728,668.013 371.5,654.5C 372.731,640.346 372.731,626.346 371.5,612.5C 371.5,610.5 371.5,608.5 371.5,606.5C 371.79,595.116 371.457,583.783 370.5,572.5 Z"/></g>
<g><path style="opacity:1" fill="#fefefe" d="M 162.5,658.5 C 232.172,671.167 301.839,683.5 371.5,695.5C 372.234,724.673 372.234,753.84 371.5,783C 370.176,794.412 374.51,802.745 384.5,808C 403.83,808.5 423.164,808.667 442.5,808.5C 442.5,809.167 442.5,809.833 442.5,810.5C 442.5,815.833 442.5,821.167 442.5,826.5C 405.963,819.36 369.296,812.527 332.5,806C 323.117,804.696 313.783,803.196 304.5,801.5C 303.817,801.863 303.15,802.196 302.5,802.5C 302.5,794.833 302.5,787.167 302.5,779.5C 316.837,779.667 331.171,779.5 345.5,779C 346.161,768.741 346.494,758.408 346.5,748C 346.494,737.592 346.161,727.259 345.5,717C 331.092,716.185 316.759,716.352 302.5,717.5C 302.666,710.159 302.5,702.826 302,695.5C 300,692.833 298,692.833 296,695.5C 295.667,701.5 295.333,707.5 295,713.5C 293.322,711.447 291.489,711.113 289.5,712.5C 288.849,713.091 288.182,713.757 287.5,714.5C 284.42,712.895 281.92,713.562 280,716.5C 278.644,715.62 277.144,715.286 275.5,715.5C 275.918,714.778 276.584,714.278 277.5,714C 239.295,706.409 200.962,699.243 162.5,692.5C 162.5,681.167 162.5,669.833 162.5,658.5 Z"/></g>
<g><path style="opacity:0.996" fill="#fefefe" d="M 1165.5,658.5 C 1165.5,667.5 1165.5,676.5 1165.5,685.5C 1098.64,716.521 1031.64,747.188 964.5,777.5C 964.5,767.833 964.5,758.167 964.5,748.5C 965.496,748.414 966.329,748.748 967,749.5C 1031.42,720.036 1095.58,690.203 1159.5,660C 1161.44,659.187 1163.44,658.687 1165.5,658.5 Z"/></g>
<g><path style="opacity:1" fill="#fefefe" d="M 418.5,684.5 C 546.833,684.5 675.167,684.5 803.5,684.5C 803.5,699.5 803.5,714.5 803.5,729.5C 675.167,729.5 546.833,729.5 418.5,729.5C 418.5,714.5 418.5,699.5 418.5,684.5 Z"/></g>
<g><path style="opacity:1" fill="#ebf6fc" d="M 1165.5,685.5 C 1165.5,687.833 1165.5,690.167 1165.5,692.5C 1099.69,723.216 1033.69,753.549 967.5,783.5C 966.583,782.873 965.583,782.539 964.5,782.5C 964.5,780.833 964.5,779.167 964.5,777.5C 1031.64,747.188 1098.64,716.521 1165.5,685.5 Z"/></g>
<g><path style="opacity:1" fill="#ecf7fc" d="M 162.5,692.5 C 200.962,699.243 239.295,706.409 277.5,714C 276.584,714.278 275.918,714.778 275.5,715.5C 274.326,716.514 273.66,717.847 273.5,719.5C 236.539,713.216 199.539,706.549 162.5,699.5C 162.5,697.167 162.5,694.833 162.5,692.5 Z"/></g>
<g><path style="opacity:0.996" fill="#fefefe" d="M 1165.5,692.5 C 1165.5,702.167 1165.5,711.833 1165.5,721.5C 1163.8,721.34 1162.13,721.506 1160.5,722C 1095.35,752.405 1030.02,782.572 964.5,812.5C 964.5,802.5 964.5,792.5 964.5,782.5C 965.583,782.539 966.583,782.873 967.5,783.5C 1033.69,753.549 1099.69,723.216 1165.5,692.5 Z"/></g>
<g><path style="opacity:1" fill="#fdd7b0" d="M 302.5,717.5 C 302.5,718.833 302.5,720.167 302.5,721.5C 303.822,721.33 304.989,721.663 306,722.5C 306.667,727.833 306.667,733.167 306,738.5C 302.782,742.897 301.615,747.897 302.5,753.5C 301.711,753.217 301.044,752.717 300.5,752C 292.841,751.5 285.174,751.334 277.5,751.5C 277.5,748.833 277.5,746.167 277.5,743.5C 282.07,744.441 286.737,744.774 291.5,744.5C 288.955,734.554 292.622,728.888 302.5,727.5C 297.489,727.654 294.322,725.321 293,720.5C 291.017,722.93 291.183,725.263 293.5,727.5C 292.726,728.711 291.893,728.711 291,727.5C 290.826,722.316 290.326,717.316 289.5,712.5C 291.489,711.113 293.322,711.447 295,713.5C 295.333,707.5 295.667,701.5 296,695.5C 298,692.833 300,692.833 302,695.5C 302.5,702.826 302.666,710.159 302.5,717.5 Z"/></g>
<g><path style="opacity:1" fill="#fefefe" d="M 162.5,699.5 C 199.539,706.549 236.539,713.216 273.5,719.5C 273.334,725.842 273.5,732.175 274,738.5C 274.697,740.584 275.864,742.251 277.5,743.5C 277.5,746.167 277.5,748.833 277.5,751.5C 275.596,751.738 274.262,752.738 273.5,754.5C 236.499,747.279 199.499,740.612 162.5,734.5C 162.5,722.833 162.5,711.167 162.5,699.5 Z"/></g>
<g><path style="opacity:0.141" fill="#1ec6ea" d="M 119.5,704.5 C 119.833,704.5 120.167,704.5 120.5,704.5C 120.5,704.833 120.5,705.167 120.5,705.5C 121.663,820.127 121.829,934.793 121,1049.5C 120.722,1050.42 120.222,1051.08 119.5,1051.5C 119.5,935.833 119.5,820.167 119.5,704.5 Z"/></g>
<g><path style="opacity:0.149" fill="#21c3f2" d="M 120.5,705.5 C 123.005,705.98 125.338,706.98 127.5,708.5C 128.333,824.165 128.833,939.832 129,1055.5C 130.858,1059.4 132.525,1063.4 134,1067.5C 137.742,1071.05 140.908,1074.39 143.5,1077.5C 128.937,1074.94 120.937,1066.27 119.5,1051.5C 120.222,1051.08 120.722,1050.42 121,1049.5C 121.829,934.793 121.663,820.127 120.5,705.5 Z"/></g>
<g><path style="opacity:1" fill="#d8195d" d="M 302.5,779.5 C 300.473,779.662 298.473,779.495 296.5,779C 295.978,778.439 295.645,777.772 295.5,777C 297.28,774.216 299.447,771.716 302,769.5C 302.499,764.177 302.666,758.844 302.5,753.5C 301.615,747.897 302.782,742.897 306,738.5C 306.667,733.167 306.667,727.833 306,722.5C 304.989,721.663 303.822,721.33 302.5,721.5C 302.5,720.167 302.5,718.833 302.5,717.5C 316.759,716.352 331.092,716.185 345.5,717C 346.161,727.259 346.494,737.592 346.5,748C 346.494,758.408 346.161,768.741 345.5,779C 331.171,779.5 316.837,779.667 302.5,779.5 Z"/></g>
<g><path style="opacity:0.999" fill="#ebf6fc" d="M 1165.5,721.5 C 1165.5,723.5 1165.5,725.5 1165.5,727.5C 1099.79,756.857 1034.45,787.023 969.5,818C 967.735,818.64 966.068,818.473 964.5,817.5C 964.5,815.833 964.5,814.167 964.5,812.5C 1030.02,782.572 1095.35,752.405 1160.5,722C 1162.13,721.506 1163.8,721.34 1165.5,721.5 Z"/></g>
<g><path style="opacity:1" fill="#fdecf2" d="M 322.5,724.5 C 324.722,724.178 326.556,724.845 328,726.5C 328.667,736.833 328.667,747.167 328,757.5C 325.667,760.167 323.333,760.167 321,757.5C 320.333,747.167 320.333,736.833 321,726.5C 321.717,725.956 322.217,725.289 322.5,724.5 Z"/></g>
<g><path style="opacity:1" fill="#ebc299" d="M 289.5,712.5 C 290.326,717.316 290.826,722.316 291,727.5C 291.893,728.711 292.726,728.711 293.5,727.5C 291.183,725.263 291.017,722.93 293,720.5C 294.322,725.321 297.489,727.654 302.5,727.5C 292.622,728.888 288.955,734.554 291.5,744.5C 286.737,744.774 282.07,744.441 277.5,743.5C 275.864,742.251 274.697,740.584 274,738.5C 273.5,732.175 273.334,725.842 273.5,719.5C 273.66,717.847 274.326,716.514 275.5,715.5C 277.144,715.286 278.644,715.62 280,716.5C 281.92,713.562 284.42,712.895 287.5,714.5C 288.182,713.757 288.849,713.091 289.5,712.5 Z"/></g>
<g><path style="opacity:0.996" fill="#fefefe" d="M 1165.5,727.5 C 1165.5,737.167 1165.5,746.833 1165.5,756.5C 1161.95,756.439 1158.62,757.273 1155.5,759C 1092.05,789.057 1028.39,818.557 964.5,847.5C 964.5,837.5 964.5,827.5 964.5,817.5C 966.068,818.473 967.735,818.64 969.5,818C 1034.45,787.023 1099.79,756.857 1165.5,727.5 Z"/></g>
<g><path style="opacity:1" fill="#ebf6fc" d="M 418.5,729.5 C 546.833,729.5 675.167,729.5 803.5,729.5C 803.5,741.167 803.5,752.833 803.5,764.5C 803.167,764.5 802.833,764.5 802.5,764.5C 802.5,755.167 802.5,745.833 802.5,736.5C 674.5,736.5 546.5,736.5 418.5,736.5C 418.5,734.167 418.5,731.833 418.5,729.5 Z"/></g>
<g><path style="opacity:1" fill="#ebf6fc" d="M 162.5,734.5 C 199.499,740.612 236.499,747.279 273.5,754.5C 273.5,756.833 273.5,759.167 273.5,761.5C 236.367,755.034 199.367,748.034 162.5,740.5C 162.5,738.5 162.5,736.5 162.5,734.5 Z"/></g>
<g><path style="opacity:1" fill="#fefefe" d="M 418.5,736.5 C 546.5,736.5 674.5,736.5 802.5,736.5C 802.5,745.833 802.5,755.167 802.5,764.5C 802.371,766.216 802.038,767.883 801.5,769.5C 798.553,773.942 794.553,777.108 789.5,779C 665.834,779.5 542.167,779.667 418.5,779.5C 418.5,765.167 418.5,750.833 418.5,736.5 Z"/></g>
<g><path style="opacity:1" fill="#fefefe" d="M 162.5,740.5 C 199.367,748.034 236.367,755.034 273.5,761.5C 273.5,772.833 273.5,784.167 273.5,795.5C 244.417,789.875 215.084,784.875 185.5,780.5C 178.07,777.867 170.403,776.533 162.5,776.5C 162.5,764.5 162.5,752.5 162.5,740.5 Z"/></g>
<g><path style="opacity:1" fill="#fec30f" d="M 277.5,751.5 C 285.174,751.334 292.841,751.5 300.5,752C 301.044,752.717 301.711,753.217 302.5,753.5C 302.666,758.844 302.499,764.177 302,769.5C 299.447,771.716 297.28,774.216 295.5,777C 295.645,777.772 295.978,778.439 296.5,779C 298.473,779.495 300.473,779.662 302.5,779.5C 302.5,787.167 302.5,794.833 302.5,802.5C 293.167,802.5 283.833,802.5 274.5,802.5C 274.167,802.5 273.833,802.5 273.5,802.5C 273.5,800.167 273.5,797.833 273.5,795.5C 273.5,784.167 273.5,772.833 273.5,761.5C 273.5,759.167 273.5,756.833 273.5,754.5C 274.262,752.738 275.596,751.738 277.5,751.5 Z"/></g>
<g><path style="opacity:0.999" fill="#ebf6fc" d="M 1165.5,756.5 C 1165.5,758.5 1165.5,760.5 1165.5,762.5C 1099.42,792.921 1033.25,823.254 967,853.5C 966.329,852.748 965.496,852.414 964.5,852.5C 964.5,850.833 964.5,849.167 964.5,847.5C 1028.39,818.557 1092.05,789.057 1155.5,759C 1158.62,757.273 1161.95,756.439 1165.5,756.5 Z"/></g>
<g><path style="opacity:0.998" fill="#fefefe" d="M 1165.5,762.5 C 1165.5,771.833 1165.5,781.167 1165.5,790.5C 1152.43,795.72 1139.43,801.22 1126.5,807C 1072.79,832.896 1018.79,857.73 964.5,881.5C 964.5,871.833 964.5,862.167 964.5,852.5C 965.496,852.414 966.329,852.748 967,853.5C 1033.25,823.254 1099.42,792.921 1165.5,762.5 Z"/></g>
<g><path style="opacity:1" fill="#fce7ee" d="M 322.5,763.5 C 328.488,763.664 329.821,766.164 326.5,771C 324.888,771.72 323.388,771.554 322,770.5C 321.297,768.071 321.463,765.738 322.5,763.5 Z"/></g>
<g><path style="opacity:0.999" fill="#1daed2" d="M 390.5,768.5 C 396.696,779.099 405.696,782.766 417.5,779.5C 417.833,779.5 418.167,779.5 418.5,779.5C 542.167,779.667 665.834,779.5 789.5,779C 794.553,777.108 798.553,773.942 801.5,769.5C 804.882,782.9 799.882,791.4 786.5,795C 671.834,795.5 557.167,795.667 442.5,795.5C 428.579,794.965 414.579,794.132 400.5,793C 392.413,786.933 389.08,778.766 390.5,768.5 Z"/></g>
<g><path style="opacity:1" fill="#ecf6fc" d="M 162.5,776.5 C 170.403,776.533 178.07,777.867 185.5,780.5C 215.084,784.875 244.417,789.875 273.5,795.5C 273.5,797.833 273.5,800.167 273.5,802.5C 236.402,796.103 199.402,789.436 162.5,782.5C 162.5,780.5 162.5,778.5 162.5,776.5 Z"/></g>
<g><path style="opacity:0.997" fill="#fefefe" d="M 162.5,782.5 C 199.402,789.436 236.402,796.103 273.5,802.5C 273.833,802.5 274.167,802.5 274.5,802.5C 330.286,813.329 386.286,823.329 442.5,832.5C 442.5,844.167 442.5,855.833 442.5,867.5C 349.278,850.869 255.945,834.203 162.5,817.5C 162.5,805.833 162.5,794.167 162.5,782.5 Z"/></g>
<g><path style="opacity:1" fill="#ebf6fc" d="M 1165.5,790.5 C 1165.5,792.833 1165.5,795.167 1165.5,797.5C 1119.71,817.478 1074.38,838.311 1029.5,860C 1009.32,869.391 988.988,878.391 968.5,887C 968,887.5 967.5,888 967,888.5C 966.501,893.489 966.334,898.489 966.5,903.5C 965.833,903.5 965.167,903.5 964.5,903.5C 964.5,896.167 964.5,888.833 964.5,881.5C 1018.79,857.73 1072.79,832.896 1126.5,807C 1139.43,801.22 1152.43,795.72 1165.5,790.5 Z"/></g>
<g><path style="opacity:1" fill="#fefefe" d="M 1165.5,797.5 C 1165.5,806.5 1165.5,815.5 1165.5,824.5C 1103.16,853.336 1040.83,882.169 978.5,911C 972.007,912.322 968.007,909.822 966.5,903.5C 966.334,898.489 966.501,893.489 967,888.5C 967.5,888 968,887.5 968.5,887C 988.988,878.391 1009.32,869.391 1029.5,860C 1074.38,838.311 1119.71,817.478 1165.5,797.5 Z"/></g>
<g><path style="opacity:1" fill="#ecf7fc" d="M 442.5,826.5 C 442.5,828.5 442.5,830.5 442.5,832.5C 386.286,823.329 330.286,813.329 274.5,802.5C 283.833,802.5 293.167,802.5 302.5,802.5C 303.15,802.196 303.817,801.863 304.5,801.5C 313.783,803.196 323.117,804.696 332.5,806C 369.296,812.527 405.963,819.36 442.5,826.5 Z"/></g>
<g><path style="opacity:1" fill="#ecf6fc" d="M 162.5,817.5 C 255.945,834.203 349.278,850.869 442.5,867.5C 442.5,869.167 442.5,870.833 442.5,872.5C 441.739,873.391 440.739,874.058 439.5,874.5C 347.346,856.714 255.012,839.714 162.5,823.5C 162.5,821.5 162.5,819.5 162.5,817.5 Z"/></g>
<g><path style="opacity:0.997" fill="#fefefe" d="M 162.5,823.5 C 255.012,839.714 347.346,856.714 439.5,874.5C 440.739,874.058 441.739,873.391 442.5,872.5C 442.5,884.5 442.5,896.5 442.5,908.5C 441.504,908.414 440.671,908.748 440,909.5C 433.924,907.773 427.757,906.273 421.5,905C 362.432,895.055 303.432,884.388 244.5,873C 217.127,868.565 189.794,864.065 162.5,859.5C 162.5,847.5 162.5,835.5 162.5,823.5 Z"/></g>
<g><path style="opacity:1" fill="#ecf6fc" d="M 162.5,859.5 C 189.794,864.065 217.127,868.565 244.5,873C 303.432,884.388 362.432,895.055 421.5,905C 427.757,906.273 433.924,907.773 440,909.5C 440.671,908.748 441.504,908.414 442.5,908.5C 442.5,910.833 442.5,913.167 442.5,915.5C 349.332,898.845 255.999,882.179 162.5,865.5C 162.5,863.5 162.5,861.5 162.5,859.5 Z"/></g>
<g><path style="opacity:0.997" fill="#fefefe" d="M 162.5,865.5 C 255.999,882.179 349.332,898.845 442.5,915.5C 442.5,927.167 442.5,938.833 442.5,950.5C 348.998,933.726 255.665,917.059 162.5,900.5C 162.5,888.833 162.5,877.167 162.5,865.5 Z"/></g>
<g><path style="opacity:1" fill="#ecf7fc" d="M 162.5,900.5 C 255.665,917.059 348.998,933.726 442.5,950.5C 442.5,952.167 442.5,953.833 442.5,955.5C 433.83,955.896 425.164,955.063 416.5,953C 331.607,938.02 246.94,922.52 162.5,906.5C 162.5,904.5 162.5,902.5 162.5,900.5 Z"/></g>
<g><path style="opacity:0.997" fill="#fefefe" d="M 162.5,906.5 C 246.94,922.52 331.607,938.02 416.5,953C 425.164,955.063 433.83,955.896 442.5,955.5C 442.5,967.833 442.5,980.167 442.5,992.5C 349.277,974.722 255.944,957.722 162.5,941.5C 162.5,929.833 162.5,918.167 162.5,906.5 Z"/></g>
<g><path style="opacity:1" fill="#ecf7fc" d="M 162.5,941.5 C 255.944,957.722 349.277,974.722 442.5,992.5C 442.5,994.167 442.5,995.833 442.5,997.5C 441.423,998.018 440.256,998.352 439,998.5C 346.584,982.089 254.417,965.089 162.5,947.5C 162.5,945.5 162.5,943.5 162.5,941.5 Z"/></g>
<g><path style="opacity:0.997" fill="#fefefe" d="M 162.5,947.5 C 254.417,965.089 346.584,982.089 439,998.5C 440.256,998.352 441.423,998.018 442.5,997.5C 442.5,1009.5 442.5,1021.5 442.5,1033.5C 349.399,1016.52 256.065,999.853 162.5,983.5C 162.5,971.5 162.5,959.5 162.5,947.5 Z"/></g>
<g><path style="opacity:1" fill="#ecf6fc" d="M 162.5,983.5 C 256.065,999.853 349.399,1016.52 442.5,1033.5C 442.5,1034.83 442.5,1036.17 442.5,1037.5C 441.121,1038.61 439.455,1039.28 437.5,1039.5C 345.512,1023.34 253.846,1006.67 162.5,989.5C 162.5,987.5 162.5,985.5 162.5,983.5 Z"/></g>
<g><path style="opacity:0.998" fill="#fefefe" d="M 162.5,989.5 C 253.846,1006.67 345.512,1023.34 437.5,1039.5C 439.455,1039.28 441.121,1038.61 442.5,1037.5C 442.5,1049.83 442.5,1062.17 442.5,1074.5C 440.897,1075.68 439.564,1075.51 438.5,1074C 346.398,1057.83 254.398,1041.33 162.5,1024.5C 162.5,1012.83 162.5,1001.17 162.5,989.5 Z"/></g>
<g><path style="opacity:1" fill="#ebf6fc" d="M 162.5,1024.5 C 254.398,1041.33 346.398,1057.83 438.5,1074C 439.564,1075.51 440.897,1075.68 442.5,1074.5C 442.666,1082.84 442.5,1091.17 442,1099.5C 441.613,1102.6 440.446,1105.27 438.5,1107.5C 438.167,1107.5 437.833,1107.5 437.5,1107.5C 440.244,1099.11 441.244,1090.44 440.5,1081.5C 347.557,1065.34 254.89,1048.34 162.5,1030.5C 162.5,1028.5 162.5,1026.5 162.5,1024.5 Z"/></g>
<g><path style="opacity:1" fill="#fdfefe" d="M 162.5,1030.5 C 254.89,1048.34 347.557,1065.34 440.5,1081.5C 441.244,1090.44 440.244,1099.11 437.5,1107.5C 432.167,1111.34 426.167,1112.84 419.5,1112C 333.788,1096.41 248.122,1080.91 162.5,1065.5C 162.5,1053.83 162.5,1042.17 162.5,1030.5 Z"/></g>
</svg>
