<?xml version="1.0" encoding="utf-8"?>
<!-- Generator: Adobe Illustrator 23.0.0, SVG Export Plug-In . SVG Version: 6.00 Build 0)  -->
<svg version="1.1" id="Layer_1" xmlns="http://www.w3.org/2000/svg" xmlns:xlink="http://www.w3.org/1999/xlink" x="0px" y="0px"
	 viewBox="0 0 67.1 62.4" style="enable-background:new 0 0 67.1 62.4;" xml:space="preserve">
<style type="text/css">
	.st0{fill:none;stroke:#3D2768;stroke-width:6;stroke-linecap:round;stroke-linejoin:round;}
</style>
<g id="Group_548" transform="translate(3507.011 1255.59)">
	<path id="Path_512" class="st0" d="M-3462.3-1241.6c0-6.1-4.9-11-11-11l0,0c-6.1,0-11,4.9-11,11l0,0c0,6.1,4.9,11,11,11l0,0h30.4"
		/>
	<path id="Path_513" class="st0" d="M-3488.4-1227.9c0-4.3-3.5-7.8-7.8-7.8l0,0c-4.3,0-7.8,3.5-7.8,7.8l0,0c0,4.3,3.5,7.8,7.8,7.8
		l0,0h53.3"/>
	<path id="Path_514" class="st0" d="M-3462-1203c0,3.8-3.1,6.8-6.8,6.8l0,0c-3.8,0-6.8-3.1-6.8-6.8l0,0c0-3.8,3.1-6.8,6.8-6.8l0,0
		h25.9"/>
</g>
</svg>
