<?xml version="1.0" encoding="utf-8"?>
<!-- Generator: Adobe Illustrator 23.0.0, SVG Export Plug-In . SVG Version: 6.00 Build 0)  -->
<svg version="1.1" id="Layer_1" xmlns="http://www.w3.org/2000/svg" xmlns:xlink="http://www.w3.org/1999/xlink" x="0px" y="0px"
	 viewBox="0 0 86.2 92.2" style="enable-background:new 0 0 86.2 92.2;" xml:space="preserve">
<style type="text/css">
	.st0{fill:none;stroke:#3D2768;stroke-width:6;stroke-linecap:round;stroke-linejoin:round;}
	.st1{fill:none;stroke:#3D2768;stroke-width:6;stroke-miterlimit:10;}
	.st2{fill:#FFFFFF;stroke:#3D2768;stroke-miterlimit:10;}
</style>
<g id="Group_549" transform="translate(-426.08 -727.887)">
	<g id="Group_31" transform="translate(461.94 771.776)">
		<g id="Group_30">
			<g id="Group_29">
				<line id="Line_74" class="st0" x1="22.1" y1="19.5" x2="22.1" y2="24.8"/>
				<path id="Path_74" class="st0" d="M13.6,30V4.1c0-2.3,1.9-4.1,4.2-4.1c1.1,0,2.2,0.4,3,1.2C21.6,2,22.1,3,22.1,4.1v10.5"/>
				<line id="Line_75" class="st0" x1="38.9" y1="22.4" x2="38.9" y2="27.7"/>
				<path id="Path_75" class="st0" d="M13.6,30l-6.5-6.4c-1.7-1.6-4.3-1.6-5.9,0s-1.6,4.2-0.1,5.8c0,0,0,0,0.1,0.1l10.6,10.4l6,5.4
					h29.4V21.7c0-2.3-1.9-4.2-4.2-4.1l0,0c-1.1,0-2.2,0.4-3,1.2c-0.8,0.8-1.2,1.8-1.2,2.9"/>
				<path id="Path_76" class="st0" d="M30.5,18.3v-3.7c0-2.3-1.9-4.1-4.2-4.1c-1.1,0-2.2,0.4-3,1.2s-1.2,1.8-1.2,2.9v4.9"/>
				<path id="Path_77" class="st0" d="M30.5,26.7v-8.4c0-2.3,1.9-4.1,4.2-4.1l0,0c1.1,0,2.2,0.4,3,1.2s1.2,1.8,1.2,2.9v4.1"/>
			</g>
		</g>
	</g>
	<path class="st1" d="M449.5,746.3h-16.4c-2.2,0-4,1.8-4,4v29.3c0,2.2,1.8,4,4,4h16.4c2.2,0,4-1.8,4-4v-29.3
		C453.6,748.1,451.8,746.3,449.5,746.3z"/>
	<g id="Group_493" transform="matrix(0.899, 0.438, -0.438, 0.899, 454.837, 731.898)">
		<g id="Group_402-2" transform="translate(0 0)">
			<path id="Path_479-2" class="st2" d="M21,37.4H3.5c-1.9,0-3.5-1.6-3.5-3.5l0,0L0,3.5C0,1.6,1.6,0,3.5,0l0,0L21,0
				c1.9,0,3.5,1.6,3.5,3.5l0,0v30.4C24.5,35.8,22.9,37.4,21,37.4L21,37.4"/>
			<path id="Rectangle_51-2" class="st1" d="M4,0l16.4,0c2.2,0,4,1.8,4,4v29.3c0,2.2-1.8,4-4,4H4c-2.2,0-4-1.8-4-4L0,4
				C0,1.8,1.8,0,4,0z"/>
		</g>
	</g>
</g>
</svg>
