<?xml version="1.0" encoding="utf-8"?>
<!-- Generator: Adobe Illustrator 23.0.0, SVG Export Plug-In . SVG Version: 6.00 Build 0)  -->
<svg version="1.1" id="Layer_1" xmlns="http://www.w3.org/2000/svg" xmlns:xlink="http://www.w3.org/1999/xlink" x="0px" y="0px"
	 viewBox="0 0 811.1 173.9" style="enable-background:new 0 0 811.1 173.9;" xml:space="preserve">
<style type="text/css">
	.st0{fill:none;stroke:#454354;stroke-width:7;stroke-miterlimit:10;}
	.st1{fill:none;stroke:#454354;stroke-width:7;stroke-linecap:round;stroke-linejoin:round;}
	.st2{fill:#FFFFFF;}
</style>
<g id="Group_47" transform="translate(-135.167 -75.4)">
	<g id="Group_33" transform="translate(-9.095 46.473)">
		<line id="Line_76" class="st0" x1="194.7" y1="60.5" x2="200.4" y2="83"/>
		<path id="Path_78" class="st1" d="M200.3,82.6l1.3,5.3c0.9,3.7-1.3,7.5-5.1,8.4l0,0l0,0c-3.7,0.9-7.5-1.3-8.4-5.1l-1.3-5.3
			l-6.6-26.3"/>
		<path id="Rectangle_7" class="st2" d="M169.3,78.1h761.1c13.8,0,25,11.2,25,25v74.8c0,13.8-11.2,25-25,25H169.3
			c-13.8,0-25-11.2-25-25v-74.8C144.3,89.2,155.5,78.1,169.3,78.1z"/>
		<g id="Group_32" transform="translate(165.549 32.462)">
			<path id="Path_79" class="st1" d="M10.9,57.5l-10.5-42C-1.3,8.8,2.8,2,9.4,0.4l0,0c6.7-1.7,13.4,2.4,15.1,9.1l0,0L29.2,28"/>
			<path id="Path_80" class="st1" d="M4.5,32l9.9,39.5c2.4,9.4,11.9,15.1,21.3,12.7l0,0c9.4-2.4,15.1-11.9,12.7-21.3l-4.1-16.4"/>
		</g>
	</g>
</g>
</svg>
