<?xml version="1.0" encoding="utf-8"?>
<!-- Generator: Adobe Illustrator 23.0.0, SVG Export Plug-In . SVG Version: 6.00 Build 0)  -->
<svg preserveAspectRatio="none" version="1.1" id="Component_1_23" xmlns="http://www.w3.org/2000/svg" xmlns:xlink="http://www.w3.org/1999/xlink" x="0px"
	 y="0px" viewBox="0 0 1080.1 1920.4" style="enable-background:new 0 0 1080.1 1920.4;" xml:space="preserve">
<style type="text/css">
	.st0{clip-path:url(#SVGID_2_);}
	.st1{fill:#FFFFFF;}
	.st2{fill:#FDEDF4;}
	.st3{opacity:0.1;}
	.st4{clip-path:url(#SVGID_4_);}
	.st5{fill:none;stroke:#F8E3EE;stroke-width:4;stroke-miterlimit:10;}
</style>
<g>
	<g>
		<defs>
			<rect id="SVGID_1_" x="0.1" y="0.2" width="1080" height="1920"/>
		</defs>
		<clipPath id="SVGID_2_">
			<use xlink:href="#SVGID_1_"  style="overflow:visible;"/>
		</clipPath>
		<g id="Opening1_1_2_" class="st0">
			<rect x="0.1" y="0.2" class="st1" width="1080" height="1920"/>
			<g id="רקע_2_">
				<path id="Path_32_2_" class="st2" d="M0.1,0.2h1080v1920H0.1V0.2z"/>
				<g id="Group_3_2_" transform="translate(-1080 1997.371)" class="st3">
					<g>
					</g>
				</g>
			</g>
		</g>
	</g>
</g>
<g>
	<g>
		<defs>
			<rect id="SVGID_3_" x="0.2" y="0.7" width="1080" height="1920"/>
		</defs>
		<clipPath id="SVGID_4_">
			<use xlink:href="#SVGID_3_"  style="overflow:visible;"/>
		</clipPath>
		<g id="Group_2_2_" class="st4">
			<g id="Group_1_2_">
				<path id="Path_1_2_" class="st5" d="M177.7,1547.5c-30.5-116.7-16-240.1,2-359.4c2.6-17.4,5.6-35.5,15.4-50.2s28.7-24.8,45.4-19
					c20.6,7.1,27.1,32.6,29.9,54.3c18,140.9,9.1,284-26.2,421.6c-3.4,13.3-9.5,28.9-22.9,31.5c-10.8,2.1-21.5-6-26.4-15.9
					s-5.5-21.3-6.7-32.2C187,1567.3,184.8,1555.8,177.7,1547.5"/>
				<path id="Path_2_2_" class="st5" d="M183.8,1713.9c-9-14.1-49.2-127.1-56.5-194.7c-7.3-67.6-5.4-135.9-2.2-203.8
					c4.4-92.3,11.5-185.9,42.9-272.9c8.9-24.8,25-52.7,51.3-53.6c24.1-0.9,42,21.9,52.9,43.5c46.4,92.6,41.9,201.4,36.2,304.8
					c-5.5,100.4-11,201.1-27.9,300.3c-4.3,25.1-10,51.5-27.6,69.9S192.8,1728,183.8,1713.9z"/>
				<path id="Path_3_2_" class="st5" d="M88.6,1361.6c3.4-109.2,10.3-218.6,28.2-326.5c7.7-46.5,17.8-93.6,41.2-134.5
					c12.3-21.6,30.6-42.5,55.2-46.1s48.8,11.8,62.9,32.3c14,20.5,19.9,45.3,25.3,69.6c7.7,34.6,15,69.4,20.3,104.4
					c2.6,17.5,4.6,35.1,6.1,52.8c1.1,13,5.5,25.2,5.7,38.1c1.4,73-4.3,144.6,7.1,217.3c8.4,53.7,23.9,106.7,22.9,161
					c-1,51.5-16.8,101.5-34.4,150c-10.7,29.5-22.1,58.8-33.6,88c-9,23.1-18.6,47-36.4,64.3c-17.8,17.3-46.4,26.2-68,14.1
					c-18.5-10.3-26-31.2-34-49.5c-9.9-22.7-18.4-46.1-26.1-69.6c-16.1-48.8-28.4-98.8-36.8-149.6c-5.5-33.2-11.6-67.7-8.3-101.1
					C89.8,1438.8,87.4,1399.6,88.6,1361.6z"/>
				<path id="Path_4_2_" class="st5" d="M256.6,1934.3c63.4-102.5,128.2-208.6,147.3-327.6c14.5-90.5,1.6-183-11.4-273.7
					c-23.6-165.4-47.3-331.3-89.4-493c-11.2-42.9-29.6-91.8-72.1-104.7c-34.2-10.4-72,8.9-93.7,37.3s-30.8,64.3-38.5,99.2
					c-77.9,351.9-71.5,722.4,20.2,1070.9"/>
				<path id="Path_5_2_" class="st5" d="M360.6,1937.5c125.8-179.5,146.3-414.1,119.2-631.7c-27.1-217.6-96.9-427.5-136.2-643.2
					c-15.2-83.7-25.7-170.7-5-253.2c18.5-73.7,60.7-138.8,92.6-207.8c31.9-68.9,53.9-148.5,29.3-220.4"/>
				<path id="Path_6_2_" class="st5" d="M478.7,1936.9c65.7-142,90.3-300.7,86.1-457c-4.2-156.4-36.3-310.9-80-461
					c-28.4-97.5-61.8-193.9-81-293.6s-23.7-204.4,5.4-301.7c26.1-87,77.5-163.8,117.6-245.3S596.3,3.8,573.9-84.2"/>
				<path id="Path_7_2_" class="st5" d="M1104.1,1602.2c-32.1-91.1-64.5-183.5-73-279.8s9.4-198.5,69.1-274.5"/>
				<path id="Path_8_2_" class="st5" d="M1086.8,1858.1c-151.5-379.2-146.5-818.3,13.7-1194"/>
				<path id="Path_9_2_" class="st5" d="M1040.1,1955c-57.4-176.6-115.3-355.8-124.4-541.3c-8.2-166.9,23.4-332.9,50-497.9
					c50.7-315.2,81.9-646.3-25.8-946.8"/>
				<path id="Path_10_2_" class="st5" d="M1013.1-21c-1.7,111,42.8,222.1,120.7,301.2"/>
				<path id="Path_11_2_" class="st5" d="M655-21.2c-12.3,178.9-70.9,353.5-68.1,532.8c1.8,114,28.3,225.9,47.5,338.2
					c64.6,378.3,45.2,770.8-56.4,1140.8"/>
				<path id="Path_12_2_" class="st5" d="M638.3-11.6c-85,236.3-171.3,482.7-144.5,732.4c16.4,152.6,74.5,297.7,100,449.1
					c45.6,270.5-14.7,546.7-81.2,812.8"/>
				<path id="Path_13_2_" class="st5" d="M665.4,1932.8c-7.1-288.3,198.9-559.6,153-844.3C786,887.8,631.1,714.1,636.6,510.9
					c5.1-190.1,151.6-358.3,142.3-548.3"/>
				<path id="Path_14_2_" class="st5" d="M738.5,1371.6c14.6,6.4,51.6-203.4,20.3-301.7c-2.5-7.9-5.4-16-11.2-22s-15.2-9.2-22.6-5.6
					c-9.4,4.6-11.3,16.9-12,27.4c-4.8,77-5.7,154.1-2.6,231.2C711.6,1329,724,1365.2,738.5,1371.6z"/>
				<path id="Path_15_2_" class="st5" d="M733.5,1931.2c26.5-181.3,75.3-358.5,111.2-538.1c48-240.6,72.7-485.9,74.8-731.3
					c2-239.4-17.4-478.9-56-715.2"/>
				<path id="Path_16_2_" class="st5" d="M777.5,1946.7c14.3-53.5,28.5-107.2,48.9-158.7c9.3-23.5,24.9-50.1,50.2-50.8
					c15.9-0.5,30.5,10.5,38.8,24.2c8.3,13.6,11.5,29.6,14.6,45.3c10.7,54.1,21.5,108.3,32.2,162.4"/>
				<path id="Path_17_2_" class="st5" d="M843.6,1946c0.4-47.3,7.3-94.3,20.6-139.7c2.4-8.1,6.7-17.6,15.1-18.2
					c11.2-0.8,15.6,14.1,16.1,25.2c2.6,57.4,2.3,114.8-0.7,172.3"/>
				<path id="Path_18_2_" class="st5" d="M831.6,228.2c58.4,0.7,19,305.2,28.6,457.9c1.5,23.5,2.8,47.9-6.3,69.6
					c-9.1,21.7-31.8,39.6-54.9,35c-20-4-33.4-22.7-43.3-40.5c-46.5-84-64.6-180.9-51.5-276.1C717.4,379.7,773.2,227.5,831.6,228.2z"
					/>
				<path id="Path_19_2_" class="st5" d="M771.5,678.3c-34.2-71.7-46-152.1-33.9-230.6c2.5-16,6.2-32.3,15.3-45.7
					c9.2-13.4,24.9-23.3,41-21.3c17.7,2.1,31.3,18.1,36.3,35.2s3.1,35.4,1.3,53.2c-6.4,60.3-12.8,120.5-19.2,180.8
					c-0.9,8.7-1.9,17.6-5.7,25.5s-10.9,14.8-19.6,15.7S771.5,678.3,771.5,678.3z"/>
				<path id="Path_20_2_" class="st5" d="M-19.2,1042.7C2.4,930.6,25.9,814.1,95.3,723.5c36.2-47.2,83.3-85,120.3-131.5
					s64.1-107,49.8-164.7c-11.4-46.3-46.9-82.2-79.1-117.5C111.2,227.3,47.3,135-5.5,36.7"/>
				<path id="Path_21_2_" class="st5" d="M73.1-44.7c5.4,56.8,25.5,111.4,52,162s59.4,97.4,92.2,144.1
					c10.3,14.7,21.4,30.1,37.7,37.6c23,10.7,51.1,2.8,70.8-13.2c26.2-21.2,40.1-53.9,50.3-86c24.2-76.5,33.1-156.9,26.3-236.8"/>
			</g>
			<path id="Path_22_2_" class="st5" d="M706.9,702.3c-32.4-84.6-41.5-176.3-26.4-265.6c11.5-66.8,36.2-130.5,60.9-193.7
				c19.1-48.9,38.2-97.8,57.2-146.6c4.4-11.3,10.4-24,22.1-26.9c10-2.5,20.5,3.6,26.3,12.1s7.8,18.9,9.7,29.1
				c47.3,257.7,50.1,521.6,8.5,780.3c-3.4,20.8-11.7,46.2-32.6,48.6c-20.7,2.4-34.6-20.2-42.9-39.4
				C762.1,836.3,706.9,702.3,706.9,702.3z"/>
			<path id="Path_23_2_" class="st5" d="M426.5,1929.6c85.7-207.2,138.3-435.9,96.5-656.3c-21.8-115.1-68.4-223.8-101.1-336.2
				c-37.7-129.9-56.8-264.4-56.6-399.7c0.1-74.4,6.3-149.9,32.5-219.5c21.8-57.8,56.6-109.6,82.9-165.4
				C507.1,96.7,525,33.3,509.9-26.6"/>
			<path id="Path_24_2_" class="st5" d="M-23.9,713.1c19.8-31.4,52.2-52.5,85.4-69.1s68.2-30,98.8-50.8c30.7-20.8,57.4-51,63.6-87.6
				c4.8-28.4-3.3-57.9-18-82.8c-14.6-24.8-35.4-45.5-57.2-64.3C75.2,295.1-14.9,247-66.8,164.9"/>
			<path id="Path_25_2_" class="st5" d="M-35.5,530.8c56.6-1.6,113.6-3.2,168.9-15.3c8.8-1.9,17.6-4.2,25.3-8.8s14.2-11.9,15.8-20.8
				c1.8-10-3-20.3-10.2-27.3c-7.2-7.1-16.7-11.4-26.1-15.1C81,421.3,18,419.9-43.3,422.9"/>
			<path id="Path_26_2_" class="st5" d="M156.5-8.3c2.1,35.1,6.4,70.2,16.6,103.9c10.1,33.6,26.3,65.9,50.2,91.7
				c9.6,10.4,21.1,20.1,35,22.8c14.6,2.8,30.4-2.9,40.5-13.8s14.6-26.6,12.8-41.3c-3-25-22.5-46.5-22-71.7
				c0.8-35.7,41.2-61.5,41-97.3"/>
			<path id="Path_27_2_" class="st5" d="M346.5,47.6c-11.2,8.3-17.8,21.4-17.9,35.3c0,9.8,4.7,20.8,14.2,23.3c7.7,2,16-2.7,20.3-9.5
				c4.2-6.8,5.1-15.1,5-23.1c-0.2-7.5-1.3-15.3-5.7-21.3c-4.4-6.1-12.8-9.7-19.6-6.7"/>
			<path id="Path_28_2_" class="st5" d="M204-4.3c-2.8,17.9-3.7,36.1-2.9,54.2c0.4,9.1,2.1,19.5,9.6,24.6c7.3,4.9,17.6,2.7,24.8-2.6
				c7.1-5.2,12-12.9,17.5-19.8c7.8-9.9,17.1-18.6,23.8-29.2c6.7-10.6,10.6-24.1,6.3-35.9"/>
			<path id="Path_29_2_" class="st5" d="M697.1,918.9c-6.7,17.4-6.1,36.9,1.6,53.9c3.2,7,8.5,14,16.1,15.3c5.8,1,11.8-1.6,15.8-5.9
				c4-4.3,6.3-9.9,7.5-15.7c3-14.1,0.2-28.9-7.6-41c-4.2-6.5-10.4-12.3-18-13.4s-16.4,4.4-16.5,12.2"/>
			<path id="Path_30_2_" class="st5" d="M245.2,623.5c-8.9,8.1-14.8,19.6-15.4,31.6s4.3,24.3,13.6,32c8.7,7.3,20.6,10.2,28.7,18.1
				c5,4.8,8.8,11.6,15.4,13.5c5.2,1.5,11-0.6,15.1-4.3c7.5-6.8,9.6-17.9,8.2-27.9s-5.8-19.3-9.6-28.6c-3.8-9.4-7-19.3-6-29.4
				c0.7-6.9,3.4-14.4,0-20.6s-11.6-8-18.4-6.7c-13.6,2.5-23.5,14-32.3,24.8"/>
			<path id="Path_31_2_" class="st5" d="M853.9,1682.4c-14.1-20.1-17.2-46-8.4-68.9c4.2-10.6,10.9-20.1,14.5-31
				c2.4-7.4,3.6-15.7,9-21.2c6.1-6,15.6-6.9,22.8-2.3c6.3,4.3,9.2,12.2,9.4,19.8c0.2,7.6-2,15-3.9,22.3c-1.9,7.3-3.8,14.9-2.9,22.4
				c1.5,12.8,10.7,23.9,11.8,36.8c0.6,7.3-1.6,15-6.7,20.2c-6,6.1-15.2,8.1-23.7,7s-16.4-4.8-23.8-9"/>
		</g>
		<use xlink:href="#SVGID_3_"  style="overflow:visible;fill:none;stroke:#F8E3EE;stroke-miterlimit:10;"/>
	</g>
</g>
</svg>
