<?xml version="1.0" encoding="utf-8"?>
<!-- Generator: Adobe Illustrator 23.0.0, SVG Export Plug-In . SVG Version: 6.00 Build 0)  -->
<svg version="1.1" id="a1f6e295-37c7-46ce-bb58-8c14555ea3a9"
	 xmlns="http://www.w3.org/2000/svg" xmlns:xlink="http://www.w3.org/1999/xlink" x="0px" y="0px" viewBox="0 0 391.2 97.9"
	 style="enable-background:new 0 0 391.2 97.9;" xml:space="preserve">
<style type="text/css">
	.st0{fill:#FFFFFF;}
	.st1{fill:#3D2768;}
</style>
<title>practice_btn</title>
<path id="b68ee06c-bb1c-4f55-9013-ad3b10c6e414" class="st0" d="M23,0h345.2c12.7,0,23,10.3,23,23v51.9c0,12.7-10.3,23-23,23H23
	c-12.7,0-23-10.3-23-23V23C0,10.3,10.3,0,23,0z"/>
<g id="b3db9b01-c221-465e-9120-f5014212320f">
	<g>
		<path class="st1" d="M124,35c2,2.2,3,5.5,3,10s-1.3,8.2-4,11c-2.7,2.9-6.2,5-10,6l-2.2,0.6c-0.4,0.1-0.8-0.1-1-0.4
			c-0.3-0.3-0.5-0.7-0.5-1.1v-5.4c0-0.4,0.1-0.7,0.4-1c0.3-0.3,0.6-0.6,1-0.7l1.7-0.7c1.5-0.6,2.8-1.5,3.8-2.8
			c1-1.6,1.5-3.5,1.4-5.4c0-2.2-0.4-3.8-1.2-4.7s-2.2-1.3-4.3-1.3h-1.4l-7.1-0.1c-0.4,0-0.7-0.1-1-0.4c-0.3-0.3-0.4-0.6-0.4-1v-12
			c0-0.4,0.1-0.7,0.4-1c0.3-0.2,0.6-0.4,0.9-0.4h5.7c0.4,0,0.7,0.1,1,0.4c0.3,0.3,0.4,0.6,0.4,1v6h3.3C118.7,31.7,122,32.8,124,35z"
			/>
		<path class="st1" d="M132.6,61.6c-0.3-0.2-0.4-0.6-0.4-1V33c0-0.8,0.6-1.4,1.3-1.4c0,0,0,0,0.1,0h6.6c0.4,0,0.7,0.1,1,0.4
			c0.3,0.3,0.4,0.6,0.4,1v27.6c0,0.4-0.1,0.7-0.4,0.9c-0.2,0.3-0.6,0.4-1,0.4h-6.6C133.2,61.9,132.8,61.8,132.6,61.6z"/>
		<path class="st1" d="M168.6,61.5c-0.3,0.3-0.6,0.4-1,0.4H161c-0.4,0-0.7-0.1-0.9-0.4c-0.3-0.3-0.4-0.6-0.4-1l-0.8-3.9
			c-0.9,1.1-1.9,1.9-3.1,2.6c-1.4,0.8-2.7,1.5-3.8,2c-1.2,0.5-2.4,0.9-3.6,1.1l-0.4,0.1c-0.6,0-0.9-0.3-0.9-0.8v-5.7
			c0-0.6,0.4-1,1.1-1.3c0.2-0.1,1.1-0.4,2.4-0.8c1.1-0.3,2.2-0.7,3.3-1.2c1.4-0.7,2.6-1.7,3.5-2.9l-1-4.9c-0.2-1.6-0.8-3.1-1.6-4.5
			c-0.8-0.9-2.1-1.4-3.3-1.3h-1.9c-0.4,0-0.7-0.1-0.9-0.4c-0.3-0.2-0.4-0.6-0.4-0.9v-4.9c0-0.4,0.1-0.7,0.4-1c0.2-0.3,0.6-0.4,1-0.4
			h2c2.5-0.1,4.9,0.4,7.2,1.4c1.8,0.9,3.3,2.4,4.3,4.2c1.3,2.4,2.1,4.9,2.5,7.6l3.2,16.2C169,61.1,168.8,61.4,168.6,61.5z"/>
		<path class="st1" d="M185.2,61.6c-0.3-0.2-0.4-0.6-0.4-1V44.9c0-4-2-6-6-6h-8.1c-0.4,0-0.7-0.1-0.9-0.4c-0.3-0.2-0.4-0.6-0.4-0.9
			V33c0-0.4,0.1-0.7,0.4-1c0.2-0.3,0.6-0.4,0.9-0.4h8.4c4.9,0,8.6,1,11,3s3.6,5.3,3.6,9.9v16c0,0.4-0.1,0.7-0.4,0.9
			c-0.2,0.3-0.6,0.4-1,0.4H186C185.7,61.9,185.4,61.8,185.2,61.6z"/>
		<path class="st1" d="M227.9,34.8c2.5,2.1,3.7,5.4,3.7,9.8v16c0,0.4-0.1,0.7-0.4,0.9c-0.2,0.3-0.6,0.4-1,0.4h-6.3
			c-0.8,0-1.4-0.6-1.4-1.3c0,0,0,0,0-0.1V44.9c0-4-2-6-6-6h-3.4c-0.6,2.6-0.9,5.2-0.8,7.8l0.4,13.9c0,0.4-0.1,0.7-0.4,1
			c-0.3,0.2-0.6,0.4-1,0.4l-11.2-0.1c-0.4,0-0.7-0.1-1-0.4c-0.3-0.2-0.4-0.6-0.4-1v-4.2c0-0.4,0.1-0.7,0.4-1c0.3-0.2,0.6-0.4,1-0.4
			h4.3v-8.3c-0.1-2.6,0.2-5.3,0.8-7.8h-3.1c-0.8,0-1.4-0.6-1.4-1.3c0,0,0,0,0-0.1V33c0-0.8,0.6-1.4,1.3-1.4c0,0,0,0,0.1,0h14.8
			C221.8,31.7,225.4,32.7,227.9,34.8z"/>
	</g>
	<g id="bac18fbc-0a72-4488-833a-a438873ac989">
		<path class="st1" d="M288.8,24.3c-1.2-1.3-2.9-2-4.7-2c-1.8,0-3.5,0.7-4.7,2l-24.9,24.8l0,0c-0.3,0.3-0.5,0.7-0.5,1.1l-2,6.1
			c-0.2,0.8-0.2,1.5,0,2.3c0.3,1,1,1.8,1.9,2.2c0.6,0.3,1.2,0.4,1.8,0.4c0.4,0,0.7-0.1,1.1-0.2l6.4-2l0,0c0.1,0,0.2-0.1,0.3-0.2h0.1
			c0.1-0.1,0.2-0.1,0.3-0.2h0.1l24.8-24.9C291.4,31.1,291.4,26.9,288.8,24.3C288.8,24.3,288.8,24.3,288.8,24.3z M286,30.9
			l-20.4,20.4c-0.3-0.9-0.9-1.7-1.6-2.4c-0.6-0.6-1.4-1.1-2.2-1.4l20.4-20.4c1-1,2.8-1,3.8,0S287.1,29.9,286,30.9L286,30.9z"/>
		<g id="b2b94073-9476-4c8a-90ab-84de3b8a0d88">
			<path class="st1" d="M269.9,75.6c-2.1,0-4.1-0.9-5.6-2.4l-4.5-4c-0.8-0.7-0.8-2-0.1-2.8c0.7-0.8,2-0.8,2.8-0.1l0,0l4.5,4
				c0.9,0.9,2.1,1.4,3.4,1.3c1.3-0.3,2.4-1.1,3-2.3c1.2-2.1,3.3-3.7,5.7-4.2c2.4-0.3,4.7,0.4,6.5,2l4.2,3.6c0.8,0.7,0.9,2,0.2,2.8
				c-0.7,0.8-2,0.9-2.8,0.2l-4.2-3.6c-0.9-0.8-2.1-1.2-3.3-1.1c-1.3,0.3-2.4,1.1-3,2.3c-1.2,2.3-3.4,3.8-5.9,4.2
				C270.6,75.5,270.2,75.6,269.9,75.6z"/>
		</g>
	</g>
</g>
</svg>
