<?xml version="1.0" encoding="utf-8"?>
<!-- Generator: Adobe Illustrator 23.0.0, SVG Export Plug-In . SVG Version: 6.00 Build 0)  -->
<svg version="1.1" id="e5916dfc-9147-4c0d-a122-e7f6e6c1da72"
	 xmlns="http://www.w3.org/2000/svg" xmlns:xlink="http://www.w3.org/1999/xlink" x="0px" y="0px" viewBox="0 0 271.2 97.9"
	 style="enable-background:new 0 0 271.2 97.9;" xml:space="preserve">
<style type="text/css">
	.st0{fill:#3D2768;}
	.st1{fill:#FFFFFF;}
</style>
<title>toTheExam</title>
<path id="b4aeedd6-e16b-4dab-81dd-599fa97a29f6" class="st0" d="M23,0h225.2c12.7,0,23,10.3,23,23v51.9c0,12.7-10.3,23-23,23H23
	c-12.7,0-23-10.3-23-23V23C0,10.3,10.3,0,23,0z"/>
<path class="st1" d="M78.7,66.4c-0.2-0.2-0.3-0.5-0.3-0.8V37.2c0-0.3,0.1-0.6,0.3-0.8c0.2-0.2,0.5-0.3,0.8-0.3h5.2
	c0.6,0,1.1,0.4,1.1,1v0.1v28.4c0,0.6-0.4,1.1-1,1.1h-0.1h-5.2C79.2,66.7,78.9,66.6,78.7,66.4z"/>
<path class="st1" d="M91.3,60.9c-0.2-0.2-0.3-0.5-0.3-0.8V37.2c0-0.3,0.1-0.6,0.3-0.8c0.2-0.2,0.5-0.3,0.8-0.3h10.4
	c4.2,0,7.2,0.9,9.2,2.6c2,1.7,3,4.5,3,8.5v13c0,0.3-0.1,0.6-0.3,0.8c-0.2,0.2-0.5,0.3-0.8,0.3h-5.2c-0.3,0-0.6-0.1-0.8-0.3
	c-0.2-0.2-0.3-0.5-0.3-0.8v-13c0-3.3-1.7-5-5-5h-3.9v18c0,0.3-0.1,0.6-0.3,0.8c-0.2,0.2-0.5,0.3-0.8,0.3h-5.2
	C91.8,61.2,91.6,61.1,91.3,60.9z"/>
<path class="st1" d="M119.2,60.9c-0.2-0.2-0.3-0.5-0.3-0.8v-3.8c0-0.3,0.1-0.6,0.3-0.8c0.2-0.2,0.5-0.3,0.8-0.3h11v-8.1
	c0-3.3-1.7-5-5-5h-5.6c-0.3,0-0.6-0.1-0.8-0.3c-0.2-0.2-0.3-0.5-0.3-0.8v-3.8c0-0.3,0.1-0.6,0.3-0.8c0.2-0.2,0.5-0.3,0.8-0.3h5.9
	c4.1,0,7.2,0.9,9.3,2.6c2.1,1.7,3.1,4.5,3.1,8.4v8.1h1.5c0.6,0,1.1,0.4,1.1,1v0.1v3.8c0,0.3-0.1,0.6-0.3,0.8s-0.5,0.3-0.8,0.3H120
	C119.7,61.2,119.4,61.1,119.2,60.9z"/>
<path class="st1" d="M167.3,38.8c1.9,1.8,2.8,4.5,2.8,8.1v13.3c0,0.3-0.1,0.6-0.3,0.8s-0.5,0.3-0.8,0.3h-12c-0.6,0-1.1-0.5-1.1-1.1
	v-3.8c0-0.3,0.1-0.6,0.3-0.8s0.5-0.3,0.8-0.3h5.7v-8.1c0.1-1.3-0.3-2.5-1.1-3.6c-0.7-0.8-1.8-1.3-2.9-1.3h-3.4L151.6,60
	c0,0.3-0.1,0.6-0.4,0.8c-0.2,0.2-0.5,0.3-0.8,0.3h-5.1c-0.3,0-0.6-0.1-0.8-0.3s-0.3-0.5-0.2-0.8l4.3-17.7h-2.9
	c-0.3,0-0.6-0.1-0.8-0.3s-0.3-0.5-0.3-0.8v-4c0-0.3,0.1-0.6,0.3-0.8s0.5-0.3,0.8-0.3h14.1C162.5,35.9,165.2,36.9,167.3,38.8z"/>
<path class="st1" d="M191.3,38.8c1.7,1.8,2.5,4.6,2.5,8.3c0.1,3.4-1.1,6.6-3.3,9.2c-2.2,2.4-5.1,4.1-8.3,5l-1.8,0.5
	c-0.3,0.1-0.6-0.1-0.8-0.3s-0.4-0.5-0.4-0.9v-4.4c0-0.3,0.1-0.6,0.3-0.8c0.2-0.3,0.5-0.5,0.8-0.6l1.4-0.6c1.3-0.5,2.4-1.3,3.2-2.4
	c0.9-1.3,1.3-2.9,1.2-4.5c0.1-1.4-0.2-2.7-1-3.9c-0.6-0.7-1.8-1.1-3.6-1.1h-1.1h-5.9c-0.6,0-1.1-0.4-1.1-1v-0.1V31.1
	c0-0.3,0.1-0.6,0.3-0.8c0.2-0.2,0.5-0.3,0.8-0.3h4.8c0.6,0,1.1,0.4,1.1,1v0.1v5h2.7C186.9,36.1,189.6,37,191.3,38.8z"/>
</svg>
