<?xml version="1.0" encoding="utf-8"?>
<!-- Generator: Adobe Illustrator 23.0.0, SVG Export Plug-In . SVG Version: 6.00 Build 0)  -->
<svg version="1.1" id="Layer_1" xmlns="http://www.w3.org/2000/svg" xmlns:xlink="http://www.w3.org/1999/xlink" x="0px" y="0px"
	 viewBox="0 0 226 101.7" style="enable-background:new 0 0 226 101.7;" xml:space="preserve">
<style type="text/css">
	.st0{fill:#FFFFFF;stroke:#DADADA;stroke-width:6;stroke-linecap:round;stroke-linejoin:round;}
	.st1{fill:#3D2768;}
</style>
<g>
	<g id="Layer_1-2">
		<g id="a71e8fb0-af52-490d-a0fa-e58658634966">
			<path id="bd135bf9-7583-46f7-8fcd-0952d51119a3" class="st0" d="M26,3h174c12.7,0,23,10.3,23,23v49.7c0,12.7-10.3,23-23,23H26
				c-12.7,0-23-10.3-23-23V26C3,13.3,13.3,3,26,3z"/>
		</g>
		<path class="st1" d="M47.1,61.3c-0.2-0.2-0.3-0.4-0.3-0.7v-3.3c0-0.3,0.1-0.5,0.3-0.7c0.2-0.2,0.4-0.3,0.7-0.3h9.5v-7
			c0-2.9-1.4-4.3-4.3-4.3h-4.9c-0.3,0-0.5-0.1-0.7-0.3c-0.2-0.2-0.3-0.4-0.3-0.7v-3.3c0-0.3,0.1-0.5,0.3-0.7
			c0.2-0.2,0.4-0.3,0.7-0.3h5c3.5,0,6.2,0.7,8,2.2c1.8,1.5,2.7,3.9,2.7,7.2v7h1.3c0.5-0.1,0.9,0.3,1,0.8c0,0,0,0.1,0,0.1v3.3
			c0,0.2-0.1,0.5-0.3,0.7c-0.2,0.2-0.4,0.3-0.7,0.3H47.7C47.5,61.6,47.3,61.5,47.1,61.3z"/>
		<path class="st1" d="M69.7,61.3c-0.2-0.2-0.3-0.4-0.3-0.7V40.9c0-0.3,0.1-0.5,0.3-0.7c0.2-0.2,0.4-0.3,0.7-0.3h4.7
			c0.3,0,0.5,0.1,0.7,0.3c0.2,0.2,0.3,0.4,0.3,0.7v19.8c0,0.2-0.1,0.5-0.3,0.7c-0.2,0.2-0.4,0.3-0.7,0.3h-4.7
			C70.1,61.6,69.9,61.5,69.7,61.3z"/>
		<path class="st1" d="M104.9,40.2c0.2,0.2,0.3,0.4,0.3,0.7v9.9c0,2.1-0.5,4.1-1.5,5.9c-1,1.7-2.4,3-4.1,3.9
			c-1.8,0.9-3.8,1.4-5.8,1.3h-3.6c-1.8,0-3.7-0.4-5.3-1.2c-1.4-0.7-2.6-1.8-3.5-3.2c-0.8-1.3-1.2-2.9-1.2-4.4V40.9
			c0-0.3,0.1-0.5,0.3-0.7c0.2-0.2,0.4-0.3,0.7-0.3h4c0.5,0,0.9,0.4,0.9,0.9c0,0,0,0.1,0,0.1v9.1c1.2,0,2.3-0.6,2.9-1.6
			c0.6-1.2,0.9-2.6,0.8-4V41c0-0.3,0.1-0.5,0.3-0.7c0.2-0.2,0.4-0.3,0.7-0.3h3.9c0.3,0,0.5,0.1,0.7,0.3c0.2,0.2,0.3,0.5,0.3,0.7v3.6
			c0.1,2.5-0.7,4.9-2.2,6.8c-1.7,1.7-3.9,2.8-6.3,2.9c0.4,0.8,1.1,1.4,1.9,1.9c0.8,0.4,1.7,0.7,2.6,0.6h0.9c1.2,0,2.4-0.3,3.5-0.8
			c1-0.5,1.8-1.3,2.4-2.2c0.6-0.9,0.9-2,0.9-3.2v-9.7c0-0.5,0.3-1,0.8-1c0.1,0,0.1,0,0.2,0h4C104.5,39.9,104.8,40.1,104.9,40.2z"/>
		<path class="st1" d="M131.3,61.3c-0.2-0.2-0.3-0.4-0.3-0.7V49.5c0-2.9-1.4-4.3-4.3-4.3h-8.6c-0.3,0-0.5-0.1-0.7-0.3
			c-0.2-0.2-0.3-0.4-0.3-0.7v-3.3c0-0.3,0.1-0.5,0.3-0.7c0.2-0.2,0.4-0.3,0.7-0.3h8.8c3.5,0,6.1,0.8,7.9,2.3c1.8,1.5,2.6,4,2.6,7.2
			v11.2c0,0.3-0.1,0.5-0.3,0.7c-0.2,0.2-0.4,0.3-0.7,0.3h-4.5C131.7,61.6,131.4,61.5,131.3,61.3z M117.4,61.3
			c-0.2-0.2-0.3-0.4-0.3-0.7V49.6c0-0.3,0.1-0.5,0.3-0.7c0.2-0.2,0.4-0.3,0.7-0.3h4.5c0.5,0,1,0.3,1,0.8c0,0.1,0,0.1,0,0.2v11
			c0,0.2-0.1,0.5-0.3,0.7c-0.2,0.2-0.4,0.3-0.7,0.3h-4.5C117.8,61.6,117.6,61.5,117.4,61.3z"/>
		<path class="st1" d="M144,59.5c-1.8-1.9-2.7-4.4-2.6-7V40.9c0-0.3,0.1-0.5,0.3-0.7c0.2-0.2,0.4-0.3,0.7-0.3h9.7
			c3.6,0,6.2,0.8,7.8,2.3s2.5,3.8,2.6,6.8c0,0.3,0,0.8,0,1.8s0,1.6,0,1.8c-0.2,3-1.1,5.3-2.7,6.9s-4.3,2.4-8.1,2.4
			C148.3,62,145.7,61.2,144,59.5z M155.3,55.6c0.8-0.9,1.1-2,1.1-3.1c0-0.3,0-0.8,0-1.6s0-1.3,0-1.6c0-1.2-0.4-2.3-1.1-3.2
			c-0.9-0.8-2.1-1.1-3.3-1h-4.6v7.2c-0.1,1.2,0.3,2.3,1.1,3.2c0.9,0.7,2.1,1.1,3.3,1C152.9,56.7,154.2,56.4,155.3,55.6L155.3,55.6z"
			/>
		<path class="st1" d="M179,61.3c-0.2,0.2-0.4,0.3-0.7,0.3h-12.2c-0.3,0-0.5-0.1-0.7-0.3c-0.2-0.2-0.3-0.4-0.3-0.7v-3.3
			c0-0.3,0.1-0.5,0.3-0.7c0.2-0.2,0.4-0.3,0.7-0.3h6.3L172,49c0-1.1-0.2-2.2-0.8-3.2c-0.6-0.7-1.4-1.1-2.4-1H167
			c-0.5,0-0.9-0.4-0.9-0.9v-3.2c0-0.3,0.1-0.5,0.3-0.7c0.2-0.2,0.4-0.3,0.7-0.3h2c3.3,0,5.7,0.7,7.2,2.2c1.5,1.5,2.3,3.9,2.4,7.2
			l0.5,11.6C179.2,60.9,179.2,61.1,179,61.3z"/>
	</g>
</g>
</svg>
