<?xml version="1.0" encoding="utf-8"?>
<!-- Generator: Adobe Illustrator 23.0.0, SVG Export Plug-In . SVG Version: 6.00 Build 0)  -->
<svg version="1.1" id="bbe78e51-4fb8-451f-9bcf-8f850b0e7349"
	 xmlns="http://www.w3.org/2000/svg" xmlns:xlink="http://www.w3.org/1999/xlink" x="0px" y="0px" viewBox="0 0 226 101.7"
	 style="enable-background:new 0 0 226 101.7;" xml:space="preserve">
<style type="text/css">
	.st0{fill:#FFFFFF;stroke:#DBDBDB;stroke-width:6;stroke-linecap:round;stroke-linejoin:round;}
	.st1{fill:#3D2768;}
</style>
<title>exit</title>
<g id="a71e8fb0-af52-490d-a0fa-e58658634966">
	<path id="bd135bf9-7583-46f7-8fcd-0952d51119a3" class="st0" d="M26,3h174c12.7,0,23,10.3,23,23v49.7c0,12.7-10.3,23-23,23H26
		c-12.7,0-23-10.3-23-23V26C3,13.3,13.3,3,26,3z"/>
</g>
<path class="st1" d="M77.5,61.9c-0.2-0.2-0.3-0.4-0.3-0.7v-11c0-2.8-1.4-4.2-4.2-4.2h-5.6c-0.5,0-0.9-0.4-0.9-0.9v-3.2
	c0-0.3,0.1-0.5,0.3-0.7c0.2-0.2,0.4-0.3,0.6-0.3h5.8c3.4,0,6,0.7,7.7,2.1c1.7,1.4,2.5,3.7,2.5,6.9v11.2c0,0.2-0.1,0.5-0.3,0.6
	c-0.2,0.2-0.4,0.3-0.7,0.3h-4.4C77.9,62.1,77.7,62,77.5,61.9z"/>
<path class="st1" d="M107.4,61.3c0,0.2-0.1,0.4-0.2,0.5c-0.1,0.2-0.3,0.2-0.6,0.2h-4.6c-0.4,0-0.7-0.1-1-0.4
	c-0.2-0.2-0.3-0.4-0.3-0.4L94.3,52c-0.6,0.5-1,1.2-1.3,2c-0.2,0.8-0.3,1.6-0.3,2.4v4.6c0,0.3-0.1,0.5-0.3,0.7
	c-0.2,0.2-0.4,0.3-0.7,0.3h-3.6c-0.2,0-0.5-0.1-0.6-0.3c-0.2-0.2-0.3-0.4-0.3-0.7v-4.6c-0.1-1.7,0.2-3.5,0.9-5.1
	c0.7-1.5,1.8-2.8,3.2-3.7l-3.8-5.4c-0.1-0.1-0.2-0.3-0.2-0.5c0-0.4,0.4-0.8,0.8-0.8h4.4c0.3,0,0.6,0.1,0.8,0.2
	c0.2,0.2,0.4,0.4,0.5,0.6l6,8.4c0.6-0.4,1.1-1,1.3-1.6c0.2-0.7,0.3-1.4,0.3-2.1V42c0-0.3,0.1-0.5,0.3-0.7c0.2-0.2,0.4-0.3,0.7-0.3
	h3.9c0.3,0,0.5,0.1,0.7,0.3c0.2,0.2,0.3,0.4,0.3,0.7v4.7c0,1.5-0.3,3-0.9,4.3c-0.8,1.5-2,2.7-3.4,3.5l4.5,6.4
	C107.4,61,107.4,61.2,107.4,61.3z"/>
<path class="st1" d="M135.1,41.3c0.2,0.2,0.3,0.4,0.3,0.7v9.7c0,2-0.5,4-1.5,5.7c-1,1.6-2.4,2.9-4,3.8c-1.7,0.9-3.7,1.3-5.7,1.3
	h-3.6c-1.8,0-3.6-0.4-5.2-1.1c-1.4-0.7-2.6-1.8-3.4-3.1c-0.8-1.3-1.2-2.8-1.2-4.3V41.9c0-0.3,0.1-0.5,0.3-0.7
	c0.2-0.2,0.4-0.3,0.7-0.3h3.9c0.5,0,0.9,0.4,0.9,0.8c0,0,0,0.1,0,0.1l0,8.9c1.1,0,2.2-0.6,2.8-1.5c0.6-1.2,0.9-2.5,0.8-3.9V42
	c0-0.3,0.1-0.5,0.3-0.7c0.2-0.2,0.4-0.3,0.7-0.3h3.8c0.2,0,0.5,0.1,0.6,0.3c0.2,0.2,0.3,0.4,0.3,0.7v3.5c0.1,2.4-0.6,4.8-2.2,6.7
	c-1.6,1.7-3.8,2.7-6.2,2.8c0.4,0.8,1.1,1.4,1.9,1.8c0.8,0.4,1.7,0.6,2.6,0.6h0.9c1.2,0,2.3-0.2,3.4-0.8c1-0.5,1.8-1.2,2.4-2.1
	c0.6-0.9,0.9-2,0.9-3.1v-9.5c0-0.5,0.4-0.9,0.8-0.9c0,0,0.1,0,0.1,0h3.9C134.7,41,134.9,41.1,135.1,41.3z"/>
<path class="st1" d="M153,61.9c-0.2-0.2-0.3-0.4-0.3-0.7v-11c0-2.8-1.4-4.2-4.2-4.2h-8.4c-0.3,0-0.5-0.1-0.7-0.3
	c-0.2-0.2-0.3-0.4-0.3-0.7v-3.2c0-0.3,0.1-0.5,0.3-0.7c0.2-0.2,0.4-0.3,0.7-0.3h8.6c3.4,0,6,0.8,7.7,2.3c1.7,1.5,2.6,3.8,2.6,7v10.9
	c0,0.3-0.1,0.5-0.3,0.7c-0.2,0.2-0.4,0.3-0.7,0.3h-4.4C153.5,62.1,153.2,62,153,61.9z M139.5,61.9c-0.2-0.2-0.3-0.4-0.3-0.7V50.4
	c0-0.3,0.1-0.5,0.3-0.7c0.2-0.2,0.4-0.3,0.7-0.3h4.4c0.5,0,0.9,0.4,0.9,0.8c0,0,0,0.1,0,0.1v10.8c0,0.2-0.1,0.5-0.3,0.6
	c-0.2,0.2-0.4,0.3-0.7,0.3h-4.4C139.9,62.1,139.7,62,139.5,61.9z"/>
</svg>
