<?xml version="1.0" encoding="utf-8"?>
<!-- Generator: Adobe Illustrator 23.0.0, SVG Export Plug-In . SVG Version: 6.00 Build 0)  -->
<svg version="1.1" id="Layer_1" xmlns="http://www.w3.org/2000/svg" xmlns:xlink="http://www.w3.org/1999/xlink" x="0px" y="0px"
	 viewBox="0 0 940.7 885.9" style="enable-background:new 0 0 940.7 885.9;" xml:space="preserve">
<style type="text/css">
	.st0{fill:#3D2768;}
	.st1{fill:none;stroke:#454354;stroke-width:4;stroke-miterlimit:10;}
	.st2{fill:none;stroke:#454354;stroke-width:4;stroke-linecap:round;stroke-linejoin:round;}
	.st3{fill:#FFFFFF;}
	.st4{fill:#9B6BAE;}
	.st5{opacity:0.1;fill:none;stroke:#EF4230;stroke-width:5;stroke-miterlimit:10;enable-background:new    ;}
	.st6{opacity:0.1;fill:none;stroke:#8F9ACC;stroke-width:5;stroke-miterlimit:10;enable-background:new    ;}
	.st7{opacity:0.15;fill:#FDEDF4;enable-background:new    ;}
	.st8{fill:none;stroke:#454354;stroke-width:4;stroke-linecap:round;stroke-miterlimit:10;}
	.st9{opacity:0.2;fill:#FDEDF4;enable-background:new    ;}
</style>
<g id="Group_10">
	<g id="Group_6">
		<path id="Path_33" class="st0" d="M782.7,727.8l146.6-67.6c6.3-2.9,11.5-12,11.5-20.3V320.1c-0.7-15.4-14.3-24.1-23-19.3
			l-135.1,77.3c-6.3,2.9-11.5,12-11.5,20.3L761,709.7C761,718.5,775.2,731.1,782.7,727.8z"/>
		<line id="Line_2" class="st1" x1="892.8" y1="308.8" x2="890.1" y2="323.8"/>
		<path id="Path_34" class="st2" d="M889.6,322.3l-0.6,3.5c-0.4,2.5,0.6,4.3,2.4,4.1l0,0c1.7-0.2,3.5-2.4,3.9-4.9l0.6-3.5L899,304"
			/>
		<path id="Path_35" class="st3" d="M772.5,717.6L919.1,650c6.3-2.9,11.5-12,11.5-20.3V309.9c0-8.3-5.1-12.6-11.5-9.7l-146.6,67.6
			c-6.3,2.9-11.5,12-11.5,20.3v319.8C761,716.2,766.1,720.5,772.5,717.6z"/>
		<path id="Path_36" class="st4" d="M919,650L919,650c6.3-2.9,11.5-12,11.5-20.3V309.9c0-8.3-5.1-12.6-11.5-9.7l0,0V650z"/>
		<g id="Group_4">
			<line id="Line_3" class="st5" x1="919" y1="324" x2="761" y2="396.9"/>
			<line id="Line_4" class="st6" x1="919" y1="351.3" x2="761" y2="424.2"/>
			<line id="Line_5" class="st6" x1="919" y1="378.7" x2="761" y2="451.6"/>
			<line id="Line_6" class="st6" x1="919" y1="406" x2="761" y2="479"/>
			<line id="Line_7" class="st6" x1="919" y1="433.4" x2="761" y2="506.3"/>
			<line id="Line_8" class="st6" x1="919" y1="460.8" x2="761" y2="533.7"/>
			<line id="Line_9" class="st6" x1="919" y1="488.1" x2="761" y2="561"/>
			<line id="Line_10" class="st6" x1="919" y1="515.5" x2="761" y2="588.4"/>
			<line id="Line_11" class="st6" x1="919" y1="542.8" x2="761" y2="615.8"/>
			<line id="Line_12" class="st6" x1="919" y1="570.2" x2="761" y2="643.1"/>
			<line id="Line_13" class="st6" x1="919" y1="597.6" x2="761" y2="670.5"/>
			<line id="Line_14" class="st6" x1="919" y1="624.9" x2="761" y2="697.8"/>
		</g>
		<g id="Group_5">
			<path id="Path_38" class="st1" d="M901.3,322.9l4.9-28c0.8-4.4-1.1-7.7-4.2-7.3l0,0c-3.1,0.4-6.3,4.4-7.1,8.8l-2.2,12.3"/>
			<path id="Path_39" class="st2" d="M904.3,305.9l-4.6,26.3c-1.1,6.2-5.6,11.8-10,12.4l0,0c-4.4,0.6-7.1-4-6-10.2l2.8-15.8"/>
		</g>
	</g>
	<g id="Group_9">
		<path id="Path_40" class="st0" d="M158.1,583.9L11.5,516.3C5.2,513.4,0,504.3,0,496V176.2c0-10.9,13.2-24.9,23-19.3l135.1,77.3
			c6.3,2.9,11.5,12,11.5,20.3l5.8,314.9C175.4,577.6,165.6,587.2,158.1,583.9z"/>
		<line id="Line_15" class="st2" x1="48" y1="164.9" x2="50.7" y2="179.9"/>
		<path id="Path_41" class="st2" d="M51.2,178.4l0.6,3.5c0.4,2.5-0.6,4.3-2.4,4.1l0,0c-1.7-0.2-3.5-2.4-3.9-4.9l-0.6-3.5l-3.1-17.5"
			/>
		<path id="Path_42" class="st3" d="M168.3,573.7L21.7,506.1c-6.3-2.9-11.5-12-11.5-20.3V166c0-8.3,5.1-12.6,11.5-9.7L168.3,224
			c6.3,2.9,11.5,12,11.5,20.3V564C179.8,572.3,174.7,576.6,168.3,573.7z"/>
		<path id="Path_43" class="st4" d="M21.8,506.1L21.8,506.1c-6.3-2.9-11.5-12-11.5-20.3V166c0-8.3,5.1-12.6,11.5-9.7l0,0V506.1z"/>
		<g id="Group_7">
			<line id="Line_16" class="st5" x1="21.8" y1="180.1" x2="179.8" y2="253"/>
			<line id="Line_17" class="st6" x1="21.8" y1="207.4" x2="179.8" y2="280.4"/>
			<line id="Line_18" class="st6" x1="21.8" y1="234.8" x2="179.8" y2="307.7"/>
			<line id="Line_19" class="st6" x1="21.8" y1="262.2" x2="179.8" y2="335.1"/>
			<line id="Line_20" class="st6" x1="21.8" y1="289.5" x2="179.8" y2="362.4"/>
			<line id="Line_21" class="st6" x1="21.8" y1="316.9" x2="179.8" y2="389.8"/>
			<line id="Line_22" class="st6" x1="21.8" y1="344.2" x2="179.8" y2="417.2"/>
			<line id="Line_23" class="st6" x1="21.8" y1="371.6" x2="179.8" y2="444.5"/>
			<line id="Line_24" class="st6" x1="21.8" y1="399" x2="179.8" y2="471.9"/>
			<line id="Line_25" class="st6" x1="21.8" y1="426.3" x2="179.8" y2="499.2"/>
			<line id="Line_26" class="st6" x1="21.8" y1="453.7" x2="179.8" y2="526.6"/>
			<line id="Line_27" class="st6" x1="21.8" y1="481" x2="179.8" y2="554"/>
		</g>
		<g id="Group_8">
			<path id="Path_45" class="st2" d="M39.5,179l-4.9-28c-0.8-4.4,1.1-7.7,4.2-7.3l0,0c3.1,0.4,6.3,4.4,7.1,8.8l2.2,12.3"/>
			<path id="Path_46" class="st2" d="M36.5,162.1l4.6,26.3c1.1,6.2,5.6,11.8,10,12.4l0,0c4.4,0.6,7.1-4,6-10.2l-2.8-15.8"/>
		</g>
	</g>
</g>
<g id="Group_17">
	<g id="Group_13">
		<path id="Path_47" class="st0" d="M606.8,485.6l205.1-37c8.9-1.6,16.1-10.9,16.1-20.8V46.3c0-12.9-13.7-27.1-25.9-24.1L606.8,68.4
			c-8.9,1.6-16.1,10.9-16.1,20.8L582,462.5C582,472.4,596.3,487.3,606.8,485.6z"/>
		<path id="Path_48" class="st7" d="M609.6,497.1l210.2-38c9.1-1.6,16.5-11.2,16.5-21.3V47c0-13.3-14-27.8-26.5-24.7L609.6,69.6
			c-9.1,1.6-16.5,11.2-16.5,21.3l-9,382.6C584.2,483.5,598.9,498.8,609.6,497.1z"/>
		<line id="Line_28" class="st1" x1="766.5" y1="24.5" x2="762.8" y2="41.6"/>
		<path id="Path_49" class="st8" d="M762,39.6l-0.9,4c-0.6,2.8,0.9,5.3,3.3,5.5l0,0c2.4,0.2,4.9-1.9,5.5-4.7l0.9-4l4.3-20"/>
		<path id="Path_50" class="st3" d="M598.1,476.3l205.1-37c8.9-1.6,16.1-10.9,16.1-20.8V37c0-9.9-7.2-16.6-16.1-15L598.1,59
			c-8.9,1.6-16.1,10.9-16.1,20.8v381.5C582,471.2,589.2,477.9,598.1,476.3z"/>
		<path id="Path_51" class="st4" d="M803.2,439.3L803.2,439.3c8.9-1.6,16.1-10.9,16.1-20.8V37c0-9.9-7.2-16.6-16.1-15l0,0V439.3z"/>
		<g id="Group_11">
			<line id="Line_29" class="st5" x1="803.2" y1="50.4" x2="582" y2="90.3"/>
			<line id="Line_30" class="st6" x1="803.2" y1="83" x2="582" y2="123"/>
			<line id="Line_31" class="st6" x1="803.2" y1="115.7" x2="582" y2="155.6"/>
			<line id="Line_32" class="st6" x1="803.2" y1="148.3" x2="582" y2="188.3"/>
			<line id="Line_33" class="st6" x1="803.2" y1="180.9" x2="582" y2="220.9"/>
			<line id="Line_34" class="st6" x1="803.2" y1="213.6" x2="582" y2="253.5"/>
			<line id="Line_35" class="st6" x1="803.2" y1="246.2" x2="582" y2="286.2"/>
			<line id="Line_36" class="st6" x1="803.2" y1="278.9" x2="582" y2="318.8"/>
			<line id="Line_37" class="st6" x1="803.2" y1="311.5" x2="582" y2="351.4"/>
			<line id="Line_38" class="st6" x1="803.2" y1="344.1" x2="582" y2="384.1"/>
			<line id="Line_39" class="st6" x1="803.2" y1="376.8" x2="582" y2="416.7"/>
			<line id="Line_40" class="st6" x1="803.2" y1="409.4" x2="582" y2="449.3"/>
		</g>
		<g id="Group_12">
			<path id="Path_53" class="st1" d="M778.4,43.9l6.9-31.9c1.1-5.1-1.6-9.5-5.9-9.9l0,0c-4.4-0.4-8.8,3.3-9.9,8.4l-3,14.1"/>
			<path id="Path_54" class="st8" d="M782.6,24.5l-6.5,30c-1.5,7.1-7.8,12.4-13.9,11.8l0,0c-6.2-0.6-9.9-6.9-8.4-14l3.9-18"/>
		</g>
	</g>
	<g id="Group_16">
		<path id="Path_55" class="st0" d="M323.7,885.8l-205.1-37c-8.9-1.6-16.1-10.9-16.1-20.8V446.6c0-13,13.7-27.1,25.9-24.1
			l195.3,46.2c8.9,1.6,16.1,10.9,16.1,20.8l8.7,373.3C348.5,872.6,334.2,887.5,323.7,885.8z"/>
		<path id="Path_56" class="st7" d="M321.3,885.8l-209.8-37.9c-9.1-1.6-16.4-11.1-16.4-21.2V436.5c0-13.2,14-27.8,26.5-24.6
			l199.8,47.2c9.1,1.6,16.4,11.1,16.4,21.2l8.9,381.9C346.7,872.3,332,887.6,321.3,885.8z"/>
		<line id="Line_41" class="st1" x1="164" y1="424.7" x2="167.7" y2="441.8"/>
		<path id="Path_57" class="st2" d="M168.5,439.9l0.9,4c0.6,2.8-0.9,5.3-3.3,5.5l0,0c-2.4,0.2-4.9-1.9-5.5-4.7l-0.9-4l-4.3-20"/>
		<path id="Path_58" class="st3" d="M332.4,876.5l-205.1-37c-8.9-1.6-16.1-10.9-16.1-20.8V437.2c0-9.9,7.2-16.6,16.1-15l205.1,37
			c8.9,1.6,16.1,10.9,16.1,20.8v381.5C348.5,871.4,341.3,878.1,332.4,876.5z"/>
		<path id="Path_59" class="st4" d="M127.3,839.5L127.3,839.5c-8.9-1.6-16.1-10.9-16.1-20.8V437.2c0-9.9,7.2-16.6,16.1-15l0,0V839.5
			z"/>
		<g id="Group_14">
			<line id="Line_42" class="st5" x1="127.3" y1="450.6" x2="348.5" y2="490.6"/>
			<line id="Line_43" class="st6" x1="127.3" y1="483.3" x2="348.5" y2="523.2"/>
			<line id="Line_44" class="st6" x1="127.3" y1="515.9" x2="348.5" y2="555.8"/>
			<line id="Line_45" class="st6" x1="127.3" y1="548.5" x2="348.5" y2="588.5"/>
			<line id="Line_46" class="st6" x1="127.3" y1="581.2" x2="348.5" y2="621.1"/>
			<line id="Line_47" class="st6" x1="127.3" y1="613.8" x2="348.5" y2="653.7"/>
			<line id="Line_48" class="st6" x1="127.3" y1="646.4" x2="348.5" y2="686.4"/>
			<line id="Line_49" class="st6" x1="127.3" y1="679.1" x2="348.5" y2="719"/>
			<line id="Line_50" class="st6" x1="127.3" y1="711.7" x2="348.5" y2="751.6"/>
			<line id="Line_51" class="st6" x1="127.3" y1="744.3" x2="348.5" y2="784.3"/>
			<line id="Line_52" class="st6" x1="127.3" y1="777" x2="348.5" y2="816.9"/>
			<line id="Line_53" class="st6" x1="127.3" y1="809.6" x2="348.5" y2="849.6"/>
		</g>
		<g id="Group_15">
			<path id="Path_61" class="st2" d="M152,444.1l-6.9-31.9c-1.1-5.1,1.6-9.5,5.9-9.9l0,0c4.4-0.4,8.8,3.3,9.9,8.4l3,14.1"/>
			<path id="Path_62" class="st2" d="M147.9,424.8l6.5,30c1.5,7.1,7.8,12.4,13.9,11.8l0,0c6.2-0.6,9.9-6.9,8.4-14l-3.9-18"/>
		</g>
	</g>
</g>
<g id="Group_20">
	<path id="Rectangle_3" class="st9" d="M308.4,90.3h324c8.3,0,15,6.7,15,15v517.1c0,8.3-6.7,15-15,15h-324c-8.3,0-15-6.7-15-15
		V105.3C293.4,97,300.1,90.3,308.4,90.3z"/>
	<path id="Rectangle_4" class="st0" d="M323.2,110.3h294.5c8.3,0,15,6.7,15,15v486c0,8.3-6.7,15-15,15H323.2c-8.3,0-15-6.7-15-15
		v-486C308.2,117,314.9,110.3,323.2,110.3z"/>
	<line id="Line_54" class="st1" x1="379.9" y1="93.3" x2="385" y2="113.6"/>
	<path id="Path_63" class="st2" d="M386,111l1.2,4.8c0.8,3.4-1.2,6.8-4.6,7.6l0,0l0,0c-3.4,0.8-6.8-1.2-7.6-4.6l-1.2-4.8l-5.9-23.7"
		/>
	<path id="Rectangle_5" class="st3" d="M322.3,98.5h296.2c8.3,0,15,6.7,15,15v486c0,8.3-6.7,15-15,15H322.3c-8.3,0-15-6.7-15-15
		v-486C307.3,105.2,314,98.5,322.3,98.5z"/>
	<path id="Rectangle_6" class="st4" d="M322.3,98.5h7.1l0,0v516l0,0h-7.1c-8.3,0-15-6.7-15-15v-486C307.3,105.2,314,98.5,322.3,98.5
		z"/>
	<g id="Group_18">
		<line id="Line_55" class="st5" x1="329.4" y1="133.5" x2="633.5" y2="133.5"/>
		<line id="Line_56" class="st6" x1="329.4" y1="173.9" x2="633.5" y2="173.9"/>
		<line id="Line_57" class="st6" x1="329.4" y1="214.3" x2="633.5" y2="214.3"/>
		<line id="Line_58" class="st6" x1="329.4" y1="254.6" x2="633.5" y2="254.6"/>
		<line id="Line_59" class="st6" x1="329.4" y1="295" x2="633.5" y2="295"/>
		<line id="Line_60" class="st6" x1="329.4" y1="335.4" x2="633.5" y2="335.4"/>
		<line id="Line_61" class="st6" x1="329.4" y1="375.7" x2="633.5" y2="375.7"/>
		<line id="Line_62" class="st6" x1="329.4" y1="416.1" x2="633.5" y2="416.1"/>
		<line id="Line_63" class="st6" x1="329.4" y1="456.5" x2="633.5" y2="456.5"/>
		<line id="Line_64" class="st6" x1="329.4" y1="496.8" x2="633.5" y2="496.8"/>
		<line id="Line_65" class="st6" x1="329.4" y1="537.2" x2="633.5" y2="537.2"/>
		<line id="Line_66" class="st6" x1="329.4" y1="577.6" x2="633.5" y2="577.6"/>
	</g>
	<g id="Group_19">
		<path id="Path_65" class="st2" d="M363.4,119.9L353.9,82c-1.5-6,2.1-12.1,8.2-13.6l0,0l0,0c6-1.5,12.1,2.2,13.6,8.2l4.2,16.7"/>
		<path id="Path_66" class="st2" d="M357.7,96.9l8.9,35.6c2.1,8.5,10.7,13.6,19.2,11.5l0,0c8.5-2.1,13.6-10.7,11.5-19.2l-5.4-21.4"
			/>
	</g>
</g>
</svg>
