<?xml version="1.0" encoding="utf-8"?>
<!-- Generator: Adobe Illustrator 23.0.0, SVG Export Plug-In . SVG Version: 6.00 Build 0)  -->
<svg version="1.1" id="Layer_1" xmlns="http://www.w3.org/2000/svg" xmlns:xlink="http://www.w3.org/1999/xlink" x="0px" y="0px"
	 viewBox="0 0 181.4 124.8" style="enable-background:new 0 0 181.4 124.8;" xml:space="preserve">
<style type="text/css">
	.st0{fill:#FFFFFF;}
	.st1{fill:#3D2768;}
</style>
<g id="Group_415" transform="translate(-447.167 -124.527)">
	<g id="Group_33" transform="translate(-9.095 46.473)">
		<path id="Rectangle_7" class="st0" d="M481.3,78.1h131.4c13.8,0,25,11.2,25,25v74.8c0,13.8-11.2,25-25,25H481.3
			c-13.8,0-25-11.2-25-25v-74.8C456.3,89.2,467.5,78.1,481.3,78.1z"/>
		<g id="Group_416" transform="translate(-2326.773 83.24)">
			<path id="Path_6" class="st1" d="M2812,68.9c0.3-1.4,0.5-2.7,0.8-4.1c0.8-3.1,2.3-6,4.4-8.4c3.3-3.9,7.6-6.7,12.5-8.2
				c0.4-0.2,0.8-0.1,1.1,0.3c2.5,2.6,5,5.2,7.5,7.8c2.8,2.9,5.9,5.5,9.3,7.7c3,1.9,6.2,3.4,9.5,4.5c0.1-0.4,0.2-0.8,0.3-1.3
				c1.5-7.5,8.7-12.4,16.2-10.9c2.3,0.4,4.4,1.5,6.2,2.9c2.7,2.2,4.6,5.3,5.2,8.8c0,0.1,0.1,0.1,0.1,0.2c3-1.1,5.8-2.4,8.5-4
				c2.9-1.8,5.5-3.9,7.9-6.3c3.6-3.6,7.2-7.2,10.7-10.9c3.2-3.3,6.3-6.6,9.5-9.9c2.6-2.7,5.2-5.4,7.7-8.1c0.1-0.1,0.3-0.3,0.5-0.6
				l-1.9-0.6c2.2-0.7,4.3-1.4,6.3-2c0.5-0.2,1-0.3,1.5-0.4c0,0.1,0,0.2,0,0.3c-0.4,2-0.9,4.1-1.3,6.1c-0.1,0.5-0.2,0.9-0.4,1.5
				l-0.7-1.7l-16.9,18.2c0.2,0.1,0.4,0.2,0.6,0.3c2.9,1.5,5.5,3.6,7.7,6.1c3,3.4,4.8,7.6,5.3,12.1c0.4,3.3,0.1,6.5-0.8,9.7
				c-1.4,4.8-4.4,9-8.5,11.9c-3.3,2.5-7.3,4-11.4,4.5c-0.6,0.1-1.3,0.2-1.9,0.3h-2.4c-0.2,0-0.4-0.1-0.6-0.1
				c-1.2-0.2-2.4-0.3-3.5-0.5c-5.2-1.1-9.9-4-13.4-8c-2.4-2.8-4.1-6.2-4.8-9.8c-0.2-0.8-0.3-1.5-0.4-2.3c-7.3,1.9-15,2-22.3,0.1
				c0,0.3,0,0.6-0.1,0.9c0,0.3-0.1,0.5-0.1,0.8c-1.2,5.7-4.4,10.7-9.1,14.2c-3.3,2.5-7.3,4.1-11.4,4.6c-0.6,0.1-1.2,0.2-1.8,0.3
				h-2.5c-0.2-0.1-0.3-0.1-0.5-0.1c-1.1-0.2-2.3-0.2-3.4-0.5c-7-1.5-13-6-16.4-12.4c-1.2-2.2-2-4.6-2.2-7.1c-0.1-1-0.3-1.9-0.4-2.8
				L2812,68.9z M2832.2,55.9c-1.1-1.2-2.2-2.3-3.3-3.4c-0.1-0.1-0.5-0.1-0.7,0c-3.7,1.6-7,4.1-9.3,7.4c-3,4.3-4.1,9.6-3.1,14.7
				c0.8,4.9,3.5,9.3,7.6,12.2c9.2,7,22.3,5.2,29.3-3.9c0.1-0.1,0.1-0.2,0.2-0.2c2-2.7,3.2-5.9,3.6-9.2c0-0.2-0.1-0.3-0.2-0.4
				c-1.4-0.5-2.8-1.1-4.3-1.6c-0.1,0.7-0.1,1.4-0.2,2.1c-0.5,3.8-2.6,7.3-5.6,9.6c-3.8,3.2-8.8,4.3-13.6,3.2
				c-3.8-0.8-7.1-2.9-9.4-6.1c-2.5-3.3-3.5-7.4-2.9-11.4c0.4-2.8,1.6-5.5,3.4-7.6C2825.9,58.5,2828.9,56.7,2832.2,55.9L2832.2,55.9z
				 M2885.6,72.8c0.4,1.5,0.6,3.1,1.1,4.7c1.1,3.3,3.2,6.3,5.9,8.5c3.3,2.8,7.4,4.6,11.8,4.9c3.7,0.3,7.3-0.3,10.6-1.9
				c7.9-3.5,12.6-11.8,11.6-20.4c-0.2-2-0.7-4-1.6-5.9c-2.1-4.3-5.7-7.8-10-9.9c-1.3-0.7-1.3-0.6-2.3,0.4c-0.8,0.8-1.6,1.6-2.5,2.5
				c0.3,0.1,0.5,0.2,0.7,0.2c2.4,0.6,4.6,1.9,6.4,3.5c3.8,3.3,5.6,8.2,5,13.2c-0.3,3.5-1.9,6.8-4.4,9.2c-3.9,4-9.5,5.6-14.9,4.3
				c-5.5-1-9.9-5-11.6-10.3c-0.5-1.6-0.8-3.3-1-4.9L2885.6,72.8z M2870.9,70.7c0.9-0.1,1.8-0.1,2.8-0.2c2.4-0.3,4.8-0.7,7.2-1.1
				c0.8-0.1,0.9-0.3,0.7-1.1c-0.5-2.6-2-5-4.1-6.6c-2.3-1.9-5.4-2.6-8.3-2c-4.8,1-7.8,4.3-8.5,9.2c-0.1,0.3,0.1,0.6,0.3,0.7
				c0.1,0,0.1,0,0.2,0C2864.3,70.3,2867.6,70.7,2870.9,70.7L2870.9,70.7z"/>
			<path id="Path_7" class="st1" d="M2833.9,40.2l-3-3.1c21.2-21.5,57.9-23.1,80.8-0.1l-3,3c-10.3-9.9-22.8-15.2-37.3-15.3
				S2844.3,30.2,2833.9,40.2z"/>
			<path id="Path_8" class="st1" d="M2841.5,48l-3.1-3.1c18.2-18,47.5-18.1,65.7,0l-3.1,3.1C2884.5,31.7,2858,31.7,2841.5,48
				L2841.5,48z"/>
			<path id="Path_9" class="st1" d="M2849.8,56.5l-3.1-3.1c12.8-13.2,35.3-13.9,49.1,0l-3.1,3.1
				C2880.9,44.7,2861.7,44.7,2849.8,56.5z"/>
			<path id="Path_10" class="st1" d="M2871.5,94.5l-6.5-11.2c4.4,0.6,8.8,0.5,13.1-0.2L2871.5,94.5z"/>
		</g>
	</g>
</g>
</svg>
