<?xml version="1.0" encoding="utf-8"?>
<!-- Generator: Adobe Illustrator 23.0.0, SVG Export Plug-In . SVG Version: 6.00 Build 0)  -->
<svg version="1.1" id="b02c3c29-a6b0-4c66-8b17-cf5f0479bd73"
	 xmlns="http://www.w3.org/2000/svg" xmlns:xlink="http://www.w3.org/1999/xlink" x="0px" y="0px" viewBox="0 0 767.3 1483.2"
	 style="enable-background:new 0 0 767.3 1483.2;" xml:space="preserve">
<style type="text/css">
	.st0{fill:none;stroke:#454354;stroke-width:8;stroke-linecap:round;stroke-miterlimit:10;}
	.st1{fill:#FFFFFF;}
</style>
<title>finishPractice_popup</title>
<g id="a1c167d5-d224-4f94-9f1f-2ae3914a6a0f">
	<g id="ab521887-3409-4e27-a507-f0ea41b383ef">
		<g id="e3411879-90ee-45bf-be7c-64e9c98e51e9">
			<line id="fc2907e9-c790-4b01-a70b-8edb34b24b2b" class="st0" x1="143.6" y1="42.3" x2="151.3" y2="73.2"/>
			<path id="e73e7d4c-ca9c-4507-bec8-b9bd7f4bf6f0" class="st0" d="M150.3,69.3l1.8,7.3c1.3,5.1-1.8,10.3-6.9,11.6c0,0,0,0,0,0l0,0
				l0,0c-5.1,1.3-10.3-1.8-11.6-6.9l-1.8-7.3l-9-36.1"/>
			<path id="a439055e-cc9b-4cee-b3d8-9ca01fbcb798" class="st1" d="M37.3,52.8h692.6c20.6,0,37.3,16.7,37.3,37.3v1355.7
				c0,20.6-16.7,37.3-37.3,37.3c0,0,0,0,0,0H37.3c-20.6,0-37.3-16.7-37.3-37.3c0,0,0,0,0,0V90.2C0,69.6,16.7,52.8,37.3,52.8z"/>
			<g id="b593e7fc-f7a1-475f-95e0-d7d7a176aba3">
				<path id="b88932d1-cfd3-4a04-804e-7abf0e08f659" class="st0" d="M118.5,82.8l-14.4-57.6c-2.3-9.1,3.3-18.4,12.4-20.7l0,0l0,0
					c9.1-2.3,18.4,3.3,20.7,12.4l0,0l6.4,25.4"/>
				<path id="a6310f25-749c-4587-901e-f1194f57ae75" class="st0" d="M109.8,47.9l13.5,54.1c3.2,12.9,16.3,20.7,29.1,17.5l0,0
					c12.9-3.2,20.7-16.3,17.5-29.1L163.6,66"/>
			</g>
		</g>
	</g>
</g>
</svg>
