<?xml version="1.0" encoding="utf-8"?>
<!-- Generator: Adobe Illustrator 23.0.0, SVG Export Plug-In . SVG Version: 6.00 Build 0)  -->
<svg version="1.1" id="b40d6e17-514f-46de-ad69-ab017af0398a"
	 xmlns="http://www.w3.org/2000/svg" xmlns:xlink="http://www.w3.org/1999/xlink" x="0px" y="0px" viewBox="0 0 335.7 110.9"
	 style="enable-background:new 0 0 335.7 110.9;" xml:space="preserve">
<style type="text/css">
	.st0{opacity:0.2;fill:#9B6BAE;enable-background:new    ;}
	.st1{fill:#FFFFFF;}
	.st2{fill:#3D2768;}
</style>
<title>halfhalf_btn</title>
<g id="b739f35b-7d46-4d34-a43b-58db552b9ae3">
	<path id="bb872f0e-0977-4f3c-9f34-4652392b413d" class="st0" d="M23,13h289.7c12.7,0,23,10.3,23,23v51.9c0,12.7-10.3,23-23,23H23
		c-12.7,0-23-10.3-23-23V36C0,23.3,10.3,13,23,13z"/>
	<path id="e1acf7b0-8bf1-41dc-ae15-fbffb99d17d9" class="st1" d="M23,0h289.7c12.7,0,23,10.3,23,23v51.9c0,12.7-10.3,23-23,23H23
		c-12.7,0-23-10.3-23-23V23C0,10.3,10.3,0,23,0z"/>
	<g id="b8cf3ab3-f609-46bb-a006-6abbd4ed1f67">
		<g id="a72e54f7-3714-4367-8248-5ce74f22b2c9">
			<g id="ed9c7888-07f7-480b-bed0-b514498cb52a">
				<path id="b44fef80-a2e3-4255-a503-50c90d2a455a" class="st2" d="M291.5,49.5c0,14.9-12.1,27.1-27.1,27.1
					c-14.9,0-27.1-12.1-27.1-27.1s12.1-27.1,27.1-27.1l0,0C279.4,22.4,291.5,34.5,291.5,49.5L291.5,49.5L291.5,49.5"/>
			</g>
		</g>
		<g id="e2bf7a4f-1d14-4863-815a-dae7727a9d46">
			<g id="f722762c-a3ae-4ab8-a546-4a07b192fd68">
				<g>
					<path class="st1" d="M250.2,49.9c-0.1-0.1-0.1-0.2-0.1-0.3v-1.4c0-0.4,0.2-0.7,0.5-0.9l1.8-1.7c1.2-0.9,2.1-1.6,2.7-2.1
						c0.5-0.4,1-0.9,1.4-1.4c0.3-0.3,0.5-0.7,0.5-1.2c0.1-0.7-0.4-1.3-1.1-1.4c-0.1,0-0.2,0-0.4,0c-0.4,0-0.8,0.1-1.1,0.4
						c-0.3,0.3-0.5,0.7-0.5,1.1c-0.1,0.3-0.4,0.5-0.6,0.4h-2.5c-0.1,0-0.2,0-0.3-0.1s-0.1-0.2-0.1-0.3c0-0.8,0.3-1.6,0.7-2.3
						c0.5-0.7,1.1-1.3,1.8-1.6c0.8-0.4,1.8-0.6,2.7-0.6s1.9,0.2,2.8,0.5c1.5,0.6,2.4,2,2.4,3.6c0,0.9-0.3,1.8-0.8,2.5
						c-0.7,0.9-1.6,1.7-2.6,2.4l-1.6,1.6h4.8c0.3,0,0.5,0.2,0.5,0.4l0,0v2c0,0.1,0,0.2-0.1,0.3s-0.2,0.1-0.3,0.1h-9.9
						C250.4,50,250.3,50,250.2,49.9z"/>
				</g>
			</g>
			<g id="b75dce5c-79b9-4447-9a3a-41987b518fe1">
				<g>
					<path class="st1" d="M268.1,62.2c-0.1-0.1-0.1-0.2-0.1-0.3v-1.4c0-0.4,0.2-0.7,0.5-0.9l1.8-1.7c1.2-0.9,2.1-1.6,2.7-2.1
						c0.5-0.4,1-0.9,1.4-1.4c0.3-0.3,0.5-0.7,0.5-1.2c0.1-0.7-0.4-1.3-1.1-1.4c-0.1,0-0.2,0-0.4,0c-0.4,0-0.8,0.1-1.1,0.4
						c-0.3,0.3-0.5,0.7-0.5,1.1c-0.1,0.3-0.4,0.5-0.6,0.4h-2.5c-0.1,0-0.2,0-0.3-0.1c-0.1-0.1-0.1-0.2-0.1-0.3
						c0-0.8,0.3-1.6,0.7-2.3c0.5-0.7,1.1-1.3,1.8-1.6c0.8-0.4,1.8-0.6,2.7-0.6c0.9,0,1.9,0.2,2.8,0.5c1.5,0.6,2.4,2,2.4,3.6
						c0,0.9-0.3,1.8-0.8,2.5c-0.7,0.9-1.6,1.7-2.6,2.4l-1.6,1.6h4.8c0.3,0,0.5,0.2,0.5,0.4l0,0v2c0,0.1,0,0.2-0.1,0.3
						s-0.2,0.1-0.3,0.1h-9.9C268.3,62.4,268.2,62.3,268.1,62.2z"/>
				</g>
			</g>
			<g id="b40a2bd7-d7ce-4ae1-a038-956aeb54244f">
				<g>
					<path class="st1" d="M260.1,58.4c-0.1-0.1-0.1-0.2-0.1-0.3s0-0.1,0-0.2l6.5-15.5c0.1-0.1,0.1-0.2,0.2-0.3s0.2-0.1,0.4-0.1h1.2
						c0.2,0,0.4,0.2,0.4,0.4l0,0c0,0.1,0,0.1,0,0.2l-6.5,15.5c0,0.1-0.1,0.2-0.2,0.3s-0.2,0.1-0.4,0.1h-1.2
						C260.3,58.5,260.2,58.5,260.1,58.4z"/>
				</g>
			</g>
		</g>
	</g>
</g>
<g>
	<path class="st2" d="M51.5,53.8c-0.3-0.2-0.4-0.6-0.4-1v-15c0-0.4,0.1-0.7,0.4-1c0.3-0.2,0.6-0.4,1-0.4h6.6c0.7,0,1.3,0.5,1.3,1.2
		v0.1v15.1c0,0.3-0.1,0.7-0.4,0.9c-0.2,0.3-0.6,0.4-1,0.4h-6.6C52.2,54.2,51.8,54.1,51.5,53.8z"/>
	<path class="st2" d="M90.5,48.9c-1.1,2-2.7,3.6-4.7,4.8l4.1,5.7c0.2,0.2,0.4,0.5,0.5,0.8s0.2,0.6,0.2,1v4.3c0,0.3-0.1,0.7-0.4,0.9
		c-0.2,0.3-0.6,0.4-1,0.4H67.8c-0.7,0-1.3-0.6-1.3-1.3v-4.7c0-0.4,0.1-0.7,0.4-1c0.2-0.2,0.6-0.4,0.9-0.4h12.5l-15.4-21
		c-0.2-0.3-0.3-0.5-0.3-0.8s0.1-0.6,0.3-0.8c0.2-0.2,0.5-0.3,0.8-0.3h6.6c0.7,0,1.3,0.4,1.7,1l7.4,10.2c1.6-1.4,2.4-3.6,2.4-6.7v-3
		c0-0.4,0.1-0.8,0.4-1c0.3-0.3,0.6-0.4,1-0.4h5.6c0.4,0,0.7,0.2,0.9,0.4c0.3,0.3,0.4,0.6,0.4,1v4.6C92.1,44.8,91.6,47,90.5,48.9z"/>
	<path class="st2" d="M98.2,66.4c-0.3-0.2-0.4-0.6-0.4-1V37.8c0-0.4,0.1-0.7,0.4-1c0.3-0.2,0.6-0.4,1-0.4h12.5c5,0,8.7,1,11.1,3.1
		s3.6,5.5,3.6,10.2v15.6c0,0.3-0.1,0.7-0.4,0.9c-0.2,0.3-0.6,0.4-1,0.4h-6.3c-0.4,0-0.7-0.1-1-0.4c-0.3-0.2-0.4-0.6-0.4-1V49.8
		c0-4-2-6-6-6h-4.7v21.7c0,0.3-0.1,0.7-0.4,0.9c-0.2,0.3-0.6,0.4-1,0.4h-6.3C98.8,66.8,98.4,66.7,98.2,66.4z"/>
	<path class="st2" d="M143.7,53.8c-0.3-0.2-0.4-0.6-0.4-1v-15c0-0.4,0.1-0.7,0.4-1c0.3-0.2,0.6-0.4,1-0.4h6.6c0.7,0,1.3,0.5,1.3,1.2
		v0.1v15.1c0,0.3-0.1,0.7-0.4,0.9c-0.2,0.3-0.6,0.4-1,0.4h-6.6C144.3,54.2,143.9,54.1,143.7,53.8z"/>
	<path class="st2" d="M182.6,48.9c-1.1,2-2.7,3.6-4.7,4.8l4.1,5.7c0.2,0.2,0.4,0.5,0.5,0.8s0.2,0.6,0.2,1v4.3c0,0.3-0.1,0.7-0.4,0.9
		c-0.2,0.3-0.6,0.4-1,0.4h-21.5c-0.7,0-1.3-0.6-1.3-1.3v-4.7c0-0.4,0.1-0.7,0.4-1c0.2-0.2,0.6-0.4,0.9-0.4h12.5l-15.4-21
		c-0.2-0.3-0.3-0.5-0.3-0.8s0.1-0.6,0.3-0.8s0.5-0.3,0.8-0.3h6.6c0.7,0,1.3,0.4,1.7,1l7.4,10.2c1.6-1.4,2.4-3.6,2.4-6.7v-3
		c0-0.4,0.1-0.8,0.4-1c0.3-0.3,0.6-0.4,1-0.4h5.6c0.4,0,0.7,0.2,0.9,0.4c0.3,0.3,0.4,0.6,0.4,1v4.6C184.3,44.8,183.7,47,182.6,48.9z
		"/>
	<path class="st2" d="M190.3,66.4c-0.3-0.2-0.4-0.6-0.4-1V37.8c0-0.4,0.1-0.7,0.4-1c0.3-0.2,0.6-0.4,1-0.4h12.5c5,0,8.7,1,11.1,3.1
		c2.4,2.1,3.6,5.5,3.6,10.2v15.6c0,0.3-0.1,0.7-0.4,0.9c-0.2,0.3-0.6,0.4-1,0.4h-6.3c-0.4,0-0.7-0.1-1-0.4c-0.3-0.2-0.4-0.6-0.4-1
		V49.8c0-4-2-6-6-6h-4.7v21.7c0,0.3-0.1,0.7-0.4,0.9c-0.2,0.3-0.6,0.4-1,0.4H191C190.9,66.8,190.6,66.7,190.3,66.4z"/>
</g>
</svg>
