<?xml version="1.0" encoding="utf-8"?>
<!-- Generator: Adobe Illustrator 23.0.0, SVG Export Plug-In . SVG Version: 6.00 Build 0)  -->
<svg version="1.1" id="Layer_1" xmlns="http://www.w3.org/2000/svg" xmlns:xlink="http://www.w3.org/1999/xlink" x="0px" y="0px"
	 viewBox="0 0 567.3 101.5" style="enable-background:new 0 0 567.3 101.5;" xml:space="preserve">
<style type="text/css">
	.st0{fill:#3D2768;}
	.st1{opacity:0.111;fill:#FFFFFF;enable-background:new    ;}
</style>
<g id="Group_347" transform="translate(-372.686 -325.877)">
	<path id="Rectangle_39" class="st0" d="M399.7,325.9H913c14.9,0,27,12.1,27,27v47.5c0,14.9-12.1,27-27,27H399.7
		c-14.9,0-27-12.1-27-27v-47.5C372.7,338,384.8,325.9,399.7,325.9z"/>
	<path id="Rectangle_87" class="st1" d="M656.5,343L656.5,343c1.9,0,3.5,1.6,3.5,3.5v60c0,1.9-1.6,3.5-3.5,3.5l0,0
		c-1.9,0-3.5-1.6-3.5-3.5v-60C653,344.6,654.6,343,656.5,343z"/>
</g>
</svg>
