<?xml version="1.0" encoding="utf-8"?>
<!-- Generator: Adobe Illustrator 23.0.0, SVG Export Plug-In . SVG Version: 6.00 Build 0)  -->
<svg version="1.1" id="Layer_1" xmlns="http://www.w3.org/2000/svg" xmlns:xlink="http://www.w3.org/1999/xlink" x="0px" y="0px"
	 viewBox="0 0 335.7 110.9" style="enable-background:new 0 0 335.7 110.9;" xml:space="preserve">
<style type="text/css">
	.st0{opacity:0.2;fill:#9B6BAE;enable-background:new    ;}
	.st1{fill:#FFFFFF;}
	.st2{enable-background:new    ;}
	.st3{fill:#3D2768;}
</style>
<g id="Group_341" transform="translate(474.239)">
	<path id="Rectangle_25" class="st0" d="M-451.2,13h289.7c12.7,0,23,10.3,23,23v51.9c0,12.7-10.3,23-23,23h-289.7
		c-12.7,0-23-10.3-23-23V36C-474.2,23.3-463.9,13-451.2,13z"/>
	<path id="Rectangle_24" class="st1" d="M-451.2,0h289.7c12.7,0,23,10.3,23,23v51.9c0,12.7-10.3,23-23,23h-289.7
		c-12.7,0-23-10.3-23-23V23C-474.2,10.3-463.9,0-451.2,0z"/>
</g>
<g id="Group_340" transform="translate(-493.314)">
	<g class="st2">
		<path class="st3" d="M555.7,55.2c-0.3-0.2-0.4-0.6-0.4-1V39.1c0-0.4,0.1-0.7,0.4-1s0.6-0.4,1-0.4h6.6c0.4,0,0.7,0.1,1,0.4
			c0.2,0.2,0.4,0.6,0.4,1v15.1c0,0.4-0.1,0.7-0.4,0.9c-0.2,0.3-0.6,0.4-1,0.4h-6.6C556.3,55.5,555.9,55.4,555.7,55.2z"/>
		<path class="st3" d="M590.9,41.2c2,2.2,3,5.5,3,10s-1.3,8.2-4,11c-2.6,2.9-6,4.9-10,6l-2.2,0.6c-0.4,0.1-0.7-0.1-1-0.4
			s-0.5-0.7-0.5-1.1v-5.4c0-0.4,0.1-0.7,0.4-1c0.2-0.3,0.6-0.5,1-0.7l1.7-0.7c1.6-0.6,2.9-1.6,3.8-2.8c0.9-1.3,1.4-3,1.4-5.4
			c0-2.2-0.4-3.8-1.2-4.7s-2.2-1.3-4.3-1.3h-1.2h-0.2l-7.1-0.1c-0.4,0-0.7-0.1-1-0.4c-0.2-0.2-0.4-0.6-0.4-1v-12
			c0-0.4,0.1-0.7,0.4-1c0.3-0.2,0.6-0.4,0.9-0.4h5.7c0.4,0,0.7,0.1,1,0.4c0.2,0.2,0.4,0.6,0.4,1v6h3.3
			C585.6,37.8,588.9,39,590.9,41.2z"/>
		<path class="st3" d="M630,67.7c-0.2-0.2-0.4-0.6-0.4-1V51c0-4-2-6-6-6h-12.1c-0.4,0-0.7-0.1-1-0.4s-0.4-0.6-0.4-1V39
			c0-0.4,0.1-0.7,0.4-1s0.6-0.4,1-0.4h12.3c4.9,0,8.5,1.1,11,3.2c2.5,2.2,3.7,5.5,3.7,10.1v15.9c0,0.4-0.1,0.7-0.4,1
			c-0.3,0.2-0.6,0.4-1,0.4H631C630.6,68.1,630.3,68,630,67.7z M610.6,67.7c-0.3-0.2-0.4-0.6-0.4-1V51.2c0-0.4,0.1-0.7,0.4-1
			s0.6-0.4,1-0.4h6.3c0.4,0,0.7,0.1,1,0.4c0.2,0.2,0.4,0.6,0.4,1v15.6c0,0.4-0.1,0.7-0.4,0.9c-0.2,0.3-0.6,0.4-1,0.4h-6.3
			C611.2,68.1,610.8,68,610.6,67.7z"/>
		<path class="st3" d="M664.1,41.2c2,2.2,3,5.5,3,10s-1.3,8.2-4,11c-2.6,2.9-6,4.9-10,6l-2.1,0.6c-0.4,0.1-0.7-0.1-1-0.4
			s-0.5-0.7-0.5-1.1v-5.4c0-0.4,0.1-0.7,0.4-1c0.2-0.3,0.6-0.5,1-0.7l1.7-0.7c1.6-0.6,2.9-1.6,3.8-2.8c0.9-1.3,1.4-3,1.4-5.4
			c0-2.2-0.4-3.8-1.2-4.7s-2.2-1.3-4.3-1.3h-1.2H651l-7.1-0.1c-0.4,0-0.7-0.1-1-0.4c-0.2-0.2-0.4-0.6-0.4-1v-12c0-0.4,0.1-0.7,0.4-1
			c0.3-0.2,0.6-0.4,0.9-0.4h5.7c0.4,0,0.7,0.1,1,0.4c0.2,0.2,0.4,0.6,0.4,1v6h3.3C658.8,37.8,662.1,39,664.1,41.2z"/>
		<path class="st3" d="M693,67.7c-0.3,0.3-0.6,0.4-1,0.4h-6.6c-0.4,0-0.7-0.1-0.9-0.4c-0.2-0.2-0.4-0.6-0.4-1l-0.8-3.9
			c-0.9,1.1-1.9,1.9-3.1,2.6c-1.4,0.8-2.7,1.5-3.8,2s-2.3,0.8-3.6,1.1l-0.4,0.1c-0.6,0-0.9-0.3-0.9-0.8v-5.7c0-0.6,0.4-1,1.1-1.3
			c0.2-0.1,1.1-0.4,2.4-0.8c1.4-0.4,2.5-0.8,3.3-1.2c1.4-0.7,2.5-1.7,3.5-2.9l-1-4.9c-0.4-2.1-1-3.6-1.6-4.5
			c-0.7-0.9-1.8-1.3-3.3-1.3H674c-0.4,0-0.7-0.1-0.9-0.4c-0.3-0.3-0.4-0.6-0.4-0.9V39c0-0.4,0.1-0.7,0.4-1c0.2-0.3,0.6-0.4,1-0.4h2
			c3,0,5.4,0.5,7.2,1.4s3.3,2.3,4.3,4.2c1.1,1.9,1.9,4.4,2.5,7.6l3.2,16.2C693.4,67.1,693.3,67.4,693,67.7z"/>
	</g>
	<g id="Group_340-2" transform="translate(240.616 22.863)">
		<g id="Group_338">
			<path id="Path_465" class="st3" d="M526.5,26.1c0,14.9-12.1,27.1-27.1,27.1c-14.9,0-27.1-12.1-27.1-27.1
				c0-14.9,12.1-27.1,27.1-27.1l0,0C514.4-0.9,526.5,11.2,526.5,26.1L526.5,26.1"/>
		</g>
		<g class="st2">
			<path class="st1" d="M496.1,30.2c-0.1-0.1-0.2-0.3-0.2-0.5c0-0.3,0-0.5,0-0.7c0.2-0.9,0.5-1.7,1-2.4c0.5-0.7,1.3-1.5,2.2-2.4
				c0.7-0.7,1.2-1.2,1.6-1.7s0.5-0.9,0.6-1.3c0.1-0.6-0.1-1.2-0.6-1.6s-1.1-0.6-1.8-0.6c-1.6,0-2.6,0.8-3,2.3
				c-0.1,0.3-0.2,0.5-0.4,0.6c-0.2,0.1-0.4,0.2-0.7,0.2h-4.3c-0.2,0-0.4-0.1-0.5-0.2c-0.1-0.2-0.2-0.4-0.2-0.6
				c0-1.2,0.4-2.3,1.2-3.4c0.7-1.1,1.8-2,3.2-2.7c1.4-0.7,3.1-1,5.1-1s3.7,0.3,4.9,0.9c1.3,0.6,2.2,1.4,2.7,2.3s0.8,1.8,0.8,2.7
				c0,1.1-0.3,2.1-0.8,2.9s-1.2,1.8-2.2,2.8c-0.6,0.7-1,1.2-1.4,1.6c-0.3,0.4-0.6,0.8-0.8,1.3c-0.1,0.2-0.2,0.5-0.2,0.8
				c-0.2,0.3-0.3,0.6-0.5,0.7c-0.1,0.1-0.3,0.2-0.6,0.2h-4.9C496.3,30.4,496.2,30.3,496.1,30.2z M496,37.3c-0.2-0.2-0.2-0.4-0.2-0.6
				v-3.9c0-0.2,0.1-0.4,0.2-0.6s0.4-0.2,0.6-0.2h4.4c0.2,0,0.4,0.1,0.6,0.2s0.2,0.4,0.2,0.6v3.9c0,0.2-0.1,0.4-0.2,0.6
				c-0.2,0.2-0.4,0.2-0.6,0.2h-4.4C496.4,37.5,496.2,37.4,496,37.3z"/>
		</g>
	</g>
</g>
</svg>
