<?xml version="1.0" encoding="utf-8"?>
<!-- Generator: Adobe Illustrator 23.0.0, SVG Export Plug-In . SVG Version: 6.00 Build 0)  -->
<svg version="1.1" id="Layer_1" xmlns="http://www.w3.org/2000/svg" xmlns:xlink="http://www.w3.org/1999/xlink" x="0px" y="0px"
	 viewBox="0 0 227.3 69.5" style="enable-background:new 0 0 227.3 69.5;" xml:space="preserve">
<style type="text/css">
	.st0{fill:#3D2768;}
	.st1{opacity:0.306;}
	.st2{fill:none;stroke:#9B6BAE;stroke-width:4;stroke-linecap:round;stroke-linejoin:round;}
	.st3{fill:#B576FF;}
</style>
<g id="Group_359" transform="translate(-379.686 -1015.877)">
	<path id="Rectangle_42" class="st0" d="M398.7,1015.9H588c10.5,0,19,8.5,19,19v31.5c0,10.5-8.5,19-19,19H398.7
		c-10.5,0-19-8.5-19-19v-31.5C379.7,1024.4,388.2,1015.9,398.7,1015.9z"/>
	<g id="Group_358" transform="translate(-22)">
		<g id="Group_356" transform="translate(468 1027)" class="st1">
			<g id="Group_357" transform="translate(-40)">
				<path id="Path_470" class="st2" d="M38.3,27.8c0,10.2-8.2,18.4-18.4,18.4S1.5,37.9,1.5,27.8c0-10.2,8.2-18.4,18.4-18.4
					C30,9.4,38.3,17.6,38.3,27.8z"/>
				<path id="Path_471" class="st2" d="M19.9,18.4v9.3l4.9,4.2"/>
				<rect id="Rectangle_43" x="19.3" y="4.5" class="st3" width="1.2" height="3.9"/>
				<rect id="Rectangle_44" x="19.3" y="4.5" class="st2" width="1.2" height="3.9"/>
				<rect id="Rectangle_45" x="16.9" y="1.5" class="st3" width="6" height="2"/>
				<rect id="Rectangle_46" x="16.9" y="1.5" class="st2" width="6" height="2"/>
			</g>
		</g>
	</g>
</g>
</svg>
