<?xml version="1.0" encoding="utf-8"?>
<!-- Generator: Adobe Illustrator 23.0.0, SVG Export Plug-In . SVG Version: 6.00 Build 0)  -->
<svg version="1.1" id="Layer_1" xmlns="http://www.w3.org/2000/svg" xmlns:xlink="http://www.w3.org/1999/xlink" x="0px" y="0px"
	 viewBox="0 0 58.8 59.8" style="enable-background:new 0 0 58.8 59.8;" xml:space="preserve">
<style type="text/css">
	.st0{fill:none;stroke:#3D2768;stroke-width:4;}
	.st1{fill:#FFFFFF;stroke:#3D2768;stroke-width:6;stroke-miterlimit:10;}
	.st2{fill:none;stroke:#3D2768;stroke-width:8;stroke-linecap:round;stroke-linejoin:round;}
	.st3{fill:none;stroke:#3D2768;stroke-width:6;stroke-miterlimit:10;}
</style>
<g id="help_icon" transform="translate(3085.58 1091.451)">
	<path id="Path_503" class="st0" d="M-3075.7-1047.5c3.8,0,6.9,3.1,6.9,6.9c0,3.8-3.1,6.9-6.9,6.9c-3.8,0-6.9-3.1-6.9-6.9
		C-3082.6-1044.4-3079.5-1047.5-3075.7-1047.5C-3075.7-1047.5-3075.7-1047.5-3075.7-1047.5z"/>
	<path id="Path_506" class="st0" d="M-3075.7-1089.5c3.8,0,6.9,3.1,6.9,6.9c0,3.8-3.1,6.9-6.9,6.9c-3.8,0-6.9-3.1-6.9-6.9
		C-3082.6-1086.4-3079.5-1089.5-3075.7-1089.5C-3075.7-1089.5-3075.7-1089.5-3075.7-1089.5z"/>
	<path id="Path_504" class="st0" d="M-3035.7-1047.5c3.8,0,6.9,3.1,6.9,6.9c0,3.8-3.1,6.9-6.9,6.9c-3.8,0-6.9-3.1-6.9-6.9
		C-3042.6-1044.4-3039.5-1047.5-3035.7-1047.5C-3035.7-1047.5-3035.7-1047.5-3035.7-1047.5z"/>
	<path id="Path_505" class="st0" d="M-3035.7-1089.5c3.8,0,6.9,3.1,6.9,6.9c0,3.8-3.1,6.9-6.9,6.9c-3.8,0-6.9-3.1-6.9-6.9
		C-3042.6-1086.4-3039.5-1089.5-3035.7-1089.5C-3035.7-1089.5-3035.7-1089.5-3035.7-1089.5z"/>
	<circle id="Ellipse_16" class="st1" cx="-3056.7" cy="-1061.5" r="25.9"/>
	<path id="Path_501" class="st2" d="M-3076.7-1061.5c0-11.1,9-20,20-20"/>
	<path id="Path_502" class="st2" d="M-3036.6-1061.5c0,11.1-9,20-20,20"/>
	<circle id="Ellipse_17" class="st3" cx="-3056.7" cy="-1061.5" r="14.1"/>
</g>
</svg>
