<?xml version="1.0" encoding="utf-8"?>
<!-- Generator: Adobe Illustrator 23.0.0, SVG Export Plug-In . SVG Version: 6.00 Build 0)  -->
<svg version="1.1" id="a84d188d-31b8-4a50-9fae-1e0e820e5f5e"
	 xmlns="http://www.w3.org/2000/svg" xmlns:xlink="http://www.w3.org/1999/xlink" x="0px" y="0px" viewBox="0 0 295.2 103.9"
	 style="enable-background:new 0 0 295.2 103.9;" xml:space="preserve">
<style type="text/css">
	.st0{fill:#FFFFFF;stroke:#DBDBDB;stroke-width:6;}
	.st1{fill:#3D2768;}
</style>
<title>to_exam</title>
<g id="b441d599-1720-4dc2-b26b-8c5228231b90">
	<path id="ed5cfdf3-dd1e-4465-839c-aabb7c92350f" class="st0" d="M26,3h243.2c12.7,0,23,10.3,23,23v51.9c0,12.7-10.3,23-23,23H26
		c-12.7,0-23-10.3-23-23V26C3,13.3,13.3,3,26,3z"/>
</g>
<path class="st1" d="M41.7,68.6c-0.2-0.2-0.3-0.5-0.3-0.8V40.7c0-0.3,0.1-0.6,0.3-0.8c0.2-0.2,0.5-0.3,0.8-0.3h5c0.6,0,1,0.4,1,1
	c0,0,0,0.1,0,0.1v27.1c0,0.6-0.4,1-1,1c0,0-0.1,0-0.1,0h-5C42.2,68.9,42,68.8,41.7,68.6z"/>
<path class="st1" d="M53.8,63.4c-0.2-0.2-0.3-0.5-0.3-0.8V40.7c0-0.3,0.1-0.6,0.3-0.8c0.2-0.2,0.5-0.3,0.8-0.3h9.9
	c4,0,6.9,0.8,8.8,2.5c1.9,1.6,2.8,4.3,2.8,8.1v12.4c0,0.3-0.1,0.5-0.3,0.7c-0.2,0.2-0.5,0.3-0.8,0.3h-5c-0.3,0-0.6-0.1-0.8-0.3
	c-0.2-0.2-0.3-0.5-0.3-0.8V50.2c0-3.2-1.6-4.8-4.7-4.8h-3.7v17.2c0,0.3-0.1,0.5-0.3,0.7c-0.2,0.2-0.5,0.3-0.8,0.3h-5
	C54.3,63.7,54,63.5,53.8,63.4z"/>
<path class="st1" d="M80.4,63.3c-0.2-0.2-0.3-0.5-0.3-0.7V59c0-0.3,0.1-0.6,0.3-0.8c0.2-0.2,0.5-0.3,0.7-0.3h10.5v-7.8
	c0-3.2-1.6-4.7-4.7-4.7h-5.4c-0.3,0-0.6-0.1-0.8-0.3c-0.2-0.2-0.3-0.5-0.3-0.8v-3.6c0-0.3,0.1-0.6,0.3-0.8c0.2-0.2,0.5-0.3,0.7-0.3
	h5.6c3.9,0,6.9,0.8,8.9,2.5c2,1.7,3,4.3,3,8v7.8h1.5c0.6,0,1,0.4,1,1c0,0,0,0.1,0,0.1v3.6c0,0.3-0.1,0.5-0.3,0.7
	c-0.2,0.2-0.5,0.3-0.8,0.3H81.2C80.9,63.6,80.6,63.5,80.4,63.3z"/>
<path class="st1" d="M126.3,42.2c1.8,1.7,2.7,4.3,2.7,7.7v12.7c0,0.3-0.1,0.5-0.3,0.7c-0.2,0.2-0.5,0.3-0.8,0.3h-11.5
	c-0.6,0-1-0.5-1.1-1V59c0-0.3,0.1-0.6,0.3-0.8c0.2-0.2,0.5-0.3,0.7-0.3h5.4v-7.7c0.1-1.2-0.3-2.4-1.1-3.4c-0.7-0.8-1.7-1.3-2.7-1.2
	h-3.3l-3.6,16.9c0,0.3-0.1,0.6-0.3,0.8c-0.2,0.2-0.5,0.3-0.8,0.3h-4.8c-0.3,0-0.6-0.1-0.8-0.3c-0.2-0.2-0.3-0.5-0.2-0.8l4.1-16.9
	h-2.8c-0.3,0-0.6-0.1-0.8-0.3c-0.2-0.2-0.3-0.5-0.3-0.8v-3.9c0-0.3,0.1-0.6,0.3-0.8c0.2-0.2,0.5-0.3,0.7-0.3h13.5
	C121.8,39.5,124.4,40.5,126.3,42.2z"/>
<path class="st1" d="M149.2,42.3c1.6,1.8,2.4,4.4,2.4,7.9c0.1,3.2-1,6.3-3.2,8.7c-2.1,2.3-4.9,3.9-7.9,4.7l-1.7,0.5
	c-0.3,0.1-0.6-0.1-0.8-0.3c-0.2-0.2-0.4-0.5-0.4-0.8v-4.2c0-0.3,0.1-0.6,0.3-0.8c0.2-0.2,0.5-0.4,0.8-0.6l1.3-0.5
	c1.2-0.4,2.3-1.2,3-2.2c0.8-1.3,1.2-2.8,1.1-4.3c0.1-1.3-0.2-2.6-0.9-3.7c-0.6-0.7-1.8-1-3.4-1.1h-1.1l-5.6,0c-0.6,0-1-0.4-1-1
	c0,0,0-0.1,0-0.1v-9.7c0-0.3,0.1-0.6,0.3-0.8c0.2-0.2,0.5-0.3,0.7-0.3h4.5c0.6,0,1,0.4,1.1,1c0,0,0,0.1,0,0.1v4.8h2.6
	C145,39.7,147.6,40.5,149.2,42.3z"/>
<path class="st1" d="M180.2,63.4c-0.2-0.2-0.3-0.5-0.3-0.8V50.2c0-3.2-1.6-4.8-4.7-4.8h-9.6c-0.3,0-0.6-0.1-0.8-0.3
	c-0.2-0.2-0.3-0.5-0.3-0.8v-3.6c0-0.3,0.1-0.6,0.3-0.8c0.2-0.2,0.5-0.3,0.8-0.3h9.8c3.9,0,6.8,0.9,8.7,2.6c1.9,1.7,2.9,4.4,2.9,8
	v12.4c0,0.3-0.1,0.6-0.3,0.8c-0.2,0.2-0.5,0.3-0.8,0.3h-5C180.7,63.7,180.4,63.6,180.2,63.4z M164.8,63.4c-0.2-0.2-0.3-0.5-0.3-0.8
	V50.3c0-0.3,0.1-0.6,0.3-0.8c0.2-0.2,0.5-0.3,0.8-0.3h5c0.6,0,1,0.4,1,1c0,0,0,0.1,0,0.1v12.3c0,0.3-0.1,0.5-0.3,0.7
	c-0.2,0.2-0.5,0.3-0.8,0.3h-5C165.3,63.7,165.1,63.5,164.8,63.4z"/>
<path class="st1" d="M202.8,63.4c-0.2-0.2-0.3-0.5-0.3-0.8V50.2c0-3.2-1.6-4.8-4.7-4.8h-6.4c-0.6,0-1-0.5-1.1-1v-3.6
	c0-0.3,0.1-0.6,0.3-0.8c0.2-0.2,0.5-0.3,0.7-0.3h6.6c3.9,0,6.8,0.8,8.7,2.4c1.9,1.6,2.9,4.2,2.9,7.9v12.7c0,0.3-0.1,0.5-0.3,0.7
	c-0.2,0.2-0.5,0.3-0.8,0.3h-5C203.3,63.7,203.1,63.5,202.8,63.4z"/>
<path class="st1" d="M227,40c0.2,0.2,0.3,0.5,0.3,0.8v3.6c0,0.6-0.5,1-1,1.1c0,0,0,0-0.1,0h-1.9c-0.4,0.7-0.6,1.4-0.8,2.1
	c-0.2,1-0.3,2-0.3,3v12.2c0,0.3-0.2,0.5-0.4,0.7c-0.2,0.2-0.5,0.3-0.8,0.3h-4.9c-0.5,0-0.9-0.3-0.9-0.8c0,0,0-0.1,0-0.1V50
	c0-2.3,0.3-3.8,0.8-4.7H214c-0.6,0-1-0.5-1-1v-3.6c0-0.3,0.1-0.6,0.3-0.8c0.2-0.2,0.5-0.3,0.7-0.3h12.3
	C226.6,39.7,226.8,39.8,227,40z"/>
<path class="st1" d="M231.7,63.4c-0.2-0.2-0.3-0.5-0.3-0.8V40.7c0-0.3,0.1-0.6,0.3-0.8c0.2-0.2,0.5-0.3,0.8-0.3h9.9
	c4,0,6.9,0.8,8.8,2.5c1.9,1.6,2.8,4.3,2.8,8.1v12.4c0,0.3-0.1,0.5-0.3,0.7c-0.2,0.2-0.5,0.3-0.8,0.3h-5c-0.3,0-0.6-0.1-0.8-0.3
	c-0.2-0.2-0.3-0.5-0.3-0.8V50.2c0-3.2-1.6-4.8-4.7-4.8h-3.7v17.2c0,0.3-0.1,0.5-0.3,0.7c-0.2,0.2-0.5,0.3-0.8,0.3h-5
	C232.2,63.7,231.9,63.5,231.7,63.4z"/>
</svg>
