<?xml version="1.0" encoding="utf-8"?>
<!-- Generator: Adobe Illustrator 23.0.0, SVG Export Plug-In . SVG Version: 6.00 Build 0)  -->
<svg version="1.1" id="Layer_1" xmlns="http://www.w3.org/2000/svg" xmlns:xlink="http://www.w3.org/1999/xlink" x="0px" y="0px"
	 viewBox="0 0 857.5 1107.3" style="enable-background:new 0 0 857.5 1107.3;" xml:space="preserve">
<style type="text/css">
	.st0{opacity:0.2;fill:#9B6BAE;enable-background:new    ;}
	.st1{fill:none;stroke:#454354;stroke-width:8;stroke-linecap:round;stroke-miterlimit:10;}
	.st2{fill:#FFFFFF;}
	.st3{fill:#9B6BAE;}
	.st4{opacity:0.4;}
	.st5{opacity:0.1;fill:none;stroke:#EF4230;stroke-width:7;stroke-miterlimit:10;enable-background:new    ;}
	.st6{opacity:0.1;fill:none;stroke:#26A6E0;stroke-width:7;stroke-miterlimit:10;enable-background:new    ;}
	.st7{fill:none;stroke:#B3B3B3;stroke-width:8;stroke-miterlimit:10;}
</style>
<g id="Group_559" transform="translate(2490.614 1165.507)">
	<path id="Rectangle_52" class="st0" d="M-2453.3-1135.5h782.8c20.6,0,37.3,16.7,37.3,37.3V-95.5c0,20.6-16.7,37.3-37.3,37.3h-782.8
		c-20.6,0-37.3-16.7-37.3-37.3v-1002.7C-2490.6-1118.8-2473.9-1135.5-2453.3-1135.5z"/>
	<line id="Line_103" class="st1" x1="-2317" y1="-1120.7" x2="-2308.8" y2="-1087.9"/>
	<path id="Path_459" class="st1" d="M-2309.9-1092.1l1.9,7.8c1.4,5.4-1.9,10.9-7.4,12.3l0,0c-5.4,1.4-10.9-1.9-12.3-7.4l0,0
		l-1.9-7.8l-9.6-38.3"/>
	<path id="Rectangle_27" class="st2" d="M-2432.3-1109.5h740.8c20.6,0,37.3,16.7,37.3,37.3v950.7c0,20.6-16.7,37.3-37.3,37.3h-740.8
		c-20.6,0-37.3-16.7-37.3-37.3v-950.7C-2469.6-1092.8-2452.9-1109.5-2432.3-1109.5z"/>
	<path id="Rectangle_28" class="st3" d="M-2432.3-1109.5h7.3l0,0V-84.2l0,0h-7.3c-20.6,0-37.3-16.7-37.3-37.3c0,0,0,0,0,0v-950.7
		C-2469.6-1092.8-2452.9-1109.5-2432.3-1109.5z"/>
	<g id="Group_301" transform="translate(-2425.028 -1021.965)" class="st4">
		<line id="Line_104" class="st5" x1="0" y1="0" x2="770.9" y2="0"/>
		<line id="Line_105" class="st6" x1="0" y1="79.1" x2="770.9" y2="79.1"/>
		<line id="Line_106" class="st6" x1="0" y1="158.1" x2="770.9" y2="158.1"/>
		<line id="Line_107" class="st6" x1="0" y1="237.2" x2="770.9" y2="237.2"/>
		<line id="Line_108" class="st6" x1="0" y1="316.3" x2="770.9" y2="316.3"/>
		<line id="Line_109" class="st6" x1="0" y1="395.3" x2="770.9" y2="395.3"/>
		<line id="Line_110" class="st6" x1="0" y1="474.4" x2="770.9" y2="474.4"/>
		<line id="Line_111" class="st6" x1="0" y1="553.5" x2="770.9" y2="553.5"/>
		<line id="Line_112" class="st6" x1="0" y1="632.5" x2="770.9" y2="632.5"/>
		<line id="Line_113" class="st6" x1="0" y1="711.6" x2="770.9" y2="711.6"/>
		<line id="Line_114" class="st6" x1="0" y1="790.7" x2="770.9" y2="790.7"/>
		<line id="Line_115" class="st6" x1="0" y1="869.7" x2="770.9" y2="869.7"/>
	</g>
	<path id="Path_460" class="st7" d="M-2300.8-1161.5"/>
	<g id="Group_302" transform="translate(-2359.531 -1161.46)">
		<path id="Path_461" class="st1" d="M15.9,83.8L0.5,22.5C-1.9,12.8,4,3,13.7,0.5c0,0,0,0,0,0l0,0c9.7-2.4,19.6,3.5,22,13.2
			c0,0,0,0,0,0l6.8,27"/>
		<path id="Path_462" class="st1" d="M6.6,46.6L21,104.1c3.4,13.7,17.3,22,30.9,18.6l0,0c13.7-3.4,22-17.3,18.6-30.9l-6.7-25.8"/>
	</g>
</g>
</svg>
