<?xml version="1.0" encoding="utf-8"?>
<!-- Generator: Adobe Illustrator 23.0.0, SVG Export Plug-In . SVG Version: 6.00 Build 0)  -->
<svg version="1.1" id="Layer_1" xmlns="http://www.w3.org/2000/svg" xmlns:xlink="http://www.w3.org/1999/xlink" x="0px" y="0px"
	 viewBox="0 0 464.4 131" style="enable-background:new 0 0 464.4 131;" xml:space="preserve">
<style type="text/css">
	.st0{fill:#9B6BAE;}
	.st1{clip-path:url(#SVGID_2_);}
	.st2{opacity:0.5;}
	.st3{clip-path:url(#SVGID_4_);}
	.st4{fill:none;stroke:#FFFFFF;stroke-width:4;stroke-miterlimit:10;}
</style>
<rect class="st0" width="464.4" height="131"/>
<g>
	<defs>
		<path id="SVGID_1_" d="M65.5,0h333.4c36.2,0,65.5,29.3,65.5,65.5l0,0v0c0,36.2-29.3,65.5-65.5,65.5l0,0H65.5
			C29.3,131,0,101.7,0,65.5c0,0,0,0,0,0v0C0,29.3,29.3,0,65.5,0z"/>
	</defs>
	<clipPath id="SVGID_2_">
		<use xlink:href="#SVGID_1_"  style="overflow:visible;"/>
	</clipPath>
	<g class="st1">
		<g class="st2">
			<g>
				<defs>
					<rect id="SVGID_3_" x="-110.4" y="-102.8" width="599.2" height="396.4"/>
				</defs>
				<clipPath id="SVGID_4_">
					<use xlink:href="#SVGID_3_"  style="overflow:visible;"/>
				</clipPath>
				<g class="st3">
					<path class="st4" d="M-11.9,216.6c-16.9-24.1-8.9-49.6,1.1-74.2c1.5-3.6,3.1-7.3,8.6-10.4s15.9-5.1,25.2-3.9
						c11.4,1.5,15.1,6.7,16.6,11.2c10,29.1,5.1,58.6-14.5,87c-1.9,2.7-5.2,6-12.7,6.5c-6,0.4-11.9-1.2-14.6-3.3s-3-4.4-3.7-6.6
						S-7.9,218.3-11.9,216.6"/>
					<path class="st4" d="M-8.5,250.9c-5-2.9-27.3-26.2-31.3-40.2s-3-28.1-1.2-42.1c2.4-19.1,6.4-38.4,23.8-56.3
						c5-5.1,13.9-10.9,28.5-11.1c10.5-0.3,20.8,2.9,29.3,9c25.8,19.1,23.2,41.6,20.1,62.9c-3,20.7-6.1,41.5-15.5,62
						c-2.4,5.2-5.6,10.6-15.3,14.4S-3.5,253.8-8.5,250.9z"/>
					<path class="st4" d="M-61.3,178.2c1.9-22.6,5.7-45.1,15.7-67.4c4.3-9.6,9.9-19.3,22.8-27.8c6.8-4.5,17-8.8,30.6-9.5
						s27.1,2.4,34.9,6.7s11,9.4,14,14.4c4.3,6.9,8,14.1,11.2,21.6c1.4,3.5,2.6,7.2,3.4,10.9c0.6,2.7,3,5.2,3.2,7.9
						c0.8,15.1-2.4,29.9,3.9,44.9c4.6,11.1,13.3,22,12.7,33.2c-0.5,10.6-9.3,21-19.1,31c-5.9,6.1-12.3,12.1-18.6,18.2
						c-5,4.8-10.3,9.7-20.2,13.3s-25.7,5.4-37.7,2.9c-10.2-2.1-14.4-6.4-18.8-10.2c-5.2-4.4-10-9.2-14.5-14.4
						c-8.4-9.2-15.2-19.6-20.4-30.9c-3-6.9-6.4-14-4.6-20.9C-60.7,194.1-62,186-61.3,178.2z"/>
					<path class="st4" d="M31.9,296.4c35.2-21.2,71.1-43.1,81.7-67.6c8-18.7,0.9-37.8-6.3-56.5c-13.1-34.2-26.2-68.4-49.6-101.8
						c-6.2-8.9-16.4-19-40-21.6c-19-2.1-39.9,1.8-52,7.7s-17.1,13.3-21.4,20.5c-43.2,72.6-39.6,149.1,11.2,221.1"/>
					<path class="st4" d="M89.6,297.1c69.8-37.1,81.2-85.5,66.1-130.4S102,78.4,80.2,33.9c-8.5-17.3-14.3-35.2-2.8-52.3
						c10.3-15.2,33.7-28.7,51.4-42.9s29.9-30.7,16.3-45.5"/>
					<path class="st4" d="M155.1,296.9c36.4-29.3,50.1-62.1,47.8-94.4s-20.2-64.2-44.4-95.2c-15.8-20.1-34.3-40-44.9-60.6
						s-13.2-42.2,3-62.3c14.5-18,43-33.8,65.3-50.6s38.6-36,26.1-54.2"/>
					<path class="st4" d="M502.1,227.8c-17.8-18.8-35.8-37.9-40.5-57.8s5.2-41,38.3-56.7"/>
					<path class="st4" d="M492.5,280.7c-84-78.3-81.3-168.9,7.6-246.5"/>
					<path class="st4" d="M466.6,300.7c-31.9-36.5-64-73.5-69-111.8c-4.5-34.5,13-68.7,27.7-102.8c28.1-65.1,45.4-133.4-14.3-195.5"
						/>
					<path class="st4" d="M252.9-107.3c-6.8,36.9-39.3,73-37.8,110c1,23.5,15.7,46.6,26.4,69.8c35.9,78.1,25.1,159.1-31.3,235.5"/>
					<path class="st4" d="M243.7-105.3c-47.2,48.8-95.1,99.7-80.2,151.2c9.1,31.5,41.3,61.5,55.5,92.7
						c25.3,55.8-8.1,112.9-45.1,167.8"/>
					<path class="st4" d="M258.7,296.1c-4-59.5,110.4-115.5,84.9-174.3c-18-41.4-103.9-77.3-100.9-119.2c2.8-39.3,84.1-74,79-113.2"
						/>
					<path class="st4" d="M299.3,180.2c8.1,1.3,28.6-42,11.3-62.3c-1.6-2.1-3.8-3.6-6.2-4.5c-4-1.4-8.3-1.8-12.5-1.1
						c-5.2,1-6.3,3.5-6.6,5.7c-2.7,15.8-3.1,31.8-1.4,47.7C284.3,171.4,291.2,178.9,299.3,180.2z"/>
					<path class="st4" d="M296.5,295.8c14.7-37.4,41.8-74,61.7-111.1c26.6-49.7,40.3-100.3,41.5-151c1.1-49.4-9.7-98.9-31.1-147.6"
						/>
					<path class="st4" d="M350.9-55.8c32.4,0.1,10.6,63,15.8,94.5c0.8,4.8,1.5,9.9-3.5,14.4s-17.7,8.2-30.5,7.2
						c-8.6-0.6-16.9-3.5-24-8.4C283,34.6,273,14.6,280.2-5.1C287.6-24.5,318.5-56,350.9-55.8z"/>
					<path class="st4" d="M317.6,37.1c-19-14.8-25.5-31.4-18.8-47.6c1.6-4.1,4.6-7.5,8.5-9.4c5.1-2.8,13.8-4.8,22.8-4.4
						c9.8,0.4,17.4,3.7,20.1,7.3s1.7,7.3,0.7,11c-3.5,12.4-7.1,24.9-10.6,37.3c-0.4,2.1-1.5,3.9-3.1,5.3c-2.1,1.6-6,3-10.9,3.2
						C323.1,39.8,320.1,38.9,317.6,37.1z"/>
					<path class="st4" d="M-121.1,112.3c12-23.1,25-47.2,63.5-65.9c20.1-9.7,46.2-17.6,66.7-27.2s35.6-22.1,27.7-34
						c-6.3-9.6-26-17-43.9-24.2c-41.7-17-77.1-36.1-106.4-56.4"/>
					<path class="st4" d="M281.7,42.1c-18-17.5-23-36.4-14.6-54.8c6.4-13.8,20.1-26.9,33.8-40c10.6-10.1,21.2-20.2,31.8-30.3
						c3.3-3.3,7.6-5.3,12.2-5.6c5.5-0.5,11.4,0.7,14.6,2.5c2.4,1.3,4.3,3.4,5.4,6c26.2,53.2,27.8,107.7,4.7,161.1
						c-1.9,4.3-6.5,9.5-18.1,10c-8.7,0.5-17.2-2.4-23.8-8.1C312.3,69.7,281.7,42.1,281.7,42.1z"/>
					<path class="st4" d="M126.2,295.4c47.6-42.8,76.7-90,53.6-135.5c-12.1-23.8-38-46.2-56.1-69.4C102.7,63.7,92.1,36,92.2,8
						c0.1-15.4,3.5-30.9,18.1-45.3c12.1-11.9,31.4-22.6,46-34.1s24.6-24.6,16.2-37"/>
					<path class="st4" d="M-123.7,44.3c11-6.5,29-10.8,47.4-14.3s37.8-6.2,54.8-10.5S10.3,9,13.8,1.5c2.7-5.9-1.9-12-10-17.1
						S-15.9-25-28-28.9c-40.8-13.1-90.8-23-119.6-40"/>
					<path class="st4" d="M276.3,86.8c-3.7,3.6-3.4,7.6,0.9,11.1c2.6,2,5.7,3.1,8.9,3.2c3,0.2,6-0.2,8.8-1.2
						c1.7-0.6,3.2-1.7,4.2-3.2c1.6-2.9,0.1-6-4.2-8.5c-3.1-1.7-6.5-2.6-10-2.8c-4.2-0.2-9.1,0.9-9.1,2.5"/>
					<path class="st4" d="M25.6,25.8c-4.9,1.7-8.2,4-8.5,6.5s2.4,5,7.5,6.6c4.8,1.5,11.4,2.1,15.9,3.7c2.8,1,4.9,2.4,8.6,2.8
						c2.8,0.3,5.7,0,8.4-0.9c4.2-1.4,5.3-3.7,4.6-5.8s-3.2-4-5.3-5.9s-3.9-4-3.3-6.1c0.4-1.4,1.9-3,0-4.2s-6.4-1.7-10.2-1.4
						c-7.6,0.5-13,2.9-17.9,5.1"/>
				</g>
			</g>
		</g>
	</g>
</g>
</svg>
