<?xml version="1.0" encoding="utf-8"?>
<!-- Generator: Adobe Illustrator 23.0.0, SVG Export Plug-In . SVG Version: 6.00 Build 0)  -->
<svg version="1.1" id="b5b75fd0-2a88-4c36-a697-fbdac7a1ef87"
	 xmlns="http://www.w3.org/2000/svg" xmlns:xlink="http://www.w3.org/1999/xlink" x="0px" y="0px" viewBox="0 0 295.2 103.9"
	 style="enable-background:new 0 0 295.2 103.9;" xml:space="preserve">
<style type="text/css">
	.st0{fill:#3D2768;stroke:#3D2768;stroke-width:6;}
	.st1{fill:#FFFFFF;}
</style>
<title>to_hand</title>
<path id="f04a1980-9f11-4119-b000-1b0fbd9dabca" class="st0" d="M26,3h243.2c12.7,0,23,10.3,23,23v51.9c0,12.7-10.3,23-23,23H26
	c-12.7,0-23-10.3-23-23V26C3,13.3,13.3,3,26,3z"/>
<path class="st1" d="M120.5,40c0.2,0.2,0.3,0.5,0.3,0.8v11c0,2.3-0.5,4.5-1.7,6.5c-1.1,1.8-2.7,3.3-4.6,4.3c-2,1-4.2,1.5-6.4,1.5h-4
	c-2,0-4.1-0.4-5.9-1.3c-1.6-0.8-2.9-2-3.8-3.5C93.4,57.7,93,56,93,54.2V40.7c0-0.3,0.1-0.6,0.3-0.8c0.2-0.2,0.5-0.3,0.8-0.3h4.4
	c0.6,0,1,0.4,1,1c0,0,0,0.1,0,0.1l0,10.1c1.3,0,2.5-0.7,3.2-1.7c0.7-1.4,1-2.9,0.9-4.4v-3.9c0-0.3,0.1-0.6,0.3-0.8
	c0.2-0.2,0.5-0.3,0.8-0.3h4.4c0.3,0,0.5,0.1,0.7,0.3c0.2,0.2,0.3,0.5,0.3,0.8v3.9c0.2,2.7-0.7,5.4-2.5,7.6c-1.8,1.9-4.3,3.1-7,3.2
	c0.5,0.9,1.2,1.6,2.1,2.1c0.9,0.5,1.9,0.7,2.9,0.7h1c1.3,0,2.7-0.3,3.9-0.9c1.1-0.5,2-1.4,2.7-2.4c0.6-1,1-2.3,1-3.5V40.7
	c0-0.6,0.4-1,1-1.1c0,0,0.1,0,0.1,0h4.4C120,39.7,120.3,39.8,120.5,40z"/>
<path class="st1" d="M125.2,53.4c-0.2-0.2-0.3-0.5-0.3-0.8V40.7c0-0.3,0.1-0.6,0.3-0.8c0.2-0.2,0.5-0.3,0.8-0.3h5.3
	c0.6,0,1,0.4,1.1,1c0,0,0,0.1,0,0.1v11.9c0,0.3-0.1,0.5-0.3,0.7c-0.2,0.2-0.5,0.3-0.8,0.3H126C125.7,53.7,125.4,53.6,125.2,53.4z"/>
<path class="st1" d="M153.6,63.3c-0.2,0.2-0.5,0.3-0.8,0.3h-5.3c-0.3,0-0.5-0.1-0.7-0.3c-0.2-0.2-0.3-0.5-0.3-0.8l-0.6-3.1
	c-0.7,0.8-1.5,1.5-2.4,2.1c-1,0.6-2,1.1-3,1.6c-0.9,0.4-1.9,0.7-2.8,0.9l-0.3,0c-0.5,0-0.7-0.2-0.7-0.7v-4.5c0-0.5,0.3-0.8,0.9-1
	c0.2-0.1,0.8-0.3,1.9-0.6c0.9-0.3,1.8-0.6,2.6-1c1.1-0.5,2-1.3,2.8-2.3L144,50c-0.2-1.3-0.6-2.5-1.3-3.6c-0.6-0.8-1.6-1.1-2.6-1
	h-1.5c-0.6,0-1-0.5-1.1-1.1v-3.9c0-0.3,0.1-0.6,0.3-0.8c0.2-0.2,0.5-0.3,0.8-0.3h1.6c2-0.1,3.9,0.3,5.7,1.1c1.5,0.7,2.6,1.9,3.4,3.3
	c1,1.9,1.7,3.9,2,6l2.5,12.8C154,62.9,153.9,63.2,153.6,63.3z"/>
<path class="st1" d="M173.2,63.4c-0.2-0.2-0.3-0.5-0.3-0.8V50.2c0-3.2-1.6-4.8-4.7-4.8h-9.6c-0.3,0-0.6-0.1-0.8-0.3
	c-0.2-0.2-0.3-0.5-0.3-0.8v-3.6c0-0.3,0.1-0.6,0.3-0.8c0.2-0.2,0.5-0.3,0.8-0.3h9.8c3.9,0,6.8,0.9,8.7,2.6c1.9,1.7,2.9,4.4,2.9,8
	v12.4c0,0.3-0.1,0.6-0.3,0.8c-0.2,0.2-0.5,0.3-0.8,0.3h-5C173.7,63.7,173.4,63.6,173.2,63.4z M157.8,63.4c-0.2-0.2-0.3-0.5-0.3-0.8
	V50.3c0-0.3,0.1-0.6,0.3-0.8c0.2-0.2,0.5-0.3,0.8-0.3h5c0.6,0,1,0.4,1.1,1c0,0,0,0.1,0,0.1v12.3c0,0.3-0.1,0.5-0.3,0.7
	c-0.2,0.2-0.5,0.3-0.8,0.3h-5C158.3,63.7,158,63.5,157.8,63.4z"/>
<path class="st1" d="M200.3,42.3c1.6,1.8,2.4,4.4,2.4,7.9c0.1,3.2-1,6.3-3.1,8.7c-2.1,2.3-4.9,3.9-7.9,4.7l-1.7,0.5
	c-0.3,0.1-0.6-0.1-0.8-0.3c-0.2-0.2-0.4-0.5-0.4-0.8v-4.2c0-0.3,0.1-0.6,0.3-0.8c0.2-0.2,0.5-0.4,0.8-0.6l1.3-0.5
	c1.2-0.4,2.3-1.2,3-2.2c0.8-1.3,1.2-2.8,1.1-4.3c0.1-1.3-0.2-2.6-0.9-3.7c-0.6-0.7-1.8-1.1-3.4-1h-1.1l-5.6,0c-0.6,0-1-0.4-1-1
	c0,0,0-0.1,0-0.1v-9.7c0-0.3,0.1-0.6,0.3-0.8c0.2-0.2,0.5-0.3,0.7-0.3h4.5c0.6,0,1,0.4,1,1c0,0,0,0.1,0,0.1v4.8h2.6
	C196.1,39.7,198.7,40.5,200.3,42.3z"/>
</svg>
