<?xml version="1.0" encoding="utf-8"?>
<!-- Generator: Adobe Illustrator 23.0.0, SVG Export Plug-In . SVG Version: 6.00 Build 0)  -->
<svg version="1.1" id="Layer_1" xmlns="http://www.w3.org/2000/svg" xmlns:xlink="http://www.w3.org/1999/xlink" x="0px" y="0px"
	 viewBox="0 0 70.9 112.2" style="enable-background:new 0 0 70.9 112.2;" xml:space="preserve">
<style type="text/css">
	.st0{fill:none;stroke:#3D2768;stroke-width:7;stroke-miterlimit:10;}
	.st1{fill:none;stroke:#3D2768;stroke-width:6;stroke-linecap:round;stroke-linejoin:round;}
	.st2{fill:#3D2768;}
	.st3{fill:none;stroke:#3D2768;stroke-width:6;stroke-linecap:round;}
</style>
<g id="Group_550" transform="matrix(0.966, 0.259, -0.259, 0.966, -577.262, -698.691)">
	<g id="Group_488" transform="translate(767.998 516.731)">
		<path id="Rectangle_51" class="st0" d="M4,49.8h29.4c2.2,0,4,1.8,4,4v44.6c0,2.2-1.8,4-4,4H4c-2.2,0-4-1.8-4-4l0-44.6
			C0,51.6,1.8,49.8,4,49.8z"/>
		<path id="Path_507" class="st1" d="M24.8,49l4.9-9.3l-8-4.6l4.4-8.8"/>
		<circle id="Ellipse_18" class="st2" cx="27.6" cy="23" r="5.7"/>
		<g id="Group_487" transform="translate(18.352)">
			<path id="Path_508" class="st1" d="M0,2.3c5.7-3,12.6-3,18.3,0"/>
			<path id="Path_509" class="st1" d="M4.7,10.7c2.8-1.5,6.2-1.5,9,0"/>
		</g>
	</g>
	<path id="Path_510" class="st3" d="M779,579.2h16.3"/>
</g>
</svg>
