<?xml version="1.0" encoding="utf-8"?>
<!-- Generator: Adobe Illustrator 23.0.0, SVG Export Plug-In . SVG Version: 6.00 Build 0)  -->
<svg version="1.1" id="Layer_1" xmlns="http://www.w3.org/2000/svg" xmlns:xlink="http://www.w3.org/1999/xlink" x="0px" y="0px"
	 viewBox="0 0 54.9 73.6" style="enable-background:new 0 0 54.9 73.6;" xml:space="preserve">
<style type="text/css">
	.st0{fill:#3D2768;}
	.st1{fill:none;stroke:#3D2768;stroke-width:6;stroke-linecap:round;stroke-linejoin:round;}
</style>
<g id="Group_552" transform="translate(3.04 3)">
	<g id="Group_292">
		<g id="Group_290" transform="translate(0 34.323)">
			<path id="Path_453" class="st0" d="M12,1.9c2.5,2.5,2.5,6.6,0,9.1l-8.8,2.8c-1.3,0.4-2.7-0.3-3.1-1.6c-0.2-0.5-0.2-1,0-1.5
				l2.8-8.8C5.4-0.6,9.5-0.6,12,1.9L12,1.9z"/>
		</g>
		<g id="Group_291">
			<path id="Path_454" class="st1" d="M2.8,36L2.8,36L36.9,1.9c2.5-2.5,6.6-2.5,9.1,0s2.5,6.6,0,9.1L12,45l-0.1,0.1"/>
			<path id="Path_455" class="st1" d="M2.9,35.9c2.5-2.5,6.6-2.5,9.1,0s2.5,6.6,0,9.1l0,0l-8.8,2.8c-1.3,0.4-2.7-0.3-3.1-1.6
				c-0.2-0.5-0.2-1,0-1.5L2.9,35.9z"/>
		</g>
	</g>
	<path id="Path_456" class="st1" d="M47.6,65.6l-5.8-4.9C37.4,57,32.2,58,29.1,63l0,0c-3.2,5.2-8.5,6-13,2L10,59.5"/>
</g>
</svg>
