<?xml version="1.0" encoding="utf-8"?>
<!-- Generator: Adobe Illustrator 23.0.0, SVG Export Plug-In . SVG Version: 6.00 Build 0)  -->
<svg version="1.1" id="Layer_1" xmlns="http://www.w3.org/2000/svg" xmlns:xlink="http://www.w3.org/1999/xlink" x="0px" y="0px"
	 viewBox="0 0 130.5 77.4" style="enable-background:new 0 0 130.5 77.4;" xml:space="preserve">
<style type="text/css">
	.st0{fill:none;stroke:#3D2768;stroke-width:6;stroke-linecap:round;stroke-linejoin:round;}
	.st1{fill:#3D2768;stroke:#3D2768;stroke-width:6;stroke-linecap:round;stroke-linejoin:round;}
	.st2{fill:none;stroke:#3D2768;stroke-width:6;stroke-linecap:round;stroke-linejoin:round;stroke-dasharray:12;}
</style>
<g id="Group_529" transform="translate(-272 -1208.145)">
	<g id="Group_528" transform="translate(275 1244.046)">
		<g id="Group_525" transform="translate(99.585)">
			<line id="Line_125" class="st0" x1="0" y1="38.5" x2="0" y2="2.5"/>
			<path id="Path_528" class="st1" d="M12.4,2.5C8.3-0.8,4.1-0.8,0,2.5v14.6c3.9-2,8.5-2,12.4,0c4.8,2.5,8.8,2,12.4,0V2.5
				C20.9,4.2,16.4,4.2,12.4,2.5z"/>
		</g>
		<g id="Group_526">
			<line id="Line_126" class="st0" x1="0" y1="38.5" x2="0" y2="2.5"/>
			<path id="Path_529" class="st1" d="M12.4,2.5C8.3-0.8,4.1-0.8,0,2.5v14.6c3.9-2,8.5-2,12.4,0c4.7,2.5,8.8,2,12.4,0V2.5
				C20.9,4.2,16.4,4.2,12.4,2.5z"/>
		</g>
		<g id="Group_527" transform="translate(47.515)">
			<line id="Line_127" class="st0" x1="0" y1="38.5" x2="0" y2="2.5"/>
			<path id="Path_530" class="st0" d="M12.4,17.1c-3.9-2-8.5-2-12.4,0V2.5c4.1-3.3,8.3-3.3,12.4,0"/>
			<path id="Path_531" class="st0" d="M12.4,2.5c4,1.7,8.5,1.7,12.4,0v14.6c-3.6,2-7.7,2.5-12.4,0"/>
		</g>
	</g>
	<path id="Path_533" class="st2" d="M394.2,1233.1c0-12.1-25.6-22-57.1-22s-57.1,9.8-57.1,22"/>
</g>
</svg>
